<ttFont>
<head>
    <!-- Most of this table will be recalculated by the compiler -->
    <tableVersion value="1.0"/>
    <fontRevision value="2.004"/>
    <checkSumAdjustment value="0x95749f2e"/>
    <magicNumber value="0x5f0f3cf5"/>
    <flags value="00000000 00000011"/>
    <unitsPerEm value="1000"/>
    <created value="Thu Oct  8 10:00:25 2009"/>
    <modified value="Thu Oct  8 10:00:25 2009"/>
    <xMin value="-420"/>
    <yMin value="-309"/>
    <xMax value="1431"/>
    <yMax value="1154"/>
    <macStyle value="00000000 00000000"/>
    <lowestRecPPEM value="3"/>
    <fontDirectionHint value="2"/>
    <indexToLocFormat value="0"/>
    <glyphDataFormat value="0"/>
  </head>
          <CharString index="0">
            409 hmoveto
            289 vlineto
            102 -73 70 -92 -65 -45 -16 -27 -47 vhcurveto
            6 -66 rlineto
            37 52 50 13 49 hhcurveto
            47 40 -40 -74 hvcurveto
            -43 vlineto
            -150 -2 -127 -42 -88 vvcurveto
            -43 27 -81 87 14 94 2 45 58 vhcurveto
            -36 vlineto
            -3 132 rmoveto
            -19 0 -25 -34 -19 vhcurveto
            -18 -29 -38 -1 -11 hhcurveto
            -48 -45 23 42 70 162 7 43 2 hvcurveto
            return
          </CharString>
          <CharString index="1">
            638 hmoveto
            29 callsubr
            76 -204 rlineto
            -98 260 rmoveto
            -248 hlineto
            51 143 -37 -105 51 143 21 59 31 85 7 37 rrcurveto
            1 hlineto
            2 -14 7 -25 23 -66 rrcurveto
            return
          </CharString>
          <CharString index="2">
            rmoveto
            -61 hlineto
            -74 -2 -57 -37 -48 hhcurveto
            -51 -55 39 72 -2 hvcurveto
            -61 hlineto
            -107 2 80 -71 86 hhcurveto
            89 78 73 105 2 hvcurveto
            return
          </CharString>
          <CharString index="3">
            -22 callgsubr
            134 -100 107 -119 -123 -97 -110 -131 -132 102 -99 117 120 100 101 130 vhcurveto
            -78 10 rmoveto
            -118 -68 -59 -74 -69 -72 56 121 121 76 49 65 70 72 -52 -118 vhcurveto
            return
          </CharString>
          <CharString index="4">
            -20 -104 callgsubr
            return
          </CharString>
          <CharString index="5">
            rmoveto
            -11 63 rlineto
            -70 -58 -19 -13 -30 hvcurveto
            17 -21 -34 15 -40 hhcurveto
            -86 -73 -72 -91 -37 13 -36 20 -26 hvcurveto
            -29 -41 0 -39 -5 vvcurveto
            -26 9 -29 17 -21 vhcurveto
            hintmask 1110001011000000
            -52 -31 -12 -46 -26 vvcurveto
            -75 99 -60 122 123 99 59 77 139 -167 0 -39 vhcurveto
            -88 hlineto
            -13 -45 0 53 11 4 16 7 9 hvcurveto
            -15 21 33 -14 37 hhcurveto
            90 70 74 89 48 -22 37 -11 15 hvcurveto
            4 -1 rlineto
            22 28 4 24 hhcurveto
            18 41 -3 0 hvcurveto
            -174 -100 rmoveto
            -78 -47 -28 -43 vhcurveto
            hintmask 1001000110000000
            -37 -52 23 83 83 52 23 37 43 47 -28 -78 hvcurveto
            90 -364 rmoveto
            -44 -69 -33 -82 vhcurveto
            hintmask 0100001001000000
            -81 -71 31 47 3 0 65 78 hvcurveto
            90 hlineto
            22 113 0 -69 hvcurveto
            return
          </CharString>
          <CharString index="6">
            593 233 rmoveto
            461 -78 -462 vlineto
            -132 -84 -66 -84 -82 -82 63 135 vhcurveto
            462 -89 -461 vlineto
            -146 117 -109 135 134 113 110 145 vhcurveto
            return
          </CharString>
          <CharString index="7">
            598 38 rmoveto
            262 -210 -61 132 -165 vlineto
            -14 -42 -45 -7 -45 hhcurveto
            -65 -59 35 51 -41 hvcurveto
            -46 59 -22 74 75 vvcurveto
            75 22 75 46 59 vhcurveto
            51 41 59 35 65 hhcurveto
            34 33 -4 -12 32 hvcurveto
            33 -11 29 -19 26 -22 15 82 rcurveline
            -31 17 -33 13 -34 9 rrcurveto
            8 -34 -35 3 -35 hhcurveto
            -87 -82 -40 -65 -59 hvcurveto
            -62 -70 -32 -91 -93 vvcurveto
            -93 32 -91 62 -69 vhcurveto
            -65 59 82 -40 87 hhcurveto
            73 72 17 32 65 hvcurveto
            return
          </CharString>
          <CharString index="8">
            65 -31 48 -22 24 vhcurveto
            -47 50 -33 9 -92 23 -58 14 -16 4 -30 26 rrcurveto
            -7 6 -28 29 44 vvcurveto
            59 54 60 92 84 48 -33 -31 37 vhcurveto
            15 80 rlineto
            33 -55 -55 17 -73 hhcurveto
            -139 -87 -98 -99 -43 14 -42 40 -42 hvcurveto
            42 -45 44 -12 59 -14 85 -21 10 -3 28 -25 rrcurveto
            20 -17 22 -33 -43 vvcurveto
            -66 -55 -66 -91 -41 -90 10 71 -84 vhcurveto
            -15 -81 rlineto
            -55 88 80 -14 63 hhcurveto
            132 92 101 110 hvcurveto
            return
          </CharString>
          <CharString index="9">
            554 hmoveto
            71 -126 -24 callsubr
            -209 259 330 61 -330 237 138 -20 callgsubr
            183 65 -446 -691 hlineto
            return
          </CharString>
          <CharString index="10">
            -20 -98 callgsubr
            hintmask 00011000
            return
          </CharString>
          <CharString index="11">
            360 128 rmoveto
            55 -37 34 -2 3 vhcurveto
            -39 35 -27 6 -50 9 rrcurveto
            -55 11 -46 10 49 vvcurveto
            62 72 0 13 32 53 -4 -34 57 vhcurveto
            12 65 rlineto
            24 -52 -41 8 -51 hhcurveto
            -25 -141 0 -131 -49 29 -32 25 -19 hvcurveto
            31 -22 22 -4 55 -11 rrcurveto
            36 -7 58 -12 -53 vvcurveto
            -69 -79 0 -15 -81 -56 37 12 -18 vhcurveto
            -12 -68 rlineto
            -16 32 55 -28 81 hhcurveto
            18 55 0 32 43 hvcurveto
            31 24 17 40 43 vvcurveto
            return
          </CharString>
          <CharString index="12">
            rmoveto
            -111 hlineto
            -175 -122 rlineto
            89 hlineto
            endchar
          </CharString>
          <CharString index="13">
            587 45 rmoveto
            -6 69 -29 -20 -29 -19 -34 -10 rlinecurve
            -11 -32 -35 -1 -34 hhcurveto
            -65 -59 35 51 -41 hvcurveto
            -46 59 -22 74 75 vvcurveto
            75 22 75 46 59 vhcurveto
            51 41 59 35 65 hhcurveto
            30 31 -3 -9 29 hvcurveto
            30 -9 28 -15 26 -18 14 82 rcurveline
            -30 12 -31 10 -32 6 rrcurveto
            6 -31 -32 2 -32 hhcurveto
            -88 -81 -40 -65 -59 hvcurveto
            -62 -70 -32 -91 -93 vvcurveto
            -93 32 -91 62 -69 vhcurveto
            -65 59 81 -40 88 hhcurveto
            35 35 1 10 34 hvcurveto
            34 9 31 18 30 18 rrcurveto
            return
          </CharString>
          <CharString index="14">
            rmoveto
            -37 -41 0 -9 -8 -42 0 37 37 41 0 9 8 42 0 -37 vhcurveto
            61 -1 rmoveto
            48 -49 37 -62 -65 -46 -40 -43 -48 49 -37 62 65 46 40 43 vhcurveto
            return
          </CharString>
          <CharString index="15">
            rmoveto
            -61 hlineto
            hintmask 10000000
            -34 -1 -12 -24 -26 hhcurveto
            -23 -21 14 19 -27 hvcurveto
            hintmask 01000000
            13 -19 -20 12 -25 hhcurveto
            hintmask 10000000
            -47 -49 -41 -78 -2 hvcurveto
            61 hlineto
            hintmask 01000000
            34 1 12 24 26 hhcurveto
            23 21 -14 -19 27 hvcurveto
            hintmask 10000000
            -13 19 20 -12 25 hhcurveto
            hintmask 01000000
            47 49 41 78 -22 callsubr
          </CharString>
          <CharString index="16">
            -23 callsubr
            hintmask 11000110
            -87 callsubr
            hintmask 11001010
            -78 callsubr
            return
          </CharString>
          <CharString index="17">
            -20 -91 callgsubr
            hintmask 00011000
            return
          </CharString>
          <CharString index="18">
            679 345 rmoveto
            210 -145 161 -166 -170 -142 -163 -208 return
          </CharString>
          <CharString index="19">
            rmoveto
            -125 172 rlineto
            -60 hlineto
            -125 -172 rlineto
            59 hlineto
            96 123 96 -123 rlineto
            return
          </CharString>
          <CharString index="20">
            435 hmoveto
            444 -78 -290 vlineto
            -75 -56 -35 -64 -71 -7 26 43 vhcurveto
            331 vlineto
            return
          </CharString>
          <CharString index="21">
            rmoveto
            74 -74 -75 22 vlineto
            -22 -112 rlineto
            37 hlineto
            endchar
          </CharString>
          <CharString index="22">
            22 callsubr
            1 -1 rlineto
            23 hlineto
            -39 -32 rlineto
            32 -78 -298 vlineto
            -57 -52 -45 -62 -33 -19 2 12 -16 vhcurveto
            -14 11 -3 17 24 vvcurveto
            334 -78 -334 vlineto
            -39 6 -30 19 -23 vhcurveto
            -21 18 29 -8 32 hhcurveto
            70 65 21 38 41 hvcurveto
            -48 75 372 vlineto
            return
          </CharString>
          <CharString index="23">
            435 hmoveto
            298 vlineto
            66 -15 91 -122 -90 -49 -68 -8 -6 vhcurveto
            71 -72 -450 78 245 vlineto
            66 25 83 76 96 1 -71 -32 vhcurveto
            -291 vlineto
            return
          </CharString>
          <CharString index="24">
            61 72 31 93 94 vvcurveto
            -89 17 rmoveto
            -80 -18 -80 -46 -66 vhcurveto
            -53 -37 -57 -39 -65 hhcurveto
            -65 -57 39 53 -37 hvcurveto
            -46 66 -18 80 80 vvcurveto
            74 19 74 45 59 vhcurveto
            51 38 58 34 63 hhcurveto
            63 58 -34 -51 38 hvcurveto
            45 -59 19 -74 -74 vvcurveto
            return
          </CharString>
          <CharString index="25">
            415 40 rmoveto
            -6 67 rlineto
            -40 -51 -54 -14 -51 hhcurveto
            -83 -56 72 98 78 37 96 106 52 34 -8 -36 55 hvcurveto
            12 65 rlineto
            34 -59 -34 9 -61 hhcurveto
            -139 -81 -121 -118 -124 91 -109 125 54 55 14 37 54 hvcurveto
            return
          </CharString>
          <CharString index="26">
            rmoveto
            -61 hlineto
            hintmask 01000000
            -34 -1 -12 -24 -26 hhcurveto
            -23 -21 14 19 -27 hvcurveto
            hintmask 00100000
            13 -19 -20 12 -25 hhcurveto
            hintmask 01000000
            -47 -49 -41 -78 -2 hvcurveto
            61 hlineto
            hintmask 00100000
            34 1 12 24 26 hhcurveto
            23 21 -14 -19 27 hvcurveto
            hintmask 01000000
            -13 19 20 -12 25 hhcurveto
            hintmask 00100000
            47 49 41 78 -22 callsubr
          </CharString>
          <CharString index="27">
            rmoveto
            -59 hlineto
            -96 -123 -96 123 rlineto
            -59 hlineto
            125 -172 rlineto
            60 hlineto
            endchar
          </CharString>
          <CharString index="28">
            721 345 rmoveto
            142 -71 103 -57 47 vhcurveto
            52 90 -55 32 -48 -84 rlineto
            37 -71 -52 4 -30 hhcurveto
            -183 -150 -166 -205 -49 7 -133 120 -106 hvcurveto
            -51 -90 55 -32 48 84 rlineto
            -31 57 53 -10 43 hhcurveto
            180 153 159 208 hvcurveto
            -212 274 rmoveto
            -291 -502 rlineto
            -69 79 -8 96 53 vvcurveto
            198 121 112 126 38 40 -10 -26 43 vhcurveto
            127 -274 rmoveto
            -199 -123 -107 -124 -30 -43 6 29 -48 vhcurveto
            290 502 rlineto
            59 -66 19 -90 -75 vvcurveto
            return
          </CharString>
          <CharString index="29">
            -78 -335 hlineto
            -72 23 -48 83 53 71 16 43 49 vhcurveto
            -48 vlineto
            return
          </CharString>
          <CharString index="30">
            -68 callgsubr
            169 rmoveto
            -89 hlineto
            -197 122 rlineto
            111 hlineto
            endchar
          </CharString>
          <CharString index="31">
            327 388 rmoveto
            67 vlineto
            -89 -1 -55 -49 -31 -46 rrcurveto
            91 -70 -450 75 214 vlineto
            100 72 72 98 2 vhcurveto
            return
          </CharString>
          <CharString index="32">
            rmoveto
            33 callsubr
            -167 rlineto
            61 hlineto
            endchar
          </CharString>
          <CharString index="33">
            -161 -11 -77 -77 -79 hhcurveto
            -34 -33 8 30 -36 hvcurveto
            -31 -53 rlineto
            -25 34 37 -21 62 hhcurveto
            131 121 139 218 hvcurveto
            -86 76 rmoveto
            -82 -49 -74 -79 -47 -28 23 37 -21 vhcurveto
            -22 39 -1 37 43 vvcurveto
            44 1 41 28 44 vhcurveto
            29 20 28 28 52 hhcurveto
            98 17 -136 -49 2 hvcurveto
            return
          </CharString>
          <CharString index="34">
            -53 30 -65 -116 rlineto
            11 -24 -34 9 -30 hhcurveto
            -121 -97 -109 -132 -102 55 -53 25 -24 hvcurveto
            -69 -123 53 -30 67 120 rlineto
            -14 31 30 -5 25 hhcurveto
            118 100 100 131 hvcurveto
            -160 167 rmoveto
            -163 -288 rlineto
            -36 46 -1 54 21 vvcurveto
            118 68 62 75 20 19 -4 -9 18 vhcurveto
            85 -167 rmoveto
            -115 -70 -55 -73 -19 -19 3 8 -17 vhcurveto
            161 286 rlineto
            16 -21 21 -42 -64 vvcurveto
            return
          </CharString>
          <CharString index="35">
            rmoveto
            125 -86 99 -103 -40 -38 -15 -26 -29 vhcurveto
            206 263 64 -335 -369 66 vlineto
            40 17 37 39 58 hhcurveto
            47 54 -41 -120 -166 -122 0 -9 -67 -61 39 54 -29 hvcurveto
            -33 -56 rlineto
            -57 41 69 -41 81 hhcurveto
            119 100 99 126 hvcurveto
            endchar
          </CharString>
          <CharString index="36">
            rmoveto
            80 -80 -80 vlineto
            254 hmoveto
            80 -80 -80 vlineto
            return
          </CharString>
          <CharString index="37">
            644 623 rmoveto
            65 -608 -65 134 vlineto
            12 12 1 12 hhcurveto
            90 -624 89 624 hlineto
            return
          </CharString>
          <CharString index="38">
            722 -11 61 16 61 92 -13 callsubr
            -59 59 hstemhm
            47 72 -36 78 161 78 -73 78 229 54 hintmask 0000101100000000
            693 219 rmoveto
            35 0 207 -166 -54 -57 -27 -50 -41 vhcurveto
            48 -30 -54 29 -57 hhcurveto
            -64 -46 -16 -27 -47 hvcurveto
            6 -66 rlineto
            34 48 47 16 57 hhcurveto
            45 42 -38 -76 hvcurveto
            -41 vlineto
            hintmask 0000010000000000
            -57 -3 -218 -10 -120 vvcurveto
            hintmask 1110001101000000
            -33 18 -92 96 28 144 3 74 47 vhcurveto
            -74 64 74 -3 25 hhcurveto
            48 53 16 36 44 hvcurveto
            -6 65 rlineto
            -49 -53 -57 -7 -28 hhcurveto
            -71 -68 62 107 -5 hvcurveto
            234 55 rmoveto
            hintmask 1111010011000000
            -229 hlineto
            77 17 52 49 54 hhcurveto
            31 60 -16 -110 15 hvcurveto
            -307 -147 rmoveto
            -77 -101 0 -15 -54 -38 28 37 68 163 8 41 vhcurveto
            1 -7 3 -45 -12 vvcurveto
            endchar
          </CharString>
          <CharString index="39">
            120 -67 82 -70 -73 -67 -84 -117 -120 69 -82 71 71 66 85 116 vhcurveto
            return
          </CharString>
          <CharString index="40">
            rmoveto
            80 -80 -80 vlineto
            226 hmoveto
            80 -80 -80 vlineto
            return
          </CharString>
          <CharString index="41">
            972 -22 61 -39 70 0 61 199 61 169 70 -1 65 -39 61 hstemhm
            28 86 354 91 hintmask 0101100010000000
            929 hmoveto
            71 -125 -24 callsubr
            -209 260 329 61 -329 239 138 hlineto
            hintmask 0000010000000000
            -49 callsubr
            182 65 -396 hlineto
            -21 -14 1 10 -45 hvcurveto
            hintmask 1000001100000000
            7 -33 -20 4 -28 hhcurveto
            -173 -157 -159 -212 -214 160 -153 170 28 19 4 7 33 hvcurveto
            hintmask 0100000000000000
            8 38 16 3 27 hhcurveto
            -47 347 rmoveto
            hintmask 1010101110000000
            -116 0 -67 -4 -33 vhcurveto
            -57 -8 -13 -35 -84 hhcurveto
            -141 -108 145 176 163 109 132 140 83 14 -34 -61 8 hvcurveto
            4 -33 0 -91 -89 vvcurveto
            endchar
          </CharString>
          <CharString index="42">
            774 hmoveto
            694 -114 vlineto
            -130 -339 -35 -91 -47 -124 -11 -47 rlinecurve
            -1 hlineto
            -5 21 -12 37 -15 42 -157 414 rcurveline
            -34 87 rlineto
            -113 -694 78 620 1 hlineto
            6 -32 40 -109 26 -68 148 -389 rcurveline
            73 hlineto
            133 348 48 127 10 29 27 72 5 23 rlinecurve
            1 -1 rlineto
            -620 vlineto
            return
          </CharString>
          <CharString index="43">
            402 hmoveto
            62 -147 -24 callsubr
            -85 hlineto
            266 344 rlineto
            39 -358 -59 139 vlineto
            12 12 1 12 hhcurveto
            78 hlineto
            -267 -345 rlineto
            -41 vlineto
            return
          </CharString>
          <CharString index="44">
            -17 callsubr
            247 167 -17 callsubr
            endchar
          </CharString>
          <CharString index="45">
            -20 hstemhm
            81 78 -14 80 -66 78 54 80 -14 78 hintmask 1100000101000000
            -87 callsubr
            hintmask 1100010001000000
            -78 callsubr
            hintmask 0011101010000000
            10 callgsubr
            return
          </CharString>
          <CharString index="46">
            -187 rmoveto
            -75 callgsubr
            return
          </CharString>
          <CharString index="47">
            -90 callsubr
            361 return
          </CharString>
          <CharString index="48">
            89 -89 -89 vlineto
            return
          </CharString>
          <CharString index="49">
            444 -49 callgsubr
            return
          </CharString>
          <CharString index="50">
            rmoveto
            -133 167 rlineto
            -78 hlineto
            150 56 callsubr
          </CharString>
          <CharString index="51">
            rmoveto
            64 -361 -64 vlineto
            endchar
          </CharString>
          <CharString index="52">
            -261 694 rlineto
            -88 hlineto
            return
          </CharString>
          <CharString index="53">
            818 hmoveto
            71 -105 -24 callsubr
            -170 260 270 61 -270 239 108 -20 callgsubr
            153 65 -492 hlineto
            -284 -694 rlineto
            75 hlineto
            91 222 rlineto
            225 -222 hlineto
            278 vmoveto
            -202 hlineto
            144 352 rlineto
            58 hlineto
            return
          </CharString>
          <CharString index="54">
            -105 callsubr
            -25 35 rmoveto
            -89 hlineto
            -197 122 rlineto
            111 hlineto
            endchar
          </CharString>
          <CharString index="55">
            -61 callsubr
            -1 44 43 58 callsubr
            return
          </CharString>
          <CharString index="56">
            499 hmoveto
            66 vlineto
            -267 -2 rlineto
            -49 630 -89 -694 hlineto
            return
          </CharString>
          <CharString index="57">
            667 0 56 274 61 247 56 hstemhm
            97 83 154 83 88 78 -54 81 hintmask 10111100
            610 188 rmoveto
            87 -87 71 -106 17 vhcurveto
            91 23 75 58 76 vvcurveto
            92 -107 82 -142 vhcurveto
            -237 -694 264 hlineto
            hintmask 01110010
            144 105 90 98 hvcurveto
            -105 331 rmoveto
            -60 -71 -68 -138 vhcurveto
            -116 247 126 hlineto
            hintmask 11010100
            111 88 -53 -66 hvcurveto
            24 -330 rmoveto
            -75 -88 -58 -108 vhcurveto
            -153 274 145 hlineto
            hintmask 00000010
            106 98 -61 -80 hvcurveto
            endchar
          </CharString>
          <CharString index="58">
            12 12 -1 12 hhcurveto
            return
          </CharString>
          <CharString index="59">
            388 149 rmoveto
            545 -86 -542 vlineto
            -17 0 -96 -118 -42 -52 18 38 -34 vhcurveto
            -14 -75 rlineto
            -12 24 63 -30 84 hhcurveto
            103 72 58 113 hvcurveto
            return
          </CharString>
          <CharString index="60">
            435 hmoveto
            298 vlineto
            66 -15 91 -122 -62 -48 -31 -41 -32 vhcurveto
            311 40 callsubr
            return
          </CharString>
          <CharString index="61">
            180 rmoveto
            91 -70 61 -67 23 vhcurveto
            89 29 34 66 53 vvcurveto
            94 -85 81 -108 -112 -82 -83 -92 -53 34 -66 89 -29 vhcurveto
            hintmask 1101001100100000
            -72 -25 -65 -63 -87 vvcurveto
            -109 92 -93 115 119 89 96 106 vhcurveto
            -84 323 rmoveto
            -72 -51 -46 -72 vhcurveto
            hintmask 1010101101000000
            -77 -47 49 69 69 49 48 74 79 45 -52 -65 hvcurveto
            3 -322 rmoveto
            -97 -62 -45 -64 vhcurveto
            hintmask 0101001000100000
            -69 -58 48 94 105 72 38 54 58 69 -40 -103 hvcurveto
            endchar
          </CharString>
          <CharString index="62">
            -77 -29 -64 -39 -11 -54 3 137 133 51 8 14 40 28 -67 -73 vhcurveto
            return
          </CharString>
          <CharString index="63">
            61 169 -13 callsubr
            return
          </CharString>
          <CharString index="64">
            -22 callgsubr
            134 -100 107 -119 -123 -97 -110 -131 -126 92 -95 110 -9 vhcurveto
            -42 -29 -31 -43 3 -45 rrcurveto
            -70 callgsubr
            -75 callgsubr
            -1 43 40 33 44 25 rrcurveto
            92 27 69 88 108 vvcurveto
            -78 10 rmoveto
            -118 -68 -59 -74 -69 -72 56 121 121 76 49 65 70 72 -52 -118 vhcurveto
            return
          </CharString>
          <CharString index="65">
            21 -38 callgsubr
            return
          </CharString>
          <CharString index="66">
            180 rmoveto
            91 -70 61 -67 23 vhcurveto
            89 29 34 66 53 vvcurveto
            94 -85 81 -108 -112 -82 -83 -92 -53 34 -66 89 -29 vhcurveto
            -72 -25 -65 -63 -87 vvcurveto
            -109 92 -93 115 119 89 96 106 vhcurveto
            -84 323 rmoveto
            -72 -51 -46 -72 -77 -47 49 69 69 49 48 74 79 45 -52 -65 vhcurveto
            3 -322 rmoveto
            -97 -62 -45 -64 -69 -58 48 94 105 72 38 54 58 69 -40 -103 vhcurveto
            endchar
          </CharString>
          <CharString index="67">
            624 15 rmoveto
            14 14 -13 13 -10 10 -198 198 rcurveline
            197 198 10 10 14 13 -14 14 rlinecurve
            -15 14 -13 -13 -10 -10 -197 -197 rcurveline
            -198 198 -10 10 -13 13 -15 -14 rlinecurve
            -14 -14 14 -14 10 -10 198 -198 rcurveline
            -198 -198 -10 -10 -14 -13 14 -14 rlinecurve
            15 -14 13 13 10 10 198 198 rcurveline
            198 -198 10 -10 13 -13 14 14 rlinecurve
            return
          </CharString>
          <CharString index="68">
            -190 272 168 172 rlineto
            -90 hlineto
            -203 -208 rlineto
            458 -72 -694 69 141 vlineto
            80 83 156 -224 rlineto
            return
          </CharString>
          <CharString index="69">
            -20 hstemhm
            34 75 0 75 hintmask 01000100
            184 -59 rmoveto
            503 -75 -513 vlineto
            hintmask 10001000
            -31 callsubr
            return
          </CharString>
          <CharString index="70">
            rmoveto
            280 -119 63 -85 -70 -41 -30 -37 -35 vhcurveto
            -63 -68 -2 -66 -43 vvcurveto
            -128 66 -112 96 62 64 29 54 43 vhcurveto
            return
          </CharString>
          <CharString index="71">
            444 -11 61 126 55 169 61 hstem
            35 57 247 75 vstem
            414 224 rmoveto
            132 -96 105 -120 -63 -57 -24 -28 -39 vhcurveto
            6 -65 rlineto
            52 63 66 4 23 hhcurveto
            80 64 -71 -98 3 hvcurveto
            -309 hlineto
            -34 1 -75 39 -60 vhcurveto
            -62 41 61 -11 36 hhcurveto
            111 90 106 129 hvcurveto
            -75 -48 rmoveto
            -76 -16 -53 -50 -57 hhcurveto
            -52 -56 34 92 -13 hvcurveto
            endchar
          </CharString>
          <CharString index="72">
            78 245 hlineto
            66 25 83 76 96 1 -71 -32 vhcurveto
            -291 vlineto
            return
          </CharString>
          <CharString index="73">
            rmoveto
            11 -9 9 -11 -12 -5 -10 -6 -4 vhcurveto
            -435 -752 rlineto
            0 -7 -11 -7 vvcurveto
            -11 10 -9 10 11 5 7 9 5 vhcurveto
            434 752 rlineto
            8 12 0 2 4 vvcurveto
            return
          </CharString>
          <CharString index="74">
            500 -206 57 146 72 60 57 212 57 return
          </CharString>
          <CharString index="75">
            688 -22 56 660 -20 return
          </CharString>
          <CharString index="76">
            -35 callgsubr
            hintmask 00000100
            63 62 52 94 hvcurveto
            return
          </CharString>
          <CharString index="77">
            hmoveto
            70 -328 vlineto
            56 32 115 55 0 vvcurveto
            76 38 81 42 83 vvcurveto
            116 -116 48 -100 -78 -60 -32 -66 -47 vhcurveto
            -1 -3 -3 -3 -4 vvcurveto
            1 -8 32 -26 18 -13 rrcurveto
            61 20 51 30 58 hhcurveto
            56 86 -24 -77 -90 -87 -37 -90 -48 hvcurveto
            -125 -68 rlineto
            -10 -6 -10 -2 -15 vvcurveto
            -53 vlineto
            endchar
          </CharString>
          <CharString index="78">
            239 -14 callgsubr
            return
          </CharString>
          <CharString index="79">
            639 21 -21 289 58 291 56 hstem
            96 86 319 81 vstem
            582 492 rmoveto
            107 -99 95 -138 vhcurveto
            -249 -694 89 289 167 hlineto
            124 106 91 112 hvcurveto
            -81 hmoveto
            -79 -63 -66 -115 vhcurveto
            -141 291 141 hlineto
            110 68 -61 -85 hvcurveto
            endchar
          </CharString>
          <CharString index="80">
            50 callsubr
            64 36 15 25 20 22 -6 -11 18 vhcurveto
            67 vlineto
            2 -6 -25 9 -29 hhcurveto
            -74 -59 -70 -100 hvcurveto
            return
          </CharString>
          <CharString index="81">
            75 callsubr
            hstem
            14 638 vstem
            652 hmoveto
            -283 366 241 328 rlineto
            -96 hlineto
            -188 -261 -194 261 rlineto
            -104 hlineto
            255 -328 -269 -366 rlineto
            96 hlineto
            216 306 222 -306 rlineto
            endchar
          </CharString>
          <CharString index="82">
            54 72 205 78 return
          </CharString>
          <CharString index="83">
            vlineto
            -46 callgsubr
            return
          </CharString>
          <CharString index="84">
            hstemhm
            81 78 0 78 120 78 return
          </CharString>
          <CharString index="85">
            2 hvcurveto
            endchar
          </CharString>
          <CharString index="86">
            76 -204 -50 -28 -40 -48 3 -51 rlinecurve
            -70 callgsubr
            -208 447 rmoveto
            -248 hlineto
            51 143 -37 -105 51 143 21 59 31 85 7 37 rrcurveto
            1 hlineto
            2 -14 7 -25 23 -66 rrcurveto
            return
          </CharString>
          <CharString index="87">
            -20 hstemhm
            137 80 66 80 hintmask 10011000
            11 callsubr
            hintmask 01100000
            return
          </CharString>
          <CharString index="88">
            690 694 rmoveto
            1 vlineto
            -11 callgsubr
            return
          </CharString>
          <CharString index="89">
            -89 -200 -234 vvcurveto
            84 hlineto
            300 143 214 78 88 vhcurveto
            endchar
          </CharString>
          <CharString index="90">
            rmoveto
            -78 hlineto
            -63 -167 rlineto
            61 hlineto
            return
          </CharString>
          <CharString index="91">
            78 240 vlineto
            -29 31 44 -28 60 hhcurveto
            97 88 98 136 hvcurveto
            -78 hmoveto
            -103 -71 -70 -75 -39 -27 20 27 -20 vhcurveto
            -10 15 0 2 18 vvcurveto
            201 vlineto
            35 24 39 23 43 hhcurveto
            76 60 -76 -92 hvcurveto
            endchar
          </CharString>
          <CharString index="92">
            hstemhm
            28 70 -36 70 179 70 20 70 return
          </CharString>
          <CharString index="93">
            -21 167 -20 return
          </CharString>
          <CharString index="94">
            55 126 61 return
          </CharString>
          <CharString index="95">
            -67 callsubr
            endchar
          </CharString>
          <CharString index="96">
            27 callgsubr
            113 40 callgsubr
            82 75 hintmask 11001000
            -76 callsubr
            return
          </CharString>
          <CharString index="97">
            61 hstem
            81 78 198 78 vstem
            -84 callsubr
            return
          </CharString>
          <CharString index="98">
            hmoveto
            61 -99 423 -91 vlineto
            -253 -423 rlineto
            -61 vlineto
            hintmask 11010000
            265 -194 79 194 hlineto
            -73 61 rmoveto
            -193 hlineto
            hintmask 01001000
            52 86 140 236 1 57 rrcurveto
            endchar
          </CharString>
          <CharString index="99">
            485 392 rmoveto
            -11 63 rlineto
            -70 -58 -19 -13 -30 hvcurveto
            17 -21 -34 15 -40 hhcurveto
            -86 -73 -72 -91 -37 13 -36 20 -26 hvcurveto
            -29 -41 0 -39 -5 vvcurveto
            -26 9 -29 17 -21 vhcurveto
            return
          </CharString>
          <CharString index="100">
            556 -22 69 279 66 258 66 return
          </CharString>
          <CharString index="101">
            278 -42 callsubr
            return
          </CharString>
          <CharString index="102">
            rmoveto
            67 vlineto
            7 -21 -25 4 -23 hhcurveto
            -84 -65 -70 -101 81 callsubr
            118 58 -121 120 vlineto
            70 51 10 25 16 25 -2 -15 29 vhcurveto
            return
          </CharString>
          <CharString index="103">
            hmoveto
            59 -125 425 -10 vlineto
            -19 -27 -22 -7 -25 hvcurveto
            hintmask 01000000
            -13 -42 -43 -2 -43 hhcurveto
            -59 vlineto
            hintmask 10101000
            44 43 3 12 43 hvcurveto
            -337 -125 -59 vlineto
            endchar
          </CharString>
          <CharString index="104">
            171 rmoveto
            61 -99 424 -91 vlineto
            -253 -424 rlineto
            -61 265 -171 79 171 vlineto
            -73 61 rmoveto
            -193 hlineto
            52 86 140 237 1 57 rrcurveto
            endchar
          </CharString>
          <CharString index="105">
            75 386 110 58 -113 119 vlineto
            74 67 7 26 20 27 -2 -15 34 vhcurveto
            return
          </CharString>
          <CharString index="106">
            rmoveto
            -45 callsubr
            return
          </CharString>
          <CharString index="107">
            -11 1 -20 4 -19 5 rrcurveto
            6 -19 -29 8 -21 hhcurveto
            -35 -2 -28 -5 -13 6 -21 31 21 29 8 6 21 hvcurveto
            3 1 25 7 20 2 return
          </CharString>
          <CharString index="108">
            hstemhm
            35 75 247 57 return
          </CharString>
          <CharString index="109">
            305 310 rmoveto
            34 -90 372 -14 vlineto
            -43 -36 -59 -2 -35 -1 rrcurveto
            -35 vlineto
            24 1 34 1 36 12 rrcurveto
            -312 -90 -34 vlineto
            return
          </CharString>
          <CharString index="110">
            -1 44 44 58 callsubr
            45 71 -126 hlineto
            -46 callgsubr
            -209 259 330 61 -330 237 138 hlineto
            return
          </CharString>
          <CharString index="111">
            667 -11 5 callgsubr
            return
          </CharString>
          <CharString index="112">
            61 285 61 235 58 return
          </CharString>
          <CharString index="113">
            rmoveto
            36 -71 255 -65 vlineto
            -182 -255 rlineto
            -36 190 -103 57 103 vlineto
            5 571 rmoveto
            -47 hlineto
            -400 -654 rlineto
            return
          </CharString>
          <CharString index="114">
            16 callgsubr
            hstemhm
            return
          </CharString>
          <CharString index="115">
            hstemhm
            -25 callsubr
            return
          </CharString>
          <CharString index="116">
            600 148 rmoveto
            -78 hlineto
            -46 -20 -46 -41 -30 -29 6 8 -28 vhcurveto
            13 -54 -54 14 -55 hhcurveto
            28 46 21 50 6 53 return
          </CharString>
          <CharString index="117">
            203 486 -71 callsubr
            return
          </CharString>
          <CharString index="118">
            217 571 -67 callsubr
            return
          </CharString>
          <CharString index="119">
            86 59 141 59 hstem
            277 286 rmoveto
            59 -266 -59 vlineto
            266 -200 rmoveto
            59 -266 -59 vlineto
            endchar
          </CharString>
          <CharString index="120">
            -74 -58 74 -386 75 386 return
          </CharString>
          <CharString index="121">
            267 -205 64 585 -20 return
          </CharString>
          <CharString index="122">
            rrcurveto
            hintmask 01000000
            61 -50 38 47 101 -25 80 -20 rlinecurve
            hintmask 10000000
            -9 35 35 -7 36 hhcurveto
            83 56 81 89 hvcurveto
            endchar
          </CharString>
          <CharString index="123">
            -229 -21 1000 -20 hstem
            return
          </CharString>
          <CharString index="124">
            83 32 callsubr
            return
          </CharString>
          <CharString index="125">
            64 333 58 127 -20 return
          </CharString>
          <CharString index="126">
            87 40 callgsubr
            return
          </CharString>
          <CharString index="127">
            -20 112 83 hstem
            56 78 54 67 vstem
            263 417 12 callgsubr
            235 -569 rmoveto
            -23 63 return
          </CharString>
          <CharString index="128">
            hlineto
            77 286 rlineto
            1 2 3 12 4 vvcurveto
            11 -9 9 -11 -16 -3 -13 -11 -3 vhcurveto
            -80 -300 rlineto
            return
          </CharString>
          <CharString index="129">
            -1 34 callgsubr
            return
          </CharString>
          <CharString index="130">
            hstem
            82 78 242 78 vstem
            480 223 rmoveto
            120 -63 112 -96 -60 -58 -21 -39 -46 vhcurveto
            return
          </CharString>
          <CharString index="131">
            29 hlineto
            29 callsubr
            return
          </CharString>
          <CharString index="132">
            61 28 61 200 61 -6 61 return
          </CharString>
          <CharString index="133">
            383 -11 63 350 59 return
          </CharString>
          <CharString index="134">
            736 -22 65 610 63 return
          </CharString>
          <CharString index="135">
            -40 -28 -31 -44 3 -44 rrcurveto
            -70 callgsubr
            -14 59 rlineto
            return
          </CharString>
          <CharString index="136">
            -55 callsubr
            -261 -694 rlineto
            74 hlineto
            77 204 rlineto
            291 hlineto
            return
          </CharString>
          <CharString index="137">
            861 0 70 152 56 52 61 238 65 return
          </CharString>
          <CharString index="138">
            hstem
            222 61 100 61 vstem
            383 return
          </CharString>
          <CharString index="139">
            hstem
            97 83 vstem
            180 return
          </CharString>
          <CharString index="140">
            -78 hlineto
            -133 return
          </CharString>
          <CharString index="141">
            hintmask 00111000
            286 868 -95 callsubr
          </CharString>
          <CharString index="142">
            83 -19 56 80 80 hhcurveto
            66 50 -57 -68 hvcurveto
            78 hlineto
            111 -85 92 -109 return
          </CharString>
          <CharString index="143">
            14 callgsubr
            hstem
            101 75 return
          </CharString>
          <CharString index="144">
            544 -11 55 484 -20 return
          </CharString>
          <CharString index="145">
            80 78 199 78 15 84 return
          </CharString>
          <CharString index="146">
            83 111 83 vstem
            return
          </CharString>
          <CharString index="147">
            -75 -694 vlineto
            return
          </CharString>
          <CharString index="148">
            rmoveto
            20 -15 15 -20 -19 -16 -15 -20 -19 16 -16 19 20 15 16 19 vhcurveto
            return
          </CharString>
          <CharString index="149">
            11 -1 20 -4 19 -5 rrcurveto
            -6 19 29 -8 21 hhcurveto
            35 2 28 5 hvcurveto
            return
          </CharString>
          <CharString index="150">
            -22 61 362 61 158 58 return
          </CharString>
          <CharString index="151">
            62 callgsubr
            116 72 207 89 vstem
            484 return
          </CharString>
          <CharString index="152">
            61 155 61 22 58 285 58 hstemhm
            return
          </CharString>
          <CharString index="153">
            18 callsubr
            hstemhm
            103 72 return
          </CharString>
          <CharString index="154">
            -21 444 -20 return
          </CharString>
          <CharString index="155">
            62 callgsubr
            81 72 207 89 vstem
            449 return
          </CharString>
          <CharString index="156">
            78 245 vlineto
            68 27 81 74 93 5 -65 -38 vhcurveto
            -291 return
          </CharString>
          <CharString index="157">
            54 callgsubr
            121 vlineto
            return
          </CharString>
          <CharString index="158">
            681 21 78 callgsubr
            return
          </CharString>
          <CharString index="159">
            517 -173 -21 183 return
          </CharString>
          <CharString index="160">
            708 -42 callsubr
            return
          </CharString>
          <CharString index="161">
            45 30 -23 -32 22 hvcurveto
            return
          </CharString>
          <CharString index="162">
            hstemhm
            28 610 return
          </CharString>
          <CharString index="163">
            -167 rlineto
            endchar
          </CharString>
          <CharString index="164">
            vstem
            588 34 rmoveto
            -6 69 rlineto
            -51 -72 -45 -10 -69 hhcurveto
            return
          </CharString>
          <CharString index="165">
            34 46 26 rrcurveto
            return
          </CharString>
          <CharString index="166">
            rcurveline
            -21 52 rlineto
            -68 -416 47 372 1 hlineto
            3 return
          </CharString>
          <CharString index="167">
            vstem
            532 121 rmoveto
            286 -286 -286 vlineto
            return
          </CharString>
          <CharString index="168">
            hstemhm
            96 86 96 89 141 81 return
          </CharString>
          <CharString index="169">
            hstemhm
            38 callsubr
            return
          </CharString>
          <CharString index="170">
            hstemhm
            94 89 hintmask 11100100
            return
          </CharString>
          <CharString index="171">
            96 86 326 81 return
          </CharString>
          <CharString index="172">
            -18 -39 -36 -30 -36 -44 -8 hvcurveto
            -57 -4 rlineto
            -37 return
          </CharString>
          <CharString index="173">
            47 74 47 hstem
            -352 61 100 61 vstem
            -191 return
          </CharString>
          <CharString index="174">
            -244 67 111 -20 return
          </CharString>
          <CharString index="175">
            hstemhm
            64 callsubr
            return
          </CharString>
          <CharString index="176">
            -56 61 281 61 0 61 281 61 hstemhm
            return
          </CharString>
          <CharString index="177">
            178 430 rmoveto
            286 -78 -286 vlineto
            return
          </CharString>
          <CharString index="178">
            40 38 vvcurveto
            52 -60 39 -71 -56 -52 -24 -42 return
          </CharString>
          <CharString index="179">
            52 callsubr
            61 341 64 return
          </CharString>
          <CharString index="180">
            hstemhm
            35 75 67 89 91 57 return
          </CharString>
          <CharString index="181">
            89 hstem
            94 89 vstem
            183 return
          </CharString>
          <CharString index="182">
            667 -42 callsubr
            return
          </CharString>
          <CharString index="183">
            0 83 callsubr
            return
          </CharString>
          <CharString index="184">
            500 522 67 return
          </CharString>
          <CharString index="185">
            84 -84 86 181 84 -18 82 hintmask 11110100
            return
          </CharString>
          <CharString index="186">
            16 callsubr
            119 40 return
          </CharString>
          <CharString index="187">
            -216 5 callsubr
            hstemhm
            return
          </CharString>
          <CharString index="188">
            hvcurveto
            -90 13 callsubr
            return
          </CharString>
          <CharString index="189">
            19 0 20 hvcurveto
            endchar
          </CharString>
          <CharString index="190">
            64 630 -20 return
          </CharString>
        <CharString name=".notdef">
          280 endchar
        </CharString>
        <CharString name="A">
          -60 callgsubr
          hstem
          28 610 vstem
          -106 callsubr
          endchar
        </CharString>
        <CharString name="AE">
          30 callsubr
          hstem
          419 88 vstem
          -54 callsubr
          endchar
        </CharString>
        <CharString name="AE.dup">
          30 callsubr
          hstem
          419 88 vstem
          -54 callsubr
          endchar
        </CharString>
        <CharString name="AEacute">
          30 callsubr
          68 callgsubr
          419 88 hintmask 11110010
          -54 callsubr
          hintmask 00001100
          203 238 -95 callsubr
        </CharString>
        <CharString name="Aacute">
          -60 callgsubr
          93 -21 122 -97 callgsubr
          167 351 -95 callsubr
        </CharString>
        <CharString name="Abreve">
          -60 callgsubr
          72 67 111 -97 callgsubr
          145 407 -105 callsubr
          endchar
        </CharString>
        <CharString name="Abreveacute">
          -60 callgsubr
          72 67 268 -97 callgsubr
          145 407 -54 callgsubr
        </CharString>
        <CharString name="Abrevedotbelow">
          -60 callgsubr
          72 67 111 -28 callgsubr
          145 407 -105 callsubr
          hintmask 00000010
          -125 -1124 -80 callgsubr
        </CharString>
        <CharString name="Abrevegrave">
          -60 callgsubr
          72 67 111 -97 callgsubr
          145 407 -53 callsubr
        </CharString>
        <CharString name="Abrevehookabove">
          -60 callgsubr
          72 67 146 67 128 -20 55 callsubr
          hintmask 11100010
          -106 callsubr
          hintmask 00011100
          145 407 -105 callsubr
          -71 152 -107 callgsubr
        </CharString>
        <CharString name="Abrevetilde">
          -60 callgsubr
          72 67 166 61 -3 61 55 callsubr
          hintmask 11100010
          -106 callsubr
          hintmask 00010100
          145 407 -105 callsubr
          -2 174 -86 callgsubr
        </CharString>
        <CharString name="Acaron">
          -60 callgsubr
          83 -21 134 -74 callgsubr
          353 -82 callgsubr
        </CharString>
        <CharString name="Acircumflex">
          -60 callgsubr
          83 -21 134 -74 callgsubr
          219 -103 callgsubr
          endchar
        </CharString>
        <CharString name="Acircumflexacute">
          -60 callgsubr
          83 -21 291 -74 callgsubr
          219 -77 callgsubr
        </CharString>
        <CharString name="Acircumflexdotbelow">
          -60 callgsubr
          83 -21 134 -28 callgsubr
          132 219 -103 callgsubr
          hintmask 00000010
          -53 -936 -80 callgsubr
        </CharString>
        <CharString name="Acircumflexgrave">
          -60 callgsubr
          83 -21 134 -74 callgsubr
          219 -77 callsubr
        </CharString>
        <CharString name="Acircumflexhookabove">
          -60 callgsubr
          83 -21 364 -74 callgsubr
          219 -103 callgsubr
          97 286 -107 callgsubr
        </CharString>
        <CharString name="Acircumflextilde">
          -60 callgsubr
          83 -21 189 61 -3 61 55 callsubr
          hintmask 11100010
          -106 callsubr
          hintmask 00010100
          132 219 -103 callgsubr
          70 308 -86 callgsubr
        </CharString>
        <CharString name="Adblgrave">
          -60 callgsubr
          93 -21 167 -97 callgsubr
          91 229 -87 callgsubr
        </CharString>
        <CharString name="Adieresis">
          -60 callgsubr
          62 80 55 callsubr
          -432 80 94 80 hintmask 11101000
          -106 callsubr
          hintmask 00010110
          -71 219 -71 callsubr
          endchar
        </CharString>
        <CharString name="Adotbelow">
          -60 callgsubr
          55 callsubr
          -350 89 hintmask 00101000
          46 callgsubr
          hintmask 11010000
          -261 -694 rlineto
          74 hlineto
          77 204 rlineto
          291 hlineto
          76 -204 rlineto
          -98 260 rmoveto
          -248 hlineto
          51 143 -37 -105 51 143 21 59 31 85 7 37 rrcurveto
          1 hlineto
          2 -14 7 -25 23 -66 rrcurveto
          hintmask 00001000
          20 -717 -80 callgsubr
        </CharString>
        <CharString name="Agrave">
          -60 callgsubr
          93 -21 122 -97 callgsubr
          71 229 -67 callgsubr
        </CharString>
        <CharString name="Ahookabove">
          -60 callgsubr
          83 -21 215 -97 callgsubr
          73 356 -107 callgsubr
        </CharString>
        <CharString name="Alpha">
          -60 callgsubr
          hstem
          28 610 vstem
          -106 callsubr
          endchar
        </CharString>
        <CharString name="Amacron">
          -60 callgsubr
          82 64 55 callsubr
          hintmask 11101000
          -106 callsubr
          hintmask 00010000
          157 239 -56 callsubr
        </CharString>
        <CharString name="Aogonek">
          57 callgsubr
          hstemhm
          459 63 24 63 -34 63 hintmask 10001010
          656 -61 callsubr
          rrcurveto
          hintmask 01000100
          -1 44 42 58 callsubr
          hintmask 01110010
          24 callsubr
          hintmask 11101100
          -21 callsubr
          endchar
        </CharString>
        <CharString name="Aogonekacute">
          57 callgsubr
          93 28 callgsubr
          459 63 24 63 -34 63 hintmask 1000001010000000
          656 -61 callsubr
          rrcurveto
          hintmask 0100000100000000
          -1 44 42 58 callsubr
          hintmask 0111000010000000
          24 callsubr
          hintmask 1110001100000000
          -21 callsubr
          hintmask 0000110000000000
          167 351 -95 callsubr
        </CharString>
        <CharString name="Aring">
          -64 callgsubr
          47 74 47 55 callsubr
          -416 61 100 61 hintmask 11101000
          -106 callsubr
          hintmask 00110110
          26 261 -93 callsubr
          endchar
        </CharString>
        <CharString name="Aringacute">
          -64 callgsubr
          47 74 47 157 -20 55 callsubr
          -416 61 100 61 hintmask 11100100
          -106 callsubr
          hintmask 00111011
          26 261 -93 callsubr
          32 242 -95 callsubr
        </CharString>
        <CharString name="Atilde">
          -60 callgsubr
          62 61 -3 61 -99 callgsubr
          hintmask 00001000
          143 338 -95 callgsubr
        </CharString>
        <CharString name="B">
          -50 callsubr
        </CharString>
        <CharString name="Beta">
          -50 callsubr
        </CharString>
        <CharString name="C">
          75 callgsubr
          hstem
          66 89 vstem
          -94 callsubr
          endchar
        </CharString>
        <CharString name="Cacute">
          75 callgsubr
          61 28 callgsubr
          66 89 hintmask 11001000
          -94 callsubr
          hintmask 00110000
          -45 823 -95 callsubr
        </CharString>
        <CharString name="Ccaron">
          75 callgsubr
          51 -21 134 -20 hstemhm
          66 89 hintmask 11001000
          -94 callsubr
          hintmask 00110000
          -80 825 -82 callgsubr
        </CharString>
        <CharString name="Ccedilla">
          79 callgsubr
          57 callsubr
          -151 -89 152 153 163 98 142 139 49 callgsubr
          -192 -135 -173 -196 -193 133 -176 195 83 39 13 43 71 hvcurveto
          -190 -80 -17 callgsubr
        </CharString>
        <CharString name="Ccircumflex">
          75 callgsubr
          51 -21 134 -20 hstemhm
          66 89 hintmask 11001000
          -94 callsubr
          hintmask 00110000
          -80 691 -103 callgsubr
          endchar
        </CharString>
        <CharString name="Cdotaccent">
          75 callgsubr
          30 89 hstemhm
          66 89 151 89 hintmask 11010000
          -94 callsubr
          hintmask 00101000
          -192 691 -80 callgsubr
        </CharString>
        <CharString name="Chi">
          -26 callsubr
        </CharString>
        <CharString name="D">
          76 callgsubr
          hstem
          77 callgsubr
          vstem
          -65 callgsubr
          endchar
        </CharString>
        <CharString name="Dcaron">
          76 callgsubr
          63 -21 134 -20 hstemhm
          77 callgsubr
          hintmask 11001100
          -65 callgsubr
          hintmask 00110000
          -164 529 -82 callgsubr
        </CharString>
        <CharString name="Dcroat">
          -34 callgsubr
        </CharString>
        <CharString name="Ddotbelow">
          76 callgsubr
          hstemhm
          96 86 32 89 276 86 hintmask 11101000
          -65 callgsubr
          hintmask 00010000
          -276 -541 -80 callgsubr
        </CharString>
        <CharString name="Delta">
          833 0 83 611 -20 hstem
          790 hmoveto
          -329 694 rlineto
          -90 hlineto
          -329 -694 rlineto
          610 83 rmoveto
          -494 hlineto
          143 305 56 120 36 77 12 40 rlinecurve
          4 -13 7 -21 54 -117 rrcurveto
          endchar
        </CharString>
        <CharString name="Dlinebelow">
          722 -187 64 123 56 582 56 hstemhm
          77 callgsubr
          hintmask 01111000
          -65 callgsubr
          hintmask 10000000
          -139 -528 -56 callsubr
        </CharString>
        <CharString name="E">
          -58 callgsubr
          hstem
          94 89 vstem
          -98 callsubr
          endchar
        </CharString>
        <CharString name="Eacute">
          -58 callgsubr
          76 -21 122 -90 callsubr
          396 868 -95 callsubr
        </CharString>
        <CharString name="Ebreve">
          -58 callgsubr
          55 67 111 -90 callsubr
          374 924 -105 callsubr
          endchar
        </CharString>
        <CharString name="Ecaron">
          -58 callgsubr
          66 -21 134 -60 callsubr
          870 -82 callgsubr
        </CharString>
        <CharString name="Ecircumflex">
          -58 callgsubr
          66 -21 134 -60 callsubr
          736 -103 callgsubr
          endchar
        </CharString>
        <CharString name="Ecircumflexacute">
          -58 callgsubr
          66 -21 291 -60 callsubr
          736 -77 callgsubr
        </CharString>
        <CharString name="Ecircumflexdotbelow">
          -58 callgsubr
          66 -21 134 -20 hstemhm
          94 89 71 89 hintmask 11111100
          -98 callsubr
          361 736 -103 callgsubr
          hintmask 00000010
          -53 -936 -80 callgsubr
        </CharString>
        <CharString name="Ecircumflexgrave">
          -58 callgsubr
          66 -21 134 -60 callsubr
          736 -77 callsubr
        </CharString>
        <CharString name="Ecircumflexhookabove">
          -58 callgsubr
          66 -21 364 -60 callsubr
          736 -103 callgsubr
          97 286 -107 callgsubr
        </CharString>
        <CharString name="Ecircumflextilde">
          -58 callgsubr
          66 -21 189 -18 callgsubr
          94 89 hintmask 11100010
          -98 callsubr
          hintmask 00010100
          361 736 -103 callgsubr
          70 308 -86 callgsubr
        </CharString>
        <CharString name="Edblgrave">
          -58 callgsubr
          76 -21 167 -90 callsubr
          347 746 -87 callgsubr
        </CharString>
        <CharString name="Edieresis">
          -58 callgsubr
          45 80 hstemhm
          94 89 -11 80 94 80 hintmask 11101000
          -98 callsubr
          hintmask 00010110
          158 736 -71 callsubr
          endchar
        </CharString>
        <CharString name="Edotaccent">
          -58 callgsubr
          45 89 hstemhm
          94 89 71 89 hintmask 11101000
          -98 callsubr
          hintmask 00010100
          249 736 -80 callgsubr
        </CharString>
        <CharString name="Edotbelow">
          -58 callgsubr
          hstemhm
          94 89 71 89 hintmask 11110000
          -98 callsubr
          hintmask 00001000
          249 -200 -80 callgsubr
        </CharString>
        <CharString name="Egrave">
          -58 callgsubr
          76 -21 122 -90 callsubr
          300 746 -67 callgsubr
        </CharString>
        <CharString name="Ehookabove">
          -58 callgsubr
          66 -21 215 -90 callsubr
          302 873 -107 callgsubr
        </CharString>
        <CharString name="Emacron">
          -58 callgsubr
          65 64 hstemhm
          94 89 hintmask 11101000
          -98 callsubr
          hintmask 00010000
          386 756 -56 callsubr
        </CharString>
        <CharString name="Eng">
          708 -22 78 582 78 hstem
          94 89 342 88 vstem
          613 347 rmoveto
          182 -65 187 -158 -82 -73 -34 -55 -52 vhcurveto
          67 -89 -694 89 467 vlineto
          97 22 83 74 102 hhcurveto
          118 17 -153 -138 -138 -17 -153 -118 hvcurveto
          -78 vlineto
          158 65 187 182 hvcurveto
          endchar
        </CharString>
        <CharString name="Eogonek">
          597 -212 70 142 70 259 61 236 65 hstemhm
          94 89 174 63 0 89 hintmask 10000100
          554 -61 callsubr
          rrcurveto
          hintmask 01101010
          3 callsubr
          hintmask 11011100
          -49 callsubr
          183 65 -446 -691 350 hlineto
          -43 -29 -47 -47 3 -51 rrcurveto
          -70 callgsubr
          endchar
        </CharString>
        <CharString name="Eogonekacute">
          597 -212 70 142 70 259 61 236 65 76 28 callgsubr
          94 89 174 63 0 89 hintmask 1000000100000000
          554 -61 callsubr
          rrcurveto
          hintmask 0110001010000000
          3 callsubr
          hintmask 1101001100000000
          -49 callsubr
          183 65 -446 -691 350 hlineto
          -43 -29 -47 -47 3 -51 rrcurveto
          -70 callgsubr
          hintmask 0000110000000000
          -64 1055 -95 callsubr
        </CharString>
        <CharString name="Epsilon">
          -58 callgsubr
          hstem
          94 89 vstem
          -98 callsubr
          endchar
        </CharString>
        <CharString name="Ereversed">
          -58 callgsubr
          hstem
          465 89 vstem
          554 hmoveto
          691 -446 -65 183 vlineto
          12 12 1 12 hhcurveto
          138 -237 -330 -61 330 -259 -209 hlineto
          -12 -12 1 -12 hhcurveto
          -126 -71 hlineto
          endchar
        </CharString>
        <CharString name="Eta">
          -6 callgsubr
          53 callgsubr
          -53 callgsubr
          endchar
        </CharString>
        <CharString name="Eth">
          -34 callgsubr
        </CharString>
        <CharString name="Etilde">
          -58 callgsubr
          45 61 -3 61 -91 callgsubr
          hintmask 00001000
          372 855 -95 callgsubr
        </CharString>
        <CharString name="Euro">
          599 -22 56 -56 64 213 56 72 56 213 64 hstemhm
          123 88 hintmask 01111100
          549 34 rmoveto
          -6 70 rlineto
          -50 -48 -29 -12 -69 hhcurveto
          -56 -46 41 48 -30 hvcurveto
          -23 39 -15 42 -8 43 rrcurveto
          244 hlineto
          10 56 rlineto
          -261 hlineto
          -1 12 0 12 12 vvcurveto
          12 0 12 1 12 vhcurveto
          273 hlineto
          10 56 rlineto
          -276 hlineto
          8 44 15 42 23 38 rrcurveto
          49 30 46 40 56 hhcurveto
          53 36 -15 -38 37 hvcurveto
          15 83 rlineto
          25 -48 -38 9 -55 hhcurveto
          -78 -69 -45 -63 -47 hvcurveto
          -37 -50 -23 -58 -12 -61 rrcurveto
          -70 hlineto
          -10 -56 rlineto
          73 hlineto
          -1 -12 0 -12 -12 vvcurveto
          -12 0 -12 1 -12 vhcurveto
          -63 hlineto
          -10 -56 rlineto
          80 hlineto
          12 -61 23 -58 37 -50 rrcurveto
          -63 47 69 -45 78 hhcurveto
          hintmask 10000000
          70 29 11 45 53 hvcurveto
          endchar
        </CharString>
        <CharString name="F">
          569 21 -21 315 61 250 68 hstem
          94 89 vstem
          526 626 rmoveto
          65 -432 -691 89 315 302 61 -302 251 131 vlineto
          -49 callsubr
          endchar
        </CharString>
        <CharString name="G">
          4 callsubr
          hstem
          66 89 365 78 vstem
          -100 callsubr
          endchar
        </CharString>
        <CharString name="Gacute">
          4 callsubr
          61 28 callgsubr
          66 89 365 78 hintmask 11100110
          -100 callsubr
          hintmask 00011000
          -74 830 -95 callsubr
        </CharString>
        <CharString name="Gamma">
          542 21 -21 626 65 hstem
          94 89 vstem
          499 626 rmoveto
          65 -405 -691 89 627 118 vlineto
          -49 callsubr
          endchar
        </CharString>
        <CharString name="Gbreve">
          4 callsubr
          40 67 111 -20 hstemhm
          66 89 365 78 hintmask 11100110
          -100 callsubr
          hintmask 00011000
          -96 886 -105 callsubr
          endchar
        </CharString>
        <CharString name="Gcaron">
          4 callsubr
          51 -21 134 -20 hstemhm
          66 89 365 78 hintmask 11100110
          -100 callsubr
          hintmask 00011000
          -109 832 -82 callgsubr
        </CharString>
        <CharString name="Gcedilla">
          667 -41 callgsubr
          68 5 callgsubr
          hstem
          66 89 365 78 vstem
          -100 callsubr
          -228 -191 -86 callsubr
        </CharString>
        <CharString name="Gcircumflex">
          4 callsubr
          51 -21 134 -20 hstemhm
          66 89 365 78 hintmask 11100110
          -100 callsubr
          hintmask 00011000
          -109 698 -103 callgsubr
          endchar
        </CharString>
        <CharString name="Gcommaaccent">
          667 -41 callgsubr
          68 5 callgsubr
          hstemhm
          66 89 365 78 hintmask 00111110
          -100 callsubr
          hintmask 11000000
          -228 -191 -86 callsubr
        </CharString>
        <CharString name="Gdotaccent">
          4 callsubr
          30 89 hstemhm
          66 89 133 89 143 78 hintmask 11101010
          -100 callsubr
          hintmask 00010100
          -221 698 -80 callgsubr
        </CharString>
        <CharString name="H">
          -6 callgsubr
          53 callgsubr
          -53 callgsubr
          endchar
        </CharString>
        <CharString name="H_uni0303">
          -6 callgsubr
          62 -18 callgsubr
          94 89 341 89 hintmask 11100110
          -53 callgsubr
          hintmask 00001000
          -3 855 -95 callgsubr
        </CharString>
        <CharString name="Hbar">
          708 21 -21 330 61 98 64 141 -20 53 callgsubr
          665 489 rmoveto
          64 -52 141 -89 -141 -341 141 -89 -141 -52 -64 52 -489 89 330 341 -330 89 489 vlineto
          -89 -98 rmoveto
          -341 98 341 hlineto
          endchar
        </CharString>
        <CharString name="Hbrevebelow">
          708 67 callsubr
          107 -21 330 61 303 -20 hstemhm
          94 89 341 89 hintmask 00111110
          -53 callgsubr
          hintmask 11000000
          -1 -66 -105 callsubr
          endchar
        </CharString>
        <CharString name="Hcircumflex">
          -6 callgsubr
          83 -21 134 -20 hstemhm
          94 89 341 89 hintmask 11100110
          -53 callgsubr
          hintmask 00011000
          -14 736 -103 callgsubr
          endchar
        </CharString>
        <CharString name="Hdieresis">
          -6 callgsubr
          62 80 hstemhm
          94 89 44 80 94 80 43 89 hintmask 11101001
          -53 callgsubr
          hintmask 00010110
          -217 736 -71 callsubr
          endchar
        </CharString>
        <CharString name="Hdotbelow">
          -6 callgsubr
          hstemhm
          94 89 126 89 126 89 hintmask 11110100
          -53 callgsubr
          hintmask 00001000
          -126 -200 -80 callgsubr
        </CharString>
        <CharString name="I">
          -6 callsubr
          hstem
          94 89 vstem
          -50 callgsubr
          endchar
        </CharString>
        <CharString name="I_J">
          722 -22 61 -39 20 674 -20 hstemhm
          94 89 280 89 0 86 hintmask 01110100
          -50 callgsubr
          544 149 rmoveto
          545 -86 -542 vlineto
          hintmask 10000000
          -17 0 -96 -118 -42 -52 18 38 -34 vhcurveto
          hintmask 01000000
          -14 -75 rlineto
          hintmask 10001000
          -12 24 63 -30 84 hhcurveto
          hintmask 00000100
          103 72 58 113 hvcurveto
          endchar
        </CharString>
        <CharString name="Iacute">
          -6 callsubr
          93 28 callgsubr
          94 89 hintmask 11001000
          -50 callgsubr
          34 callsubr
        </CharString>
        <CharString name="Ibreve">
          -6 callsubr
          72 67 111 -20 hstemhm
          94 89 hintmask 11001000
          -50 callgsubr
          hintmask 00110000
          214 924 -105 callsubr
          endchar
        </CharString>
        <CharString name="Icaron">
          -6 callsubr
          83 -21 134 -20 hstemhm
          94 89 hintmask 11001000
          -50 callgsubr
          hintmask 00110000
          201 870 -82 callgsubr
        </CharString>
        <CharString name="Icircumflex">
          -6 callsubr
          83 -21 134 -20 hstemhm
          94 89 hintmask 11001000
          -50 callgsubr
          hintmask 00110000
          201 736 -103 callgsubr
          endchar
        </CharString>
        <CharString name="Idblgrave">
          -6 callsubr
          93 40 callgsubr
          94 89 hintmask 11001000
          -50 callgsubr
          hintmask 00110000
          187 746 -87 callgsubr
        </CharString>
        <CharString name="Idieresis">
          278 63 callgsubr
          12 80 2 89 3 80 hintmask 11001000
          -50 callgsubr
          hintmask 00110100
          -2 736 -71 callsubr
          endchar
        </CharString>
        <CharString name="Idieresisacute">
          -6 callsubr
          62 80 68 callgsubr
          12 80 2 89 3 80 hintmask 11000010
          -50 callgsubr
          hintmask 00111101
          -2 736 -71 callsubr
          144 254 -95 callsubr
        </CharString>
        <CharString name="Idotaccent">
          -6 callsubr
          62 89 hstemhm
          94 89 hintmask 11010000
          -50 callgsubr
          hintmask 00110000
          89 736 -80 callgsubr
        </CharString>
        <CharString name="Idotbelow">
          -6 callsubr
          hstemhm
          94 89 vstemhm
          -50 callgsubr
          hintmask 00100000
          89 -200 -80 callgsubr
        </CharString>
        <CharString name="Igrave">
          -6 callsubr
          93 28 callgsubr
          94 89 hintmask 11001000
          -50 callgsubr
          hintmask 00111000
          89 746 -67 callgsubr
        </CharString>
        <CharString name="Ihookabove">
          -6 callsubr
          83 -21 215 -20 hstemhm
          94 89 hintmask 11001000
          -50 callgsubr
          hintmask 00110000
          142 873 -107 callgsubr
        </CharString>
        <CharString name="Imacron">
          -6 callsubr
          82 64 hstemhm
          94 89 hintmask 11010000
          -50 callgsubr
          hintmask 00100000
          226 756 -56 callsubr
        </CharString>
        <CharString name="Imacron.alt">
          -6 callsubr
          82 64 hstemhm
          94 89 hintmask 11010000
          -50 callgsubr
          hintmask 00100000
          143 756 0 callgsubr
        </CharString>
        <CharString name="Iogonek">
          278 -212 70 163 -38 callgsubr
          hstem
          94 89 vstem
          229 -52 callsubr
          694 -89 -694 25 -30 callgsubr
          endchar
        </CharString>
        <CharString name="Iogonekacute">
          278 -212 70 163 -38 callgsubr
          93 -21 122 -20 63 callsubr
          229 -52 callsubr
          694 -89 -694 25 -30 callgsubr
          hintmask 00011100
          151 1055 -95 callsubr
        </CharString>
        <CharString name="Iota">
          -6 callsubr
          hstem
          94 89 vstem
          -50 callgsubr
          endchar
        </CharString>
        <CharString name="Itilde">
          -6 callsubr
          62 -18 callgsubr
          94 89 hintmask 11001000
          -50 callgsubr
          hintmask 00010000
          212 855 -102 callgsubr
        </CharString>
        <CharString name="J">
          74 callgsubr
          hstem
          302 86 vstem
          -48 callsubr
          endchar
        </CharString>
        <CharString name="J_uni030C.cap">
          472.22223 -22 61 489 -21 112 75 hstem
          302 86 vstem
          -48 callsubr
          111 471 -86 callsubr
        </CharString>
        <CharString name="Jacute">
          74 callgsubr
          93 28 callgsubr
          302 86 hintmask 11001000
          -48 callsubr
          hintmask 00111000
          200 719 -95 callsubr
        </CharString>
        <CharString name="Jcircumflex">
          74 callgsubr
          83 -21 134 -20 hstemhm
          302 86 hintmask 11001000
          -48 callsubr
          hintmask 00110000
          113 587 -103 callgsubr
          endchar
        </CharString>
        <CharString name="K">
          694 20 callgsubr
          96 85 vstem
          -47 callgsubr
          endchar
        </CharString>
        <CharString name="Kappa">
          694 20 callgsubr
          96 85 vstem
          -47 callgsubr
          endchar
        </CharString>
        <CharString name="Kcedilla">
          694 16 callgsubr
          hstem
          96 85 vstem
          -47 callgsubr
          -175 -153 -86 callsubr
        </CharString>
        <CharString name="Kcommaaccent">
          694 7 callsubr
          96 85 hintmask 00111000
          -47 callgsubr
          hintmask 11000000
          -175 -153 -86 callsubr
        </CharString>
        <CharString name="L">
          52 callgsubr
          hstem
          94 89 vstem
          -51 callsubr
          endchar
        </CharString>
        <CharString name="L_uni0303">
          52 callgsubr
          62 -18 callgsubr
          94 89 hintmask 11001000
          -51 callsubr
          hintmask 00010000
          212 855 -102 callgsubr
        </CharString>
        <CharString name="Lacute">
          52 callgsubr
          93 28 callgsubr
          94 89 hintmask 11001000
          -51 callsubr
          34 callsubr
        </CharString>
        <CharString name="Lambda">
          611 20 callgsubr
          28 554 vstem
          582 hmoveto
          -233 694 rlineto
          -88 hlineto
          -233 -694 rlineto
          74 hlineto
          98 296 2 6 86 257 6 62 rlinecurve
          1 hlineto
          5 -33 20 -70 16 -54 51 -160 rcurveline
          101 -304 rlineto
          endchar
        </CharString>
        <CharString name="Lcaron">
          542 0 64 464 -21 112 75 hstem
          94 89 vstem
          -51 callsubr
          219 620 -86 callsubr
        </CharString>
        <CharString name="Lcedilla">
          542 -41 callgsubr
          79 83 callsubr
          hstem
          94 89 vstem
          -51 callsubr
          214 -153 -86 callsubr
        </CharString>
        <CharString name="Lcommaaccent">
          542 -41 callgsubr
          79 83 callsubr
          hstemhm
          94 89 hintmask 00111000
          -51 callsubr
          hintmask 11000000
          214 -153 -86 callsubr
        </CharString>
        <CharString name="Ldot">
          542 0 64 260 89 281 -20 hstem
          94 89 181 89 vstem
          -51 callsubr
          359 324 -80 callgsubr
        </CharString>
        <CharString name="Ldotbelow">
          52 callgsubr
          hstemhm
          94 89 43 89 hintmask 11100000
          -51 callsubr
          hintmask 00010000
          221 -200 -80 callgsubr
        </CharString>
        <CharString name="Ldotbelowmacron">
          52 callgsubr
          82 64 hstemhm
          94 89 43 89 hintmask 11011000
          -51 callsubr
          221 -200 -73 callgsubr
          hintmask 00100000
          94 956 -56 callsubr
        </CharString>
        <CharString name="Lslash">
          625 76 callsubr
          hstem
          182 89 vstem
          587 hmoveto
          66 vlineto
          -267 -2 rlineto
          -49 299 hlineto
          168 140 -38 45 -130 -110 rlineto
          256 -89 -331 vlineto
          -101 -85 37 -43 64 54 rlineto
          -289 vlineto
          endchar
        </CharString>
        <CharString name="M">
          875 20 callgsubr
          100 78 518 78 vstem
          -65 callsubr
          endchar
        </CharString>
        <CharString name="Mdotbelow">
          875 -42 callsubr
          hstemhm
          100 78 215 89 214 78 hintmask 11101000
          -65 callsubr
          hintmask 00010000
          -214 -200 -80 callgsubr
        </CharString>
        <CharString name="Mu">
          875 20 callgsubr
          100 78 518 78 vstem
          -65 callsubr
          endchar
        </CharString>
        <CharString name="N">
          53 callsubr
          hstem
          96 78 359 78 vstem
          -81 callgsubr
          endchar
        </CharString>
        <CharString name="Nacute">
          53 callsubr
          93 28 callgsubr
          96 78 359 78 hintmask 11001100
          -81 callgsubr
          hintmask 00110000
          58 868 -95 callsubr
        </CharString>
        <CharString name="Ncaron">
          53 callsubr
          83 -21 134 -20 hstemhm
          96 78 359 78 hintmask 11001100
          -81 callgsubr
          hintmask 00110000
          23 870 -82 callgsubr
        </CharString>
        <CharString name="Ncedilla">
          708 16 callgsubr
          hstem
          96 78 359 78 vstem
          -81 callgsubr
          -96 -153 -86 callsubr
        </CharString>
        <CharString name="Ncommaaccent">
          708 7 callsubr
          96 78 359 78 hintmask 00111100
          -81 callgsubr
          hintmask 11000000
          -96 -153 -86 callsubr
        </CharString>
        <CharString name="Ndotaccent">
          53 callsubr
          62 89 hstemhm
          96 78 135 89 135 78 hintmask 11010100
          -81 callgsubr
          hintmask 00101000
          -89 736 -80 callgsubr
        </CharString>
        <CharString name="Ndotbelow">
          53 callsubr
          hstemhm
          96 78 135 89 135 78 hintmask 11101000
          -81 callgsubr
          hintmask 00010000
          -89 -200 -80 callgsubr
        </CharString>
        <CharString name="Ntilde">
          53 callsubr
          62 -18 callgsubr
          96 78 359 78 hintmask 11001100
          -81 callgsubr
          hintmask 00010000
          34 855 -102 callgsubr
        </CharString>
        <CharString name="Nu">
          53 callsubr
          hstem
          96 78 359 78 vstem
          -81 callgsubr
          endchar
        </CharString>
        <CharString name="O">
          -33 callgsubr
          hstem
          56 89 445 89 vstem
          -106 callgsubr
          endchar
        </CharString>
        <CharString name="OE">
          -66 callsubr
        </CharString>
        <CharString name="OE.dup">
          -66 callsubr
        </CharString>
        <CharString name="Oacute">
          -33 callgsubr
          51 -21 122 -100 callgsubr
          -31 508 -95 callsubr
        </CharString>
        <CharString name="Obreve">
          -33 callgsubr
          30 67 111 -100 callgsubr
          -53 564 -105 callsubr
          endchar
        </CharString>
        <CharString name="Ocaron">
          -33 callgsubr
          41 -21 134 -79 callgsubr
          510 -82 callgsubr
        </CharString>
        <CharString name="Ocircumflex">
          -33 callgsubr
          41 -21 134 -79 callgsubr
          376 -103 callgsubr
          endchar
        </CharString>
        <CharString name="Ocircumflexacute">
          -33 callgsubr
          41 -21 291 -79 callgsubr
          376 -77 callgsubr
        </CharString>
        <CharString name="Ocircumflexdotbelow">
          -33 callgsubr
          41 -21 134 -20 hstemhm
          56 89 178 89 178 89 hintmask 11111010
          -106 callgsubr
          -66 376 -103 callgsubr
          hintmask 00000100
          -53 -936 -80 callgsubr
        </CharString>
        <CharString name="Ocircumflexgrave">
          -33 callgsubr
          41 -21 134 -79 callgsubr
          376 -77 callsubr
        </CharString>
        <CharString name="Ocircumflexhookabove">
          -33 callgsubr
          41 -21 364 -79 callgsubr
          376 -103 callgsubr
          97 286 -107 callgsubr
        </CharString>
        <CharString name="Ocircumflextilde">
          -33 callgsubr
          41 -21 189 -18 callgsubr
          56 89 445 89 hintmask 11000110
          -106 callgsubr
          hintmask 00101000
          -66 376 -103 callgsubr
          70 308 -95 callgsubr
        </CharString>
        <CharString name="Odblgrave">
          -33 callgsubr
          51 -21 167 -100 callgsubr
          -80 386 -87 callgsubr
        </CharString>
        <CharString name="Odieresis">
          -33 callgsubr
          20 80 hstemhm
          56 89 96 80 94 80 95 89 hintmask 11010010
          -106 callgsubr
          hintmask 00101100
          -269 376 -71 callsubr
          endchar
        </CharString>
        <CharString name="Odotbelow">
          -33 callgsubr
          hstemhm
          56 89 178 89 178 89 hintmask 11101000
          -106 callgsubr
          hintmask 00010000
          -178 -560 -80 callgsubr
        </CharString>
        <CharString name="Ograve">
          -33 callgsubr
          51 -21 122 -100 callgsubr
          -127 386 -67 callgsubr
        </CharString>
        <CharString name="Ohookabove">
          -33 callgsubr
          41 -21 215 -100 callgsubr
          -125 513 -107 callgsubr
        </CharString>
        <CharString name="Ohorn">
          27 callsubr
          62 -20 44 callgsubr
          hintmask 11111000
          -92 callgsubr
          hintmask 11010100
          -83 callsubr
          endchar
        </CharString>
        <CharString name="Ohornacute">
          27 callsubr
          51 -21 32 -20 110 -20 44 callgsubr
          hintmask 11010110
          -92 callgsubr
          hintmask 11000101
          -83 callsubr
          hintmask 00101000
          -59 507 -95 callsubr
        </CharString>
        <CharString name="Ohorndotbelow">
          27 callsubr
          62 -20 hstemhm
          55 89 179 89 118 84 -24 89 hintmask 11110100
          -92 callgsubr
          hintmask 11010010
          -83 callsubr
          hintmask 00001000
          -178 -561 -80 callgsubr
        </CharString>
        <CharString name="Ohorngrave">
          27 callsubr
          51 -21 32 -20 110 -20 44 callgsubr
          hintmask 11010110
          -92 callgsubr
          hintmask 11000101
          -83 callsubr
          hintmask 00101000
          -127 385 -67 callgsubr
        </CharString>
        <CharString name="Ohornhookabove">
          27 callsubr
          41 -21 42 -20 193 -20 44 callgsubr
          hintmask 11010110
          -92 callgsubr
          hintmask 11000101
          -83 callsubr
          hintmask 00101000
          -125 512 -107 callgsubr
        </CharString>
        <CharString name="Ohorntilde">
          27 callsubr
          20 61 -3 61 44 callgsubr
          hintmask 11001100
          -92 callgsubr
          hintmask 11001010
          -83 callsubr
          hintmask 00010000
          -55 494 -102 callgsubr
        </CharString>
        <CharString name="Ohungarumlaut">
          -33 callgsubr
          51 -21 167 -100 callgsubr
          -223 553 -63 callsubr
        </CharString>
        <CharString name="Omacron">
          -33 callgsubr
          40 64 hstemhm
          56 89 445 89 hintmask 11011000
          -106 callgsubr
          hintmask 00100000
          -41 396 -56 callsubr
        </CharString>
        <CharString name="Omega">
          -57 callgsubr
        </CharString>
        <CharString name="Omicron">
          -33 callgsubr
          hstem
          56 89 445 89 vstem
          -106 callgsubr
          endchar
        </CharString>
        <CharString name="Oogonek">
          736 -21 64 609 64 hstem
          56 89 445 89 vstem
          -51 callgsubr
          endchar
        </CharString>
        <CharString name="Oogonekacute">
          736 -21 64 609 64 51 28 callgsubr
          56 89 445 89 hintmask 11001100
          -51 callgsubr
          hintmask 00110000
          -31 508 -95 callsubr
        </CharString>
        <CharString name="Orogate">
          736 56 89 192 62 191 89 vstem
          679 345 rmoveto
          197 -127 154 -153 18 vhcurveto
          167 -62 -167 vlineto
          -156 -18 -125 -156 -195 vvcurveto
          -199 130 -149 151 -17 vhcurveto
          -166 62 166 vlineto
          153 18 127 151 196 vvcurveto
          -89 15 rmoveto
          -195 -108 -122 -114 -118 -105 125 192 183 110 109 112 116 107 -113 -179 vhcurveto
          endchar
        </CharString>
        <CharString name="Oslash">
          25 callgsubr
          hstem
          56 85 42 85 368 85 vstem
          -79 callsubr
          endchar
        </CharString>
        <CharString name="Oslash.dup">
          25 callgsubr
          hstem
          56 85 42 85 368 85 vstem
          -79 callsubr
          endchar
        </CharString>
        <CharString name="Oslashacute">
          25 callgsubr
          28 28 callgsubr
          56 85 42 85 368 85 hintmask 1111100111000000
          -79 callsubr
          hintmask 0000011000000000
          -56 523 -95 callsubr
        </CharString>
        <CharString name="Otilde">
          -33 callgsubr
          20 61 -3 61 -101 callgsubr
          hintmask 00010000
          -55 495 -102 callgsubr
        </CharString>
        <CharString name="P">
          -28 callsubr
        </CharString>
        <CharString name="Phi">
          722 21 -21 106 61 -60 61 358 61 -60 61 106 -20 hstemhm
          56 86 174 83 180 86 hintmask 0000110100000000
          665 347 rmoveto
          112 -100 111 -166 18 vhcurveto
          106 -83 vlineto
          hintmask 1011001100000000
          -107 vlineto
          -146 -15 -114 -104 -121 vvcurveto
          -122 115 -103 145 -15 vhcurveto
          -107 83 vlineto
          hintmask 0101001110000000
          106 vlineto
          166 18 100 111 112 vvcurveto
          -349 -179 rmoveto
          -106 15 -68 73 91 vvcurveto
          91 69 73 105 15 vhcurveto
          hintmask 0010000100000000
          263 -179 rmoveto
          hintmask 0100100110000000
          -87 -64 -78 -116 -15 vhcurveto
          360 vlineto
          117 -16 63 -78 -86 vvcurveto
          endchar
        </CharString>
        <CharString name="Pi">
          708 21 -21 630 61 53 callgsubr
          613 hmoveto
          691 -519 -691 89 630 341 -630 vlineto
          endchar
        </CharString>
        <CharString name="Psi">
          778 21 -21 108 62 383 60 81 -20 hstem
          125 83 136 83 142 83 vstem
          721 552 rmoveto
          61 -73 vlineto
          -43 -36 -10 -163 -77 -1 -158 -141 -35 hvcurveto
          524 -83 -524 vlineto
          -136 36 0 163 53 vvcurveto
          149 -16 42 -63 vhcurveto
          -73 -61 hlineto
          63 -4 6 -74 -70 vvcurveto
          1 -113 39 -158 179 -26 rrcurveto
          -107 83 107 vlineto
          223 30 2 223 66 vvcurveto
          48 9 74 60 4 vhcurveto
          endchar
        </CharString>
        <CharString name="Q">
          736 -104 -21 103 64 610 64 hstem
          56 86 321 86 44 86 vstem
          -89 callsubr
          -212 148 -155 163 16 37 1 17 43 vhcurveto
          86 -121 rlineto
          103 hlineto
          -119 158 rlineto
          109 85 37 122 105 vvcurveto
          -86 hmoveto
          -65 -12 -109 -90 -82 vhcurveto
          -79 105 rlineto
          -89 hlineto
          101 -143 rlineto
          0 -27 -9 -29 -118 -108 117 186 187 109 120 116 120 106 -122 -185 vhcurveto
          endchar
        </CharString>
        <CharString name="R">
          -7 callgsubr
          hstem
          64 callsubr
          vstem
          -94 callgsubr
          endchar
        </CharString>
        <CharString name="Racute">
          -7 callgsubr
          73 -21 122 -20 68 callsubr
          hintmask 11100110
          -94 callgsubr
          hintmask 00011000
          6 360 -95 callsubr
        </CharString>
        <CharString name="Rcaron">
          -7 callgsubr
          63 -21 134 -20 68 callsubr
          hintmask 11100110
          -94 callgsubr
          hintmask 00011000
          -29 362 -82 callgsubr
        </CharString>
        <CharString name="Rcedilla">
          646 -41 callgsubr
          100 17 callgsubr
          hstem
          64 callsubr
          vstem
          -94 callgsubr
          -148 -661 -86 callsubr
        </CharString>
        <CharString name="Rcommaaccent">
          646 -41 callgsubr
          100 17 callgsubr
          68 callsubr
          hintmask 00111110
          -94 callgsubr
          hintmask 11000000
          -148 -661 -86 callsubr
        </CharString>
        <CharString name="Rdblgrave">
          -7 callgsubr
          73 -21 167 -20 68 callsubr
          hintmask 11100110
          -94 callgsubr
          hintmask 00011000
          -71 238 -87 callgsubr
        </CharString>
        <CharString name="Rdotaccent">
          -7 callgsubr
          42 89 61 callsubr
          hintmask 11101010
          -94 callgsubr
          hintmask 00010100
          -141 228 -80 callgsubr
        </CharString>
        <CharString name="Rdotbelow">
          -7 callgsubr
          61 callsubr
          hintmask 11110100
          -94 callgsubr
          hintmask 00001000
          -141 -708 -80 callgsubr
        </CharString>
        <CharString name="Rdotbelowmacron">
          -7 callgsubr
          62 64 61 callsubr
          hintmask 11101110
          -94 callgsubr
          -141 -708 -73 callgsubr
          hintmask 00010000
          226 956 -56 callsubr
        </CharString>
        <CharString name="Rho">
          -28 callsubr
        </CharString>
        <CharString name="S">
          -7 callsubr
          hstem
          56 79 285 79 vstem
          499 189 rmoveto
          -99 callsubr
          endchar
        </CharString>
        <CharString name="S_S">
          1111 -22 69 279 66 258 66 hstem
          56 79 285 79 113 79 285 79 vstem
          499 189 rmoveto
          -99 callsubr
          556 hmoveto
          -99 callsubr
          endchar
        </CharString>
        <CharString name="Sacute">
          -7 callsubr
          51 28 callgsubr
          56 79 285 79 hintmask 11100110
          499 189 rmoveto
          -99 callsubr
          hintmask 00011000
          -30 679 -95 callsubr
        </CharString>
        <CharString name="Scaron">
          -7 callsubr
          41 -21 134 -20 hstemhm
          56 79 285 79 hintmask 11100110
          499 189 rmoveto
          -99 callsubr
          hintmask 00011000
          -65 681 -82 callgsubr
        </CharString>
        <CharString name="Scedilla">
          -7 callsubr
          hstemhm
          56 79 -25 79 231 79 hintmask 01110000
          499 189 rmoveto
          65 -31 48 -22 24 vhcurveto
          -47 50 -33 9 -92 23 -58 14 -16 4 -30 26 rrcurveto
          -7 6 -28 29 44 vvcurveto
          59 54 60 92 84 48 -33 -31 37 vhcurveto
          15 80 rlineto
          33 -55 -55 17 -73 hhcurveto
          -139 -87 -98 -99 hvcurveto
          hintmask 11001100
          -43 14 -42 40 -42 vhcurveto
          42 -45 44 -12 59 -14 85 -21 10 -3 28 -25 rrcurveto
          20 -17 22 -33 -43 vvcurveto
          -66 -55 -66 -91 -41 -90 10 71 -84 vhcurveto
          -15 -81 rlineto
          -55 88 80 -14 63 hhcurveto
          132 92 101 110 hvcurveto
          -175 -235 -17 callgsubr
        </CharString>
        <CharString name="Scircumflex">
          -7 callsubr
          41 -21 134 -20 hstemhm
          56 79 285 79 hintmask 11100110
          499 189 rmoveto
          -99 callsubr
          hintmask 00011000
          -65 547 -103 callgsubr
          endchar
        </CharString>
        <CharString name="Sdotbelow">
          -7 callsubr
          hstemhm
          56 79 98 89 98 79 hintmask 11110100
          499 189 rmoveto
          -99 callsubr
          hintmask 00001000
          -177 -389 -80 callgsubr
        </CharString>
        <CharString name="Sigma">
          722 0 70 559 65 hstem
          665 hmoveto
          70 -240 -24 callsubr
          -190 hlineto
          192 278 -222 283 rlineto
          202 -20 callgsubr
          258 65 -609 -64 hlineto
          231 -295 -231 -335 rlineto
          endchar
        </CharString>
        <CharString name="T">
          681 21 24 callgsubr
          hintmask 11100000
          -70 callsubr
          hintmask 01010000
          89 -20 callgsubr
          endchar
        </CharString>
        <CharString name="T_uni0303">
          51 callsubr
          48 -18 callgsubr
          296 89 0 89 hintmask 11001000
          -70 callsubr
          hintmask 01000100
          89 -20 callgsubr
          hintmask 00010000
          -3 232 -102 callgsubr
        </CharString>
        <CharString name="T_uni0308">
          51 callsubr
          48 80 hstemhm
          213 80 3 89 0 89 -87 80 hintmask 11001000
          -70 callsubr
          hintmask 01000100
          89 -20 callgsubr
          hintmask 00110010
          -217 113 -71 callsubr
          endchar
        </CharString>
        <CharString name="Tau">
          681 21 24 callgsubr
          hintmask 11100000
          -70 callsubr
          hintmask 01010000
          89 -20 callgsubr
          endchar
        </CharString>
        <CharString name="Tcaron">
          51 callsubr
          69 -21 134 -20 hstemhm
          296 89 0 89 hintmask 11001000
          -70 callsubr
          hintmask 01000100
          89 -20 callgsubr
          hintmask 00110000
          -14 247 -82 callgsubr
        </CharString>
        <CharString name="Tcedilla">
          681 -171 -21 168 -20 65 78 callgsubr
          hstemhm
          236 135 -75 89 0 89 hintmask 00110100
          -70 callsubr
          hintmask 11011010
          89 -20 callgsubr
          -139 -647 -17 callgsubr
        </CharString>
        <CharString name="Tdotbelow">
          51 callsubr
          hstemhm
          295 89 -88 89 0 89 hintmask 11010000
          -70 callsubr
          hintmask 01001000
          89 -20 callgsubr
          hintmask 00100000
          -126 -823 -80 callgsubr
        </CharString>
        <CharString name="Theta">
          778 -22 62 266 83 266 61 hstem
          56 83 499 83 vstem
          721 345 rmoveto
          208 -152 163 -180 -183 -150 -166 -205 -211 156 -156 176 180 153 159 208 vhcurveto
          -83 hmoveto
          -187 -121 -118 -128 -133 -117 121 184 186 119 124 130 134 116 -127 -183 vhcurveto
          -57 -39 rmoveto
          83 -385 -83 vlineto
          endchar
        </CharString>
        <CharString name="Thorn">
          583 21 -21 180 56 275 56 127 -20 hstem
          97 82 266 82 vstem
          527 374 rmoveto
          90 -74 103 -142 vhcurveto
          -131 127 -83 -694 83 180 124 hlineto
          162 61 113 81 hvcurveto
          -81 -1 rmoveto
          -48 -35 -89 -135 vhcurveto
          -96 275 89 hlineto
          118 59 -72 -66 hvcurveto
          endchar
        </CharString>
        <CharString name="Tlinebelow">
          681 -187 64 144 24 callgsubr
          hintmask 01110000
          -70 callsubr
          hintmask 00101000
          89 -20 callgsubr
          hintmask 10000000
          11 -810 -56 callsubr
        </CharString>
        <CharString name="U">
          -32 callsubr
          hstem
          94 89 332 78 vstem
          -101 callsubr
          endchar
        </CharString>
        <CharString name="U_uni032F">
          688 -223 83 callgsubr
          44 56 660 -20 -5 callgsubr
          hintmask 00111100
          -101 callsubr
          hintmask 11000000
          -80 -477 -71 callgsubr
        </CharString>
        <CharString name="Uacute">
          -32 callsubr
          93 -21 122 -20 -5 callgsubr
          hintmask 11001100
          -101 callsubr
          hintmask 00110000
          -58 635 -95 callsubr
        </CharString>
        <CharString name="Ubreve">
          -32 callsubr
          72 67 111 -20 -5 callgsubr
          hintmask 11001100
          -101 callsubr
          hintmask 00110000
          -80 691 -105 callsubr
          endchar
        </CharString>
        <CharString name="Ucaron">
          -32 callsubr
          83 -21 134 -20 -5 callgsubr
          hintmask 11001100
          -101 callsubr
          hintmask 00110000
          -93 637 -82 callgsubr
        </CharString>
        <CharString name="Ucircumflex">
          -32 callsubr
          83 -21 134 -20 -5 callgsubr
          hintmask 11001100
          -101 callsubr
          hintmask 00110000
          -93 503 -103 callgsubr
          endchar
        </CharString>
        <CharString name="Udblgrave">
          -32 callsubr
          93 -21 167 -20 -5 callgsubr
          hintmask 11001100
          -101 callsubr
          hintmask 00110000
          -107 513 -87 callgsubr
        </CharString>
        <CharString name="Udieresis">
          -32 callsubr
          62 80 50 callgsubr
          hintmask 11010010
          -101 callsubr
          hintmask 00101100
          11 callgsubr
          endchar
        </CharString>
        <CharString name="Udieresisacute">
          -32 callsubr
          62 80 73 -21 122 -20 50 callgsubr
          hintmask 1100010010000000
          -101 callsubr
          hintmask 0011101100000000
          11 callgsubr
          144 254 -95 callsubr
        </CharString>
        <CharString name="Udieresiscaron">
          -32 callsubr
          62 80 63 -21 134 -20 50 callgsubr
          hintmask 1100010010000000
          -101 callsubr
          hintmask 0011101100000000
          11 callgsubr
          109 256 -82 callgsubr
        </CharString>
        <CharString name="Udieresisgrave">
          -32 callsubr
          62 80 73 -21 122 -20 50 callgsubr
          hintmask 1100010010000000
          -101 callsubr
          hintmask 0011101100000000
          11 callgsubr
          48 132 -67 callgsubr
        </CharString>
        <CharString name="Udotbelow">
          -32 callsubr
          hstemhm
          94 89 116 89 127 78 hintmask 11101000
          -101 callsubr
          hintmask 00010000
          -205 -433 -80 callgsubr
        </CharString>
        <CharString name="Ugrave">
          -32 callsubr
          93 -21 122 -20 -5 callgsubr
          hintmask 11001100
          -101 callsubr
          hintmask 00110000
          -154 513 -67 callgsubr
        </CharString>
        <CharString name="Uhookabove">
          -32 callsubr
          83 -21 215 -20 -5 callgsubr
          hintmask 11001100
          -101 callsubr
          hintmask 00110000
          -152 640 -107 callgsubr
        </CharString>
        <CharString name="Uhorn">
          687 -22 55 745 -20 hstemhm
          94 89 331 77 -72 89 -1 83 hintmask 01000100
          -19 callsubr
          hintmask 01001000
          -81 hlineto
          hintmask 00000100
          22 callsubr
          hintmask 00001000
          1 -1 rlineto
          22 hlineto
          hintmask 10110000
          -78 callgsubr
          hintmask 00001000
          66 63 27 47 45 hvcurveto
          hintmask 00010100
          47 48 25 65 66 vvcurveto
          391 vlineto
          endchar
        </CharString>
        <CharString name="Uhornacute">
          687 -22 55 734 -21 32 -20 110 -76 callgsubr
          -84 246 -95 callsubr
        </CharString>
        <CharString name="Uhorndotbelow">
          687 -22 55 745 -20 hstemhm
          94 89 116 89 126 77 -72 89 -1 83 hintmask 01000010
          -19 callsubr
          hintmask 01000100
          -81 hlineto
          hintmask 00000010
          22 callsubr
          hintmask 00000100
          1 -1 rlineto
          22 hlineto
          hintmask 10101000
          -78 callgsubr
          hintmask 00000100
          66 63 27 47 45 hvcurveto
          hintmask 00001010
          47 48 25 65 66 vvcurveto
          391 vlineto
          hintmask 00010000
          -203 -822 -80 callgsubr
        </CharString>
        <CharString name="Uhorngrave">
          687 -22 55 734 -21 32 -20 110 -76 callgsubr
          -152 124 -67 callgsubr
        </CharString>
        <CharString name="Uhornhookabove">
          687 -22 55 724 -21 42 -20 193 -76 callgsubr
          -150 251 -107 callgsubr
        </CharString>
        <CharString name="Uhorntilde">
          687 -22 55 703 -18 callgsubr
          94 89 331 77 -72 89 -1 83 hintmask 00000010
          -19 callsubr
          hintmask 00000100
          -81 hlineto
          hintmask 00000010
          22 callsubr
          hintmask 00000100
          1 -1 rlineto
          22 hlineto
          hintmask 10011000
          -78 callgsubr
          hintmask 00000100
          66 63 27 47 45 hvcurveto
          hintmask 00001010
          47 48 25 65 66 vvcurveto
          391 vlineto
          hintmask 00100000
          -80 233 -81 callsubr
        </CharString>
        <CharString name="Uhungarumlaut">
          -32 callsubr
          93 -21 167 -20 -5 callgsubr
          hintmask 11001100
          -101 callsubr
          hintmask 00110000
          -250 680 -63 callsubr
        </CharString>
        <CharString name="Umacron">
          -32 callsubr
          82 64 -5 callgsubr
          hintmask 11011000
          -101 callsubr
          hintmask 00100000
          -68 523 -56 callsubr
        </CharString>
        <CharString name="Uogonek">
          688 -212 70 120 56 660 -20 hstem
          94 89 332 78 vstem
          593 233 rmoveto
          461 -78 -462 vlineto
          -132 -84 -66 -84 -82 -82 63 135 vhcurveto
          462 -89 -461 vlineto
          -137 103 -105 125 -12 vhcurveto
          -35 -28 -24 -38 2 -40 rrcurveto
          -70 callgsubr
          -75 callgsubr
          rrcurveto
          34 25 28 33 23 vhcurveto
          116 20 91 102 130 vvcurveto
          endchar
        </CharString>
        <CharString name="Upsilon">
          778 21 -21 649 67 hstem
          56 79 209 89 209 79 cntrmask 00111000
          721 555 rmoveto
          101 -2 -78 60 -78 hhcurveto
          -115 -44 -112 -110 -15 hvcurveto
          -1 hlineto
          79 -12 -31 143 -131 hhcurveto
          -78 -78 -61 -100 -2 hvcurveto
          78 hlineto
          54 2 32 40 48 hhcurveto
          73 55 -57 -212 hvcurveto
          -380 89 380 vlineto
          223 61 46 67 48 32 -39 -55 2 vhcurveto
          endchar
        </CharString>
        <CharString name="Uring">
          688 -22 56 660 47 74 47 hstemhm
          94 89 49 61 100 61 61 78 hintmask 11010010
          -101 callsubr
          hintmask 01101100
          -200 545 -93 callsubr
          endchar
        </CharString>
        <CharString name="Utilde">
          -32 callsubr
          62 61 -3 61 -5 callgsubr
          hintmask 11001100
          -101 callsubr
          hintmask 00010000
          -82 622 -102 callgsubr
        </CharString>
        <CharString name="V">
          75 callsubr
          hstem
          14 638 vstem
          652 694 rmoveto
          33 callsubr
          -342 -16 -41 -75 -193 -9 -46 rlinecurve
          -1 hlineto
          -8 40 -43 110 -9 24 -173 448 rcurveline
          -93 hlineto
          273 -694 rlineto
          92 hlineto
          endchar
        </CharString>
        <CharString name="W">
          944 20 callgsubr
          14 915 vstem
          -83 callgsubr
          endchar
        </CharString>
        <CharString name="Wacute">
          944 -42 callsubr
          93 28 callgsubr
          14 915 hintmask 11001000
          -83 callgsubr
          hintmask 00110000
          -63 868 -95 callsubr
        </CharString>
        <CharString name="Wcircumflex">
          944 -42 callsubr
          83 -21 134 -20 hstemhm
          14 915 hintmask 11001000
          -83 callgsubr
          hintmask 00110000
          -98 736 -103 callgsubr
          endchar
        </CharString>
        <CharString name="Wdieresis">
          944 63 callgsubr
          14 915 -584 80 94 80 hintmask 01001000
          929 694 rmoveto
          -72 hlineto
          -91 -314 -26 -89 -48 -168 -5 -51 rlinecurve
          -1 hlineto
          0 -6 53 -66 228 vhcurveto
          -98 341 rlineto
          -81 hlineto
          -90 -312 -22 -77 -50 -175 -5 -56 rlinecurve
          -1 hlineto
          -4 40 -27 98 -8 33 -47 167 rcurveline
          -81 282 rlineto
          hintmask 11010000
          -86 hlineto
          203 -694 rlineto
          81 hlineto
          100 347 21 73 43 149 6 52 rlinecurve
          1 hlineto
          4 -30 24 -95 27 -95 115 -401 rcurveline
          87 hlineto
          hintmask 00101100
          -301 736 -71 callsubr
          endchar
        </CharString>
        <CharString name="Wgrave">
          944 -42 callsubr
          93 28 callgsubr
          14 915 hintmask 11001000
          -83 callgsubr
          hintmask 00110000
          -159 746 -67 callgsubr
        </CharString>
        <CharString name="X">
          -26 callsubr
        </CharString>
        <CharString name="Xi">
          667 0 74 -74 75 246 74 218 75 -74 74 hstemhm
          hintmask 00001000
          619 613 rmoveto
          75 -572 vlineto
          hintmask 00010000
          -75 125 vlineto
          hintmask 00001000
          161 1 rlineto
          hintmask 01010000
          161 -1 rlineto
          130 -613 rmoveto
          75 -128 vlineto
          hintmask 10000000
          -163 -1 rlineto
          hintmask 01100000
          -163 1 rlineto
          -128 -75 hlineto
          513 321 rmoveto
          74 -444 -74 vlineto
          endchar
        </CharString>
        <CharString name="Y">
          75 callsubr
          hstem
          290 86 vstem
          -84 callgsubr
          endchar
        </CharString>
        <CharString name="Yacute">
          75 callsubr
          93 28 callgsubr
          290 86 hintmask 11001000
          -84 callgsubr
          hintmask 00110000
          148 591 -95 callsubr
        </CharString>
        <CharString name="Ycircumflex">
          75 callsubr
          83 -21 134 -20 hstemhm
          290 86 hintmask 11001000
          -84 callgsubr
          hintmask 00110000
          113 459 -103 callgsubr
          endchar
        </CharString>
        <CharString name="Ydieresis">
          667 63 callgsubr
          206 80 4 86 4 80 hintmask 11001000
          -84 callgsubr
          hintmask 00110100
          -90 459 -71 callsubr
          endchar
        </CharString>
        <CharString name="Ydotbelow">
          75 callsubr
          hstemhm
          288 89 -87 86 hintmask 11010000
          -84 callgsubr
          hintmask 00100000
          1 -477 -80 callgsubr
        </CharString>
        <CharString name="Ygrave">
          75 callsubr
          93 28 callgsubr
          290 86 hintmask 11001000
          -84 callgsubr
          hintmask 00110000
          52 469 -67 callgsubr
        </CharString>
        <CharString name="Yhookabove">
          75 callsubr
          83 -21 215 -20 hstemhm
          290 86 hintmask 11001000
          -84 callgsubr
          hintmask 00110000
          54 596 -107 callgsubr
        </CharString>
        <CharString name="Ytilde">
          75 callsubr
          62 -18 callgsubr
          290 86 hintmask 11001000
          -84 callgsubr
          hintmask 00010000
          124 578 -102 callgsubr
        </CharString>
        <CharString name="Z">
          26 callgsubr
          hstem
          56 504 vstem
          -72 callgsubr
          endchar
        </CharString>
        <CharString name="Zacute">
          26 callgsubr
          68 callgsubr
          56 504 hintmask 11001000
          -72 callgsubr
          hintmask 00110000
          441 868 -95 callsubr
        </CharString>
        <CharString name="Zcaron">
          26 callgsubr
          63 -21 134 -20 hstemhm
          56 504 hintmask 11001000
          -72 callgsubr
          hintmask 00110000
          406 870 -82 callgsubr
        </CharString>
        <CharString name="Zdotaccent">
          26 callgsubr
          42 89 hstemhm
          56 504 -299 89 hintmask 11010000
          -72 callgsubr
          hintmask 00101000
          294 736 -80 callgsubr
        </CharString>
        <CharString name="Zdotbelow">
          26 callgsubr
          hstemhm
          56 504 -299 89 hintmask 11100000
          -72 callgsubr
          hintmask 00010000
          294 -200 -80 callgsubr
        </CharString>
        <CharString name="Zeta">
          26 callgsubr
          hstem
          56 504 vstem
          -72 callgsubr
          endchar
        </CharString>
        <CharString name="a">
          -69 callgsubr
          hstem
          -25 callsubr
          vstem
          -107 callsubr
          endchar
        </CharString>
        <CharString name="aacute">
          -69 callgsubr
          87 -21 167 -96 callgsubr
          50 500 -75 callsubr
        </CharString>
        <CharString name="abreve">
          -69 callgsubr
          61 67 111 -103 callsubr
          hintmask 00011010
          2 callgsubr
          endchar
        </CharString>
        <CharString name="abreveacute">
          -69 callgsubr
          61 67 268 -103 callsubr
          hintmask 00011010
          78 506 -54 callgsubr
        </CharString>
        <CharString name="abrevedotbelow">
          -69 callgsubr
          61 67 111 -20 hstemhm
          54 72 69 89 47 78 hintmask 11111101
          -107 callsubr
          2 callgsubr
          hintmask 00000010
          -125 -900 -80 callgsubr
        </CharString>
        <CharString name="abrevegrave">
          -69 callgsubr
          61 67 111 -103 callsubr
          hintmask 00011010
          78 506 -53 callsubr
        </CharString>
        <CharString name="abrevehookabove">
          -69 callgsubr
          61 67 146 67 128 -20 8 callsubr
          hintmask 11100011
          -107 callsubr
          hintmask 00011101
          2 callgsubr
          -71 152 -107 callgsubr
        </CharString>
        <CharString name="abrevetilde">
          481 -11 61 352 59 352 61 8 callsubr
          cntrmask 11100000
          -107 callsubr
          hintmask 11101000
          2 callgsubr
          -2 174 rmoveto
          -61 hlineto
          -34 -1 -12 -24 -26 hhcurveto
          -23 -21 14 19 -27 hvcurveto
          13 -19 -20 12 -25 hhcurveto
          -47 -49 -41 -78 -2 hvcurveto
          61 hlineto
          34 1 12 24 26 hhcurveto
          23 21 -14 -19 27 hvcurveto
          -13 19 20 -12 25 hhcurveto
          47 49 41 78 -22 callsubr
        </CharString>
        <CharString name="acaron">
          -69 callgsubr
          85 -21 172 -96 callgsubr
          64 503 -80 callsubr
        </CharString>
        <CharString name="acircumflex">
          -69 callgsubr
          85 -21 172 -96 callgsubr
          64 331 -88 callsubr
          endchar
        </CharString>
        <CharString name="acircumflexacute">
          -69 callgsubr
          85 -21 291 -96 callgsubr
          65 331 -77 callgsubr
        </CharString>
        <CharString name="acircumflexdotbelow">
          -69 callgsubr
          85 -21 172 -20 hstemhm
          54 72 69 89 47 78 hintmask 11111101
          -107 callsubr
          64 331 -88 callsubr
          hintmask 00000010
          -52 -725 -80 callgsubr
        </CharString>
        <CharString name="acircumflexgrave">
          -69 callgsubr
          85 -21 134 -96 callgsubr
          65 331 -77 callsubr
        </CharString>
        <CharString name="acircumflexhookabove">
          -69 callgsubr
          85 -21 364 -96 callgsubr
          65 331 -103 callgsubr
          97 286 -107 callgsubr
        </CharString>
        <CharString name="acircumflextilde">
          -69 callgsubr
          85 -21 189 61 -3 61 8 callsubr
          hintmask 11100011
          -107 callsubr
          hintmask 00010100
          65 331 -103 callgsubr
          70 308 -86 callgsubr
        </CharString>
        <CharString name="acute">
          500 548 -14 callsubr
          hstem
          391 694 -75 callsubr
        </CharString>
        <CharString name="acute.cap">
          500 517 56 callgsubr
          hstem
          441 618 -95 callsubr
        </CharString>
        <CharString name="acute.dup">
          500 548 -14 callsubr
          hstem
          391 694 -75 callsubr
        </CharString>
        <CharString name="acute.ts1">
          500 559 -21 185 -20 hstem
          416 723 rmoveto
          -77 hlineto
          -101 -139 -33 -46 rlineto
          60 hlineto
          endchar
        </CharString>
        <CharString name="adblgrave">
          -69 callgsubr
          87 -21 167 -96 callgsubr
          51 333 -87 callgsubr
        </CharString>
        <CharString name="adieresis">
          -69 callgsubr
          110 80 hstemhm
          54 72 1 80 66 80 -22 78 hintmask 11101001
          -107 callsubr
          hintmask 00010110
          -124 377 -12 callsubr
        </CharString>
        <CharString name="adotbelow">
          -69 callgsubr
          hstemhm
          54 72 69 89 47 78 hintmask 11110100
          -107 callsubr
          hintmask 00001000
          -47 -394 -80 callgsubr
        </CharString>
        <CharString name="ae">
          -69 callsubr
        </CharString>
        <CharString name="ae.dup">
          -69 callsubr
        </CharString>
        <CharString name="aeacute">
          722 -11 61 16 61 92 -13 callsubr
          -59 59 19 callsubr
          47 72 -36 78 161 78 -73 78 229 54 hintmask 0000100011000000
          693 219 rmoveto
          35 0 207 -166 -54 -57 -27 -50 -41 vhcurveto
          48 -30 -54 29 -57 hhcurveto
          -64 -46 -16 -27 -47 hvcurveto
          6 -66 rlineto
          34 48 47 16 57 hhcurveto
          45 42 -38 -76 hvcurveto
          -41 vlineto
          hintmask 0000000100000000
          -57 -3 -218 -10 -120 vvcurveto
          hintmask 1110000011010000
          -33 18 -92 96 28 144 3 74 47 vhcurveto
          -74 64 74 -3 25 hhcurveto
          48 53 16 36 44 hvcurveto
          -6 65 rlineto
          -49 -53 -57 -7 -28 hhcurveto
          -71 -68 62 107 -5 hvcurveto
          234 55 rmoveto
          hintmask 1111000100110000
          -229 hlineto
          77 17 52 49 54 hhcurveto
          31 60 -16 -110 15 hvcurveto
          -307 -147 rmoveto
          -77 -101 0 -15 -54 -38 28 37 68 163 8 41 vhcurveto
          1 -7 3 -45 -12 vvcurveto
          hintmask 0000011000000000
          175 567 -75 callsubr
        </CharString>
        <CharString name="agrave">
          -69 callgsubr
          87 -21 167 -96 callgsubr
          -21 333 -57 callsubr
        </CharString>
        <CharString name="ahookabove">
          -69 callgsubr
          63 -21 215 -96 callgsubr
          6 446 -107 callgsubr
        </CharString>
        <CharString name="amacron">
          -69 callgsubr
          118 64 8 callsubr
          hintmask 11101100
          -107 callsubr
          hintmask 00010000
          90 385 -56 callsubr
        </CharString>
        <CharString name="ampersand">
          758 -22 64 250 61 -10 61 251 61 hstemhm
          42 78 34 65 -58 65 -64 65 -38 65 106 69 hintmask 1011000101000000
          701 -7 rmoveto
          67 vlineto
          -17 -54 -47 -1 -14 hhcurveto
          -45 -29 16 21 -30 hvcurveto
          92 80 58 111 33 117 -62 18 rcurveline
          -25 -90 -35 -59 -7 -11 -39 -67 -39 -37 -24 -19 -30 32 -81 94 -45 95 rrcurveto
          97 86 54 64 66 vvcurveto
          76 -49 81 -80 -85 -53 -91 -107 vhcurveto
          hintmask 0100000010000000
          -65 17 -60 10 -30 vhcurveto
          3 -7 0 -3 0 vvcurveto
          0 -1 -3 -8 -8 vhcurveto
          hintmask 1000101000000000
          -6 -6 -5 -4 -11 -10 -20 -17 -47 -40 -7 -8 rrcurveto
          -32 -35 -13 -37 -39 vvcurveto
          -90 77 -78 106 98 71 41 17 30 vhcurveto
          -46 60 53 -12 48 hhcurveto
          12 44 0 15 60 hvcurveto
          -341 567 rmoveto
          hintmask 0010000010000000
          -51 -45 -49 -61 -56 vhcurveto
          hintmask 0001000101000000
          -27 70 0 70 8 vvcurveto
          75 41 28 31 53 8 -70 -25 vhcurveto
          13 -480 rmoveto
          hintmask 1000101000000000
          -33 -63 -57 -5 -27 hhcurveto
          -71 -35 60 51 hvcurveto
          hintmask 0100010000000000
          38 17 28 17 16 vhcurveto
          1 2 57 49 7 6 48 -96 95 -105 11 -11 rrcurveto
          endchar
        </CharString>
        <CharString name="anglearc">
          778 -62 -21 666 -20 hstem
          557 40 vstem
          721 20 rmoveto
          9 -5 7 -8 3 vhcurveto
          -137 50 rlineto
          17 52 9 54 55 vvcurveto
          55 -9 54 -17 52 vhcurveto
          137 50 rlineto
          8 3 5 7 9 vvcurveto
          14 -14 10 -13 -5 vhcurveto
          -136 -50 -19 45 -25 43 -31 38 rlinecurve
          5 -4 -6 3 -6 hhcurveto
          -11 -9 -9 -11 -5 2 -4 2 -3 hvcurveto
          29 -36 23 -39 17 -41 -451 -166 rcurveline
          -8 -3 -5 -7 -9 vvcurveto
          -9 5 -7 8 -3 vhcurveto
          451 -166 -17 -41 -23 -39 -29 -36 rlinecurve
          -2 -3 -2 -4 -5 55 callgsubr
          6 6 3 5 4 vhcurveto
          31 38 25 43 19 45 136 -50 rcurveline
          13 -5 14 10 14 vvcurveto
          -164 230 rmoveto
          -50 -8 -50 -15 -47 vhcurveto
          -400 147 400 147 rlineto
          15 -47 8 -50 -50 vvcurveto
          endchar
        </CharString>
        <CharString name="angleleft">
          389 -228 -21 1000 -20 hstem
          333 -229 rmoveto
          10 -7 12 -3 9 vhcurveto
          -4 11 -138 361 -20 52 rlineto
          -3 8 -5 9 8 vvcurveto
          4 2 4 1 4 vhcurveto
          8 20 116 304 17 45 19 45 15 45 rlinecurve
          1 2 0 3 3 vvcurveto
          11 -7 10 -11 vhcurveto
          0 -4 0 -2 -1 vhcurveto
          -15 -3 -6 -27 -5 -15 -138 -360 rcurveline
          -24 -63 rlineto
          -3 -10 -7 -11 -10 vvcurveto
          -9 6 -10 3 -8 vhcurveto
          161 -422 rlineto
          -19 6 7 -32 20 hhcurveto
          11 9 10 10 hvcurveto
          endchar
        </CharString>
        <CharString name="angleright">
          389 -228 -21 1000 -20 hstem
          278 251 rmoveto
          10 -6 10 -4 9 vhcurveto
          -160 422 rlineto
          8 -4 -8 41 -20 hhcurveto
          0 -4 0 -2 -1 vhcurveto
          -8 -2 -7 -8 -9 vvcurveto
          -2 vlineto
          1 -12 7 -12 5 -11 158 -416 rcurveline
          3 -8 6 -10 -9 vvcurveto
          -4 -2 -4 -1 -4 vhcurveto
          -8 -20 -164 -431 rlineto
          -2 -5 -3 -6 -6 55 callgsubr
          vhcurveto
          2 hlineto
          12 1 5 12 4 10 8 21 rcurveline
          138 362 24 63 rlineto
          3 10 7 11 10 vvcurveto
          endchar
        </CharString>
        <CharString name="aogonek">
          481 -11 61 352 59 hstem
          -25 callsubr
          vstem
          -52 callgsubr
          endchar
        </CharString>
        <CharString name="aogonekacute">
          481 -11 61 352 59 87 -21 167 -20 8 callsubr
          hintmask 11001100
          -52 callgsubr
          hintmask 00110000
          50 500 -75 callsubr
        </CharString>
        <CharString name="aring">
          -69 callgsubr
          56 47 74 47 hstemhm
          54 72 3 61 100 61 -20 78 hintmask 1110010010000000
          -107 callsubr
          hintmask 0001101100000000
          -41 407 -93 callsubr
          endchar
        </CharString>
        <CharString name="aringacute">
          -69 callgsubr
          56 47 74 47 157 -20 hstemhm
          54 72 3 61 100 61 -20 78 hintmask 1110001001000000
          -107 callsubr
          hintmask 0001110110000000
          -41 407 -93 callsubr
          32 242 -95 callsubr
        </CharString>
        <CharString name="asciicircum">
          556 583 -21 123 59 hstem
          -5 566 vstem
          561 584 rmoveto
          -283 160 -283 -160 11 -22 271 123 272 -123 rlineto
          endchar
        </CharString>
        <CharString name="asciitilde">
          556 193 43 -25 43 -8 43 -25 43 hstemhm
          hintmask 10010000
          555 290 6 callgsubr
          hintmask 01000000
          -4 callgsubr
          hintmask 00100000
          20 10 20 11 17 14 rrcurveto
          endchar
        </CharString>
        <CharString name="asciitilde.low">
          556 0 43 -25 43 -8 43 -25 43 hstemhm
          0 555 hintmask 10010000
          555 97 6 callgsubr
          hintmask 01001000
          -4 callgsubr
          hintmask 00101000
          20 10 20 11 17 14 rrcurveto
          endchar
        </CharString>
        <CharString name="asterisk">
          500 327 47 callsubr
          hstem
          215 69 16 69 vstem
          435 436 rmoveto
          12 -5 9 -9 6 vhcurveto
          -7 5 -33 16 -81 44 109 59 rcurveline
          16 9 10 5 19 vvcurveto
          24 -20 12 -14 -11 -4 -3 -10 -14 vhcurveto
          -96 -67 rlineto
          2 30 6 84 25 vvcurveto
          27 -22 8 -12 -16 -19 -10 -25 -25 6 -84 2 -30 vhcurveto
          -98 69 rlineto
          11 -15 -7 0 -5 hhcurveto
          -14 -20 -12 -24 -12 5 -9 9 -6 hvcurveto
          7 -5 33 -16 81 -44 -109 -59 rcurveline
          -16 -9 -10 -5 -19 vvcurveto
          -24 20 -12 14 11 4 3 10 14 vhcurveto
          96 67 rlineto
          -2 -30 -6 -84 -25 vvcurveto
          -27 22 -8 12 16 19 10 25 25 -6 84 -2 30 vhcurveto
          93 -64 rlineto
          -13 17 4 -3 11 hhcurveto
          14 20 12 24 hvcurveto
          endchar
        </CharString>
        <CharString name="asterisk.math">
          500 50 47 callsubr
          hstemhm
          215 69 -61 53 hintmask 00010000
          435 160 rmoveto
          27 -29 7 -19 10 vhcurveto
          -28 16 -31 20 -28 10 rrcurveto
          2 vlineto
          28 10 31 20 28 16 rrcurveto
          19 10 29 7 27 vvcurveto
          18 -15 19 -20 -16 -13 -13 -9 -12 vhcurveto
          -28 -19 -27 -21 -28 -18 rrcurveto
          hintmask 01100000
          45 8 45 45 vvcurveto
          22 -13 17 -22 -20 -14 -14 -24 vhcurveto
          hintmask 00010000
          -45 8 -46 -45 vvcurveto
          -28 18 -27 21 -28 19 rrcurveto
          9 -12 -13 13 -16 hhcurveto
          -20 -15 -19 -18 -27 29 -7 19 -10 hvcurveto
          28 -16 31 -20 28 -10 rrcurveto
          -2 vlineto
          -28 -10 -31 -20 -28 -16 rrcurveto
          -19 -10 -29 -7 -27 vvcurveto
          -18 15 -19 20 16 13 13 9 12 vhcurveto
          28 19 27 21 28 18 rrcurveto
          hintmask 10100000
          -45 -8 -45 -45 vvcurveto
          -22 13 -17 22 20 14 14 24 vhcurveto
          hintmask 00010000
          45 -8 46 45 vvcurveto
          28 -18 27 -21 28 -19 rrcurveto
          -9 12 13 -13 16 hhcurveto
          20 15 19 18 hvcurveto
          endchar
        </CharString>
        <CharString name="at">
          667 -11 61 70 61 332 61 70 61 hstem
          56 75 109 75 220 75 vstem
          610 85 rmoveto
          -48 hlineto
          -15 -2 0 -4 -8 hvcurveto
          -27 -63 -53 -4 -30 hhcurveto
          -147 -113 134 163 175 126 122 129 43 53 -19 -76 27 hvcurveto
          15 -24 -30 10 -30 hhcurveto
          -98 -87 -97 -130 -130 87 -97 98 68 117 57 185 88 -1 255 -222 -175 -156 -155 -203 -202 153 -156 179 110 78 58 38 34 hvcurveto
          -75 262 rmoveto
          -94 -51 -72 -59 -59 -51 71 95 94 51 72 59 59 51 -71 -95 vhcurveto
          endchar
        </CharString>
        <CharString name="atilde">
          -69 callgsubr
          90 61 -3 61 -104 callgsubr
          hintmask 00001000
          76 476 -95 callgsubr
        </CharString>
        <CharString name="b">
          -8 callgsubr
          298 -75 -694 -16 callgsubr
        </CharString>
        <CharString name="backslash">
          500 16 callsubr
          56 387 vstem
          443 -230 rmoveto
          0 0 5 -5 13 vhcurveto
          -340 940 rlineto
          11 -4 -4 11 -14 hhcurveto
          -11 -9 -9 -11 0 0 -5 5 -13 hvcurveto
          340 -940 rlineto
          -11 4 4 -11 14 hhcurveto
          11 9 9 11 hvcurveto
          endchar
        </CharString>
        <CharString name="baht">
          667 0 56 274 61 247 56 hstemhm
          97 83 113 64 148 78 -54 81 hintmask 10111100
          610 188 rmoveto
          87 -87 71 -106 17 vhcurveto
          91 23 75 58 76 vvcurveto
          87 -95 78 -131 8 vhcurveto
          65 -64 -64 -196 -694 196 -64 64 64 4 vlineto
          hintmask 00001010
          144 105 90 98 hvcurveto
          -105 331 rmoveto
          -50 -50 -56 -98 -17 vhcurveto
          238 vlineto
          hintmask 01111100
          86 -13 62 -47 -55 vvcurveto
          -212 -128 rmoveto
          -113 247 113 hlineto
          236 -449 rmoveto
          -69 -75 -55 -97 -8 vhcurveto
          271 vlineto
          hintmask 11011010
          93 -11 79 -56 -72 vvcurveto
          -236 -133 rmoveto
          -113 274 113 hlineto
          endchar
        </CharString>
        <CharString name="bar">
          278 79 callsubr
          vstem
          159 -217 rmoveto
          -10 callgsubr
          endchar
        </CharString>
        <CharString name="bigcircle">
          -88 callgsubr
          endchar
        </CharString>
        <CharString name="blanksymbol">
          -8 callgsubr
          143 vlineto
          95 86 -44 47 -51 -47 rlineto
          69 -75 -137 vlineto
          -82 -75 43 -47 39 35 rlineto
          -470 -16 callgsubr
        </CharString>
        <CharString name="braceleft">
          500 -229 -21 487 24 489 -20 hstem
          216 67 vstem
          427 -239 rmoveto
          10 -6 0 -10 1 vhcurveto
          -79 5 -37 45 -9 36 rrcurveto
          -3 11 0 2 35 vvcurveto
          150 vlineto
          30 0 51 -2 10 vhcurveto
          -13 66 -64 26 -39 11 rrcurveto
          118 34 0 71 28 vvcurveto
          180 vlineto
          72 0 22 24 25 vhcurveto
          18 18 23 24 70 4 rrcurveto
          5 1 4 4 6 vvcurveto
          11 -8 0 -12 -100 -89 -51 -72 -2 vhcurveto
          -183 vlineto
          -94 0 -16 -26 -28 vhcurveto
          -14 -14 -27 -27 -63 -4 rrcurveto
          -7 -7 -1 -10 -10 6 0 10 -1 hvcurveto
          43 -3 85 -21 -100 vvcurveto
          -198 vlineto
          -58 0 -34 52 -37 vhcurveto
          -30 43 65 -8 31 hhcurveto
          12 8 0 11 hvcurveto
          endchar
        </CharString>
        <CharString name="braceright">
          500 -229 -21 510 -21 511 -20 hstem
          216 67 vstem
          427 250 rmoveto
          10 -6 0 -10 1 vhcurveto
          -43 3 -85 21 100 vvcurveto
          198 vlineto
          58 0 34 -52 37 vhcurveto
          29 -43 -64 9 -32 hhcurveto
          -10 -10 0 -11 -10 6 0 10 -1 hvcurveto
          79 -5 37 -45 9 -36 rrcurveto
          3 -11 0 -2 -35 vvcurveto
          -150 vlineto
          -30 0 -51 2 -10 vhcurveto
          13 -66 64 -26 39 -11 rrcurveto
          -118 -34 0 -71 -28 vvcurveto
          -180 vlineto
          -72 0 -22 -24 -25 vhcurveto
          -18 -18 -23 -24 -70 -4 rrcurveto
          -5 -1 -4 -4 -6 vvcurveto
          -11 10 0 10 100 89 51 72 2 vhcurveto
          183 vlineto
          94 0 16 26 28 vhcurveto
          14 14 27 27 63 4 rrcurveto
          7 7 1 10 hvcurveto
          endchar
        </CharString>
        <CharString name="bracketleft">
          289 -250 61 878 61 hstem
          102 72 vstem
          266 -250 rmoveto
          61 -92 878 92 61 -164 -1000 vlineto
          endchar
        </CharString>
        <CharString name="bracketright">
          289 -250 61 878 61 hstem
          114 72 vstem
          186 -250 rmoveto
          1000 -164 -61 92 -878 -92 -61 vlineto
          endchar
        </CharString>
        <CharString name="breve">
          77 callsubr
          111 -20 hstem
          419 700 -105 callsubr
          endchar
        </CharString>
        <CharString name="breve.cap">
          500 496 67 111 -20 hstem
          419 674 -105 callsubr
          endchar
        </CharString>
        <CharString name="breve.ts1">
          611 526 67 130 -20 hstem
          80 61 328 61 vstem
          530 723 rmoveto
          -61 hlineto
          -84 -89 -46 -75 -74 -90 46 84 vhcurveto
          -61 hlineto
          -124 116 -73 109 106 119 69 128 vhcurveto
          endchar
        </CharString>
        <CharString name="brokenbar">
          278 79 callsubr
          vstem
          159 343 rmoveto
          374 vlineto
          14 0 19 -20 -20 0 -19 -14 vhcurveto
          -374 vlineto
          -15 6 -17 14 14 6 17 15 vhcurveto
          -560 vmoveto
          374 vlineto
          15 -6 17 -14 -14 -6 -17 -15 vhcurveto
          -374 vlineto
          -9 callgsubr
          endchar
        </CharString>
        <CharString name="bullet">
          778 121 286 hstem
          246 286 60 callsubr
          endchar
        </CharString>
        <CharString name="c">
          18 callgsubr
          hstem
          36 78 vstem
          -82 callsubr
          endchar
        </CharString>
        <CharString name="cacute">
          18 callgsubr
          19 callsubr
          36 78 hintmask 11001000
          -82 callsubr
          hintmask 00110000
          -30 654 -75 callsubr
        </CharString>
        <CharString name="caron">
          500 38 callgsubr
          405 697 -80 callsubr
        </CharString>
        <CharString name="caron.cap">
          47 callgsubr
          134 -20 hstem
          406 620 -82 callgsubr
        </CharString>
        <CharString name="caron.ts1">
          611 511 -21 255 -20 hstem
          477 745 rmoveto
          -60 -2 -111 -186 rlineto
          -2 hlineto
          -111 186 -18 2 rlineto
          -42 hlineto
          10 -23 14 -22 13 -22 69 -125 rcurveline
          26 -46 3 -5 3 -10 6 -2 rlinecurve
          50 hlineto
          14 3 15 10 6 hvcurveto
          29 52 62 113 12 21 14 22 10 22 rlinecurve
          endchar
        </CharString>
        <CharString name="ccaron">
          18 callgsubr
          85 -21 172 -20 hstemhm
          36 78 hintmask 11001000
          -82 callsubr
          hintmask 00110000
          -16 657 -80 callsubr
        </CharString>
        <CharString name="ccedilla">
          18 callgsubr
          hstem
          36 78 vstem
          -82 callsubr
          -124 -86 -17 callgsubr
        </CharString>
        <CharString name="ccircumflex">
          18 callgsubr
          85 -21 172 -20 hstemhm
          36 78 hintmask 11001000
          -82 callsubr
          hintmask 00110000
          -16 485 -88 callsubr
          endchar
        </CharString>
        <CharString name="cdotaccent">
          18 callgsubr
          105 89 hstemhm
          36 78 85 89 hintmask 11010000
          -82 callsubr
          hintmask 00101000
          -127 526 -80 callgsubr
        </CharString>
        <CharString name="cedilla">
          13 callgsubr
        </CharString>
        <CharString name="cedilla.dup">
          13 callgsubr
        </CharString>
        <CharString name="cent">
          444 -10 64 343 64 hstem
          36 78 98 64 vstem
          415 40 rmoveto
          -6 67 -43 -34 -46 -15 -44 -4 rlinecurve
          343 vlineto
          42 -3 32 -10 48 -31 12 65 rcurveline
          -52 30 -33 11 -49 2 rrcurveto
          47 -64 -51 vlineto
          -112 -22 -64 -108 -105 vvcurveto
          -110 72 -99 104 -20 vhcurveto
          -57 64 54 vlineto
          47 4 46 15 46 31 rrcurveto
          -203 19 rmoveto
          -60 20 -38 63 81 vvcurveto
          66 26 79 72 22 vhcurveto
          endchar
        </CharString>
        <CharString name="cent.oldstyle">
          18 callgsubr
          hstemhm
          36 78 103 64 -28 78 -64 64 0 78 hintmask 00000010
          415 40 rmoveto
          -6 67 rlineto
          hintmask 10001000
          -40 -51 -54 -14 -51 hhcurveto
          hintmask 00010010
          -13 -12 2 3 -11 hvcurveto
          97 334 26 -6 25 -12 33 -21 rlinecurve
          12 65 -30 18 -24 10 -25 7 rlinecurve
          17 55 rlineto
          -67 hlineto
          hintmask 11100100
          -14 -47 rlineto
          -11 hlineto
          -139 -81 -121 -118 -82 40 -76 64 -42 hvcurveto
          -25 -86 rlineto
          66 hlineto
          18 60 rlineto
          -5 17 17 -2 19 hhcurveto
          54 55 14 37 54 hvcurveto
          -166 357 rmoveto
          -89 -305 rlineto
          -29 31 -17 46 54 vvcurveto
          76 35 93 100 5 vhcurveto
          endchar
        </CharString>
        <CharString name="centigrade">
          861 -21 64 430 40 0 64 14 64 -42 40 0 64 -62 40 hstemhm
          288 89 hintmask 10000101
          810 42 rmoveto
          21 -5 21 -1 21 vhcurveto
          -23 -15 -23 -16 -25 -11 rrcurveto
          -17 -37 -42 -3 -40 hhcurveto
          -155 -82 167 139 135 79 169 159 hvcurveto
          hintmask 00001000
          55 43 -15 -25 50 hvcurveto
          7 -5 7 -5 8 -3 14 82 rcurveline
          hintmask 10000101
          23 -59 -61 12 -63 hhcurveto
          -197 -131 -184 -186 -177 123 -191 201 63 53 10 32 59 hvcurveto
          15 9 rlineto
          6 4 2 2 6 vvcurveto
          -588 543 rmoveto
          hintmask 01000010
          59 -47 51 -66 vhcurveto
          -9 hlineto
          -58 -7 -41 -46 -58 vvcurveto
          -60 44 -51 68 vhcurveto
          9 hlineto
          58 7 42 47 58 vvcurveto
          -40 -1 rmoveto
          -38 -32 -33 -39 vhcurveto
          hintmask 00110000
          -35 -29 26 38 -7 hvcurveto
          7 vlineto
          37 32 34 38 36 29 -26 -38 7 vhcurveto
          endchar
        </CharString>
        <CharString name="circumflex">
          500 38 callgsubr
          405 525 -88 callsubr
          endchar
        </CharString>
        <CharString name="circumflex.cap">
          47 callgsubr
          134 -20 hstem
          406 486 -103 callgsubr
          endchar
        </CharString>
        <CharString name="circumflex.dup">
          500 38 callgsubr
          405 525 -88 callsubr
          endchar
        </CharString>
        <CharString name="colon">
          278 0 83 278 17 callsubr
          361 12 callgsubr
          83 -361 12 callgsubr
          endchar
        </CharString>
        <CharString name="colonmonetary">
          79 callgsubr
          163 64 57 callsubr
          -13 610 10 hlineto
          49 callgsubr
          -11 74 -64 -83 hlineto
          -151 -38 -101 -153 -169 vvcurveto
          -167 99 -154 153 -39 vhcurveto
          -83 64 74 12 vlineto
          83 39 13 43 71 hvcurveto
          -269 22 rmoveto
          -104 42 -59 124 125 vvcurveto
          132 65 119 98 40 vhcurveto
          endchar
        </CharString>
        <CharString name="comma">
          278 -104 -21 125 17 callsubr
          1 -59 callgsubr
          endchar
        </CharString>
        <CharString name="copyleft">
          -88 callgsubr
          -125 hmoveto
          124 -85 109 -121 -41 -34 -7 -15 -40 vhcurveto
          10 -51 rlineto
          17 26 30 15 50 hhcurveto
          88 61 -89 -103 -96 -56 -96 -95 -43 -29 6 33 -45 hvcurveto
          -4 -44 rlineto
          -27 45 24 -8 53 hhcurveto
          123 83 111 121 hvcurveto
          endchar
        </CharString>
        <CharString name="copyright">
          -88 callgsubr
          -165 -197 rmoveto
          -4 44 rlineto
          -32 -45 -28 -7 -44 hhcurveto
          -95 -56 96 96 103 62 89 87 50 30 -16 -17 27 hvcurveto
          9 51 rlineto
          16 -39 -34 7 -42 hhcurveto
          -121 -85 -109 -124 -121 84 -111 123 52 25 8 27 44 hvcurveto
          endchar
        </CharString>
        <CharString name="copyright.alt">
          666 -111 38 590 38 hstem
          0 38 590 38 vstem
          666 222 rmoveto
          205 -128 128 -205 -204 -129 -128 -205 -204 129 -129 204 205 128 129 204 vhcurveto
          -38 hmoveto
          -181 -114 -114 -181 -181 -114 114 181 181 114 114 181 181 114 -114 -181 vhcurveto
          -141 -200 rmoveto
          -4 44 rlineto
          -33 -46 -29 -6 -44 hhcurveto
          -97 -57 97 98 104 63 91 89 50 31 -16 -17 27 hvcurveto
          9 52 rlineto
          15 -40 -34 7 -43 hhcurveto
          -123 -86 -110 -126 -123 85 -113 125 53 25 8 28 46 hvcurveto
          endchar
        </CharString>
        <CharString name="currency">
          778 54 40 312 40 0 40 hstemhm
          153 40 0 40 311 40 0 40 hintmask 10110010
          624 15 rmoveto
          14 14 -13 13 -10 10 -74 75 rcurveline
          27 33 16 43 47 vvcurveto
          47 -16 43 -28 34 vhcurveto
          74 74 10 10 14 13 -14 14 rlinecurve
          -15 14 -13 -13 -10 -10 -74 -74 rcurveline
          27 -34 -42 17 -47 hhcurveto
          -47 -43 -17 -27 -33 hvcurveto
          -75 75 -10 10 -13 13 -15 -14 rlinecurve
          -14 -14 14 -14 10 -10 74 -74 rcurveline
          -27 -34 -17 -43 -47 vvcurveto
          -47 17 -43 27 -33 vhcurveto
          -74 -75 -10 -10 -14 -13 14 -14 rlinecurve
          15 -14 13 13 10 10 74 74 rcurveline
          -27 34 43 -17 47 hhcurveto
          47 43 17 27 33 hvcurveto
          75 -74 10 -10 13 -13 14 14 rlinecurve
          -80 235 rmoveto
          -86 -69 -70 -86 vhcurveto
          hintmask 01001100
          -86 -70 70 86 86 70 70 86 86 69 -70 -86 hvcurveto
          endchar
        </CharString>
        <CharString name="cwm">
          0 endchar
        </CharString>
        <CharString name="cwmascender">
          0 endchar
        </CharString>
        <CharString name="cwmcapital">
          0 endchar
        </CharString>
        <CharString name="d">
          517 -11 36 callgsubr
          hintmask 00101001
          32 callgsubr
          hintmask 11010110
          -61 callgsubr
          hintmask 01100010
          54 callsubr
          endchar
        </CharString>
        <CharString name="dagger">
          444 -195 -21 613 67 241 -20 hstem
          164 67 -43 67 -43 67 cntrmask 00011100
          387 430 42 callgsubr
          20 1 28 11 65 rrcurveto
          5 37 6 37 37 vvcurveto
          8 0 33 -33 -34 0 -32 -9 -35 9 -58 4 -24 vhcurveto
          7 -46 3 -32 1 -29 0 callsubr
          -2 -25 -3 -20 -5 -25 rrcurveto
          -14 -72 0 -8 -53 vvcurveto
          -151 11 -168 9 -95 vhcurveto
          -14 1 1 -6 11 hhcurveto
          12 0 5 13 2 hvcurveto
          6 50 3 53 2 51 rrcurveto
          4 63 5 103 96 vvcurveto
          54 0 7 -14 71 vhcurveto
          -5 23 -3 21 -2 27 42 callsubr
          endchar
        </CharString>
        <CharString name="daggerdbl">
          444 -184 -21 194 66 389 67 194 -20 hstem
          164 67 -43 67 -43 67 cntrmask 00001110
          387 477 42 callgsubr
          30 7 34 3 14 rrcurveto
          6 33 7 40 28 vvcurveto
          7 0 32 -34 -10 -23 -3 -36 -20 4 -29 7 -35 vhcurveto
          7 -41 5 -28 1 -26 0 callsubr
          -1 -30 -7 -34 -3 -14 rrcurveto
          -6 -33 -7 -40 -28 vvcurveto
          -35 22 -4 11 30 4 25 14 20 -4 29 -7 35 vhcurveto
          -7 41 -5 28 -1 26 42 callsubr
          -455 vmoveto
          17 -12 16 -21 -20 -17 -3 -8 -31 vhcurveto
          -26 -8 -7 -2 -22 -2 2 28 4 24 7 42 rrcurveto
          11 56 0 23 5 vvcurveto
          35 -22 4 -11 -30 -4 -25 -14 -29 8 -43 6 -34 vhcurveto
          3 -11 5 -31 2 -30 -23 2 -3 1 -40 11 rrcurveto
          9 -32 -17 0 -7 hhcurveto
          -25 -9 -20 -13 -15 10 -18 24 24 24 6 4 11 hvcurveto
          39 10 7 1 17 2 -2 -28 -4 -24 -7 -42 rrcurveto
          -11 -56 0 -23 -5 vvcurveto
          -35 22 -4 11 30 4 25 14 29 -8 43 -6 34 vhcurveto
          -3 11 -5 31 -2 30 23 -2 3 -1 40 -11 rrcurveto
          -9 33 18 0 5 hhcurveto
          24 10 18 15 hvcurveto
          endchar
        </CharString>
        <CharString name="dblbracketleft">
          403 -249 40 920 40 hstem
          118 40 84 40 vstem
          380 -249 rmoveto
          40 -98 920 98 40 -262 -1000 vlineto
          124 40 rmoveto
          -84 920 84 hlineto
          endchar
        </CharString>
        <CharString name="dblbracketright">
          403 -249 40 920 40 hstem
          120 40 84 40 vstem
          284 -249 rmoveto
          1000 -261 -40 97 -920 -97 -40 vlineto
          221 40 rmoveto
          -84 920 84 hlineto
          endchar
        </CharString>
        <CharString name="dblgrave.ts1">
          500 561 -21 183 -20 hstem
          225 540 rmoveto
          66 callgsubr
          226 hmoveto
          66 callgsubr
          endchar
        </CharString>
        <CharString name="dblverticalbar">
          398 79 callsubr
          80 40 vstem
          159 -217 rmoveto
          -10 callgsubr
          120 hmoveto
          -10 callgsubr
          endchar
        </CharString>
        <CharString name="dcaron">
          37 callgsubr
          73 -21 112 75 hstemhm
          36 78 242 78 -75 75 hintmask 0010010010000000
          32 callgsubr
          hintmask 1101001100000000
          -61 callgsubr
          hintmask 0110110100000000
          54 callsubr
          189 281 -86 callsubr
        </CharString>
        <CharString name="dcroat">
          37 callgsubr
          82 64 93 -20 hstemhm
          36 78 242 78 -75 75 0 78 hintmask 0000110001000000
          512 537 rmoveto
          64 -78 93 vlineto
          hintmask 0010110010000000
          -75 -93 -152 -64 152 -137 hlineto
          hintmask 1001101100000000
          44 -53 -56 11 -37 hhcurveto
          -99 -78 -104 -129 -131 77 -102 95 33 59 9 54 56 hvcurveto
          -52 78 537 vlineto
          hintmask 1101101001000000
          -78 -398 rmoveto
          -14 -1 -18 -32 -29 vhcurveto
          -20 -23 -25 -8 -26 hhcurveto
          -62 -73 47 124 132 86 41 59 hvcurveto
          hintmask 0110000100000000
          54 callsubr
          endchar
        </CharString>
        <CharString name="ddotbelow">
          37 callgsubr
          239 -20 hstemhm
          36 78 99 89 54 78 -75 75 hintmask 0010100010000000
          32 callgsubr
          hintmask 1101011100000000
          -61 callgsubr
          hintmask 0110000100000000
          54 callsubr
          hintmask 0000001000000000
          -54 -539 -80 callgsubr
        </CharString>
        <CharString name="degree">
          375 417 40 197 40 hstem
          49 40 197 40 vstem
          326 556 rmoveto
          76 -62 62 -76 -77 -62 -62 -76 -77 62 -62 77 76 62 62 77 vhcurveto
          -40 hmoveto
          -55 -44 -44 -54 -55 -44 44 55 54 44 44 55 54 44 -44 -54 vhcurveto
          endchar
        </CharString>
        <CharString name="diameter">
          778 -61 40 542 40 hstem
          78 40 542 40 vstem
          721 563 rmoveto
          11 -9 9 -11 -6 -5 -2 -4 -3 vhcurveto
          -93 -93 rlineto
          48 -55 -72 29 -78 hhcurveto
          -172 -139 -139 -172 -79 29 -71 48 -55 hvcurveto
          -93 -94 rlineto
          -4 -3 -2 -5 -6 55 callgsubr
          6 5 2 4 3 vhcurveto
          94 93 rlineto
          -48 54 72 -29 79 hhcurveto
          172 139 139 172 79 -29 72 -49 55 hvcurveto
          93 93 rlineto
          4 3 2 5 6 vvcurveto
          -61 -313 rmoveto
          -150 -121 -121 -150 -68 -62 25 41 -47 vhcurveto
          382 382 rlineto
          41 -47 25 -62 -68 vvcurveto
          -94 206 rmoveto
          -382 -383 rlineto
          -41 48 -25 61 68 vvcurveto
          150 121 121 150 67 62 -25 -40 48 vhcurveto
          endchar
        </CharString>
        <CharString name="died">
          500 -6 -21 392 68 -66 68 191 -20 hstemhm
          211 78 hintmask 00111000
          444 367 rmoveto
          68 -155 191 -78 vlineto
          hintmask 11001000
          -193 -156 -68 156 -392 78 vlineto
          hintmask 00101000
          394 vlineto
          endchar
        </CharString>
        <CharString name="dieresis">
          500 571 80 hstem
          137 80 66 80 vstem
          11 callsubr
          endchar
        </CharString>
        <CharString name="dieresis.cap">
          500 486 80 hstem
          123 80 94 80 vstem
          10 callsubr
          endchar
        </CharString>
        <CharString name="dieresis.dup">
          500 571 80 hstem
          137 80 66 80 vstem
          11 callsubr
          endchar
        </CharString>
        <CharString name="dieresis.ts1">
          500 598 83 hstem
          111 39 callsubr
          194 598 12 callgsubr
          277 hmoveto
          83 -83 -83 vlineto
          endchar
        </CharString>
        <CharString name="discount">
          500 1 124 502 124 hstemhm
          75 124 101 124 -123 124 hintmask 11001000
          444 730 rmoveto
          11 -8 10 -11 vhcurveto
          0 -4 0 -2 -1 vhcurveto
          -9 -2 -4 -8 -3 -7 -10 -19 rcurveline
          -311 -633 rlineto
          -8 -17 -18 -26 -16 vvcurveto
          -11 7 -10 13 vhcurveto
          1 hlineto
          11 1 4 9 5 9 70 143 rcurveline
          134 272 57 117 rlineto
          hintmask 11110000
          66 134 rlineto
          7 13 13 20 11 vvcurveto
          -245 -86 -1 callgsubr
          225 -626 -1 callgsubr
          endchar
        </CharString>
        <CharString name="divide">
          778 85 83 62 40 61 83 hstem
          347 83 vstem
          721 250 -15 callgsubr
          -291 81 12 callgsubr
          83 -246 12 callgsubr
          endchar
        </CharString>
        <CharString name="divorced">
          500 -92 -21 141 72 303 71 141 -20 hstem
          -201 70 219 76 47 78 46 76 219 70 vstem
          164 251 rmoveto
          102 -67 121 -115 vhcurveto
          -5 -4 -1 -5 hhcurveto
          -105 -13 -64 -102 -107 vvcurveto
          -100 65 -123 115 116 69 119 104 vhcurveto
          536 hmoveto
          101 -66 122 -115 vhcurveto
          -4 -4 -1 -4 hhcurveto
          -115 -14 -57 -107 -101 vvcurveto
          -101 69 -122 113 114 69 118 105 vhcurveto
          -411 -364 rmoveto
          728 -78 -728 vlineto
          -123 361 rmoveto
          -59 -23 -89 -84 -74 -30 69 66 -8 vhcurveto
          11 vlineto
          61 20 96 90 67 36 -63 -67 6 vhcurveto
          542 -23 rmoveto
          -5 0 -6 -1 -5 vhcurveto
          -64 -6 -31 -70 -73 hhcurveto
          -79 -29 82 66 hvcurveto
          25 vlineto
          60 5 33 70 71 hhcurveto
          79 31 -85 -68 hvcurveto
          endchar
        </CharString>
        <CharString name="dlinebelow">
          517 -187 64 112 36 callgsubr
          hintmask 0001010010000000
          32 callgsubr
          hintmask 0110101100000000
          -61 callgsubr
          hintmask 0011000100000000
          54 callsubr
          hintmask 1000000000000000
          83 -526 -56 callsubr
        </CharString>
        <CharString name="dollar">
          500 -35 -21 45 68 581 68 44 -20 hstem
          56 73 92 58 91 73 vstem
          443 195 rmoveto
          83 -50 98 -114 23 vhcurveto
          241 vlineto
          62 -6 40 -24 34 -27 12 66 rcurveline
          -61 42 -44 10 -43 3 rrcurveto
          46 -58 -47 vlineto
          -112 -20 -53 -90 -80 vvcurveto
          -44 19 -113 146 -34 vhcurveto
          -268 vlineto
          -49 5 -64 21 -52 46 -12 -68 rcurveline
          25 -18 59 -41 93 -9 rrcurveto
          -46 58 48 vlineto
          100 17 64 90 96 vvcurveto
          -222 219 rmoveto
          -68 17 -24 54 41 vvcurveto
          50 34 48 58 14 vhcurveto
          149 -456 rmoveto
          -51 -29 -56 -62 -18 vhcurveto
          251 vlineto
          54 -15 37 -52 -59 vvcurveto
          endchar
        </CharString>
        <CharString name="dollar.oldstyle">
          610 -9 64 -61 -21 697 64 17 -20 hstemhm
          55 73 93 59 51 59 92 73 hintmask 00010010
          555 202 rmoveto
          92 -70 72 -82 30 vhcurveto
          -13 4 rlineto
          263 vlineto
          39 -8 44 -13 33 -22 7 -3 6 -5 8 -2 rrcurveto
          5 20 6 21 20 vvcurveto
          17 -98 32 -50 8 vhcurveto
          23 -59 vlineto
          hintmask 00100110
          -17 -51 vlineto
          hintmask 01011100
          17 -59 -25 vlineto
          0 -30 -12 -17 -9 vhcurveto
          -64 -31 -55 -59 -80 vvcurveto
          -9 vlineto
          8 -67 39 -48 55 -32 19 -11 10 -3 35 -12 rrcurveto
          -291 vlineto
          -38 9 -36 11 -35 17 -20 9 -17 13 -19 10 rrcurveto
          -4 -20 -7 -24 -18 vvcurveto
          -14 30 -11 13 -5 vhcurveto
          42 -20 45 -15 46 -7 rrcurveto
          -24 59 vlineto
          hintmask 10000110
          18 51 vlineto
          hintmask 01101111
          -18 59 30 vlineto
          91 19 74 90 90 vvcurveto
          -224 214 rmoveto
          -51 15 rlineto
          239 51 vlineto
          -110 -225 rmoveto
          -37 19 -56 21 65 vvcurveto
          56 50 31 43 19 vhcurveto
          261 -465 rmoveto
          -59 -43 -38 -49 -24 vhcurveto
          236 vlineto
          46 -20 46 -41 -54 vvcurveto
          -151 -136 rmoveto
          hintmask 10000110
          -51 282 hlineto
          51 -15 rlineto
          endchar
        </CharString>
        <CharString name="dong">
          517 -64 64 hstem
          486 545 rmoveto
          61 -74 88 -71 -88 -144 -61 144 -130 vlineto
          42 -50 -54 10 -35 hhcurveto
          -94 -74 -99 -122 -125 73 -97 91 31 56 9 51 53 hvcurveto
          -49 74 510 vlineto
          74 -609 rmoveto
          64 -452 -64 vlineto
          304 231 rmoveto
          -14 -1 -17 -30 -27 vhcurveto
          -19 -22 -24 -8 -24 hhcurveto
          -59 -70 45 118 125 82 39 56 43 28 -22 -30 21 hvcurveto
          endchar
        </CharString>
        <CharString name="dotaccent">
          278 566 74 callsubr
          566 -80 callgsubr
        </CharString>
        <CharString name="dotaccent.alt">
          278 525 74 callsubr
          525 -80 callgsubr
        </CharString>
        <CharString name="dotaccent.cap">
          278 486 74 callsubr
          486 -80 callgsubr
        </CharString>
        <CharString name="dotlessi">
          -29 callsubr
          hstem
          81 75 vstem
          -43 callgsubr
          endchar
        </CharString>
        <CharString name="dotlessj">
          -21 callgsubr
        </CharString>
        <CharString name="e">
          -58 callsubr
          hstem
          35 75 247 57 vstem
          -105 callgsubr
          endchar
        </CharString>
        <CharString name="eacute">
          -58 callsubr
          87 -21 167 -97 callsubr
          6 420 -75 callsubr
        </CharString>
        <CharString name="ebreve">
          -58 callsubr
          61 67 111 -97 callsubr
          34 426 -105 callsubr
          endchar
        </CharString>
        <CharString name="ecaron">
          -58 callsubr
          85 -21 172 -97 callsubr
          20 423 -80 callsubr
        </CharString>
        <CharString name="ecircumflex">
          -58 callsubr
          85 -21 172 -97 callsubr
          20 251 -88 callsubr
          endchar
        </CharString>
        <CharString name="ecircumflexacute">
          -58 callsubr
          85 -21 291 -97 callsubr
          21 251 -77 callgsubr
        </CharString>
        <CharString name="ecircumflexdotbelow">
          -58 callsubr
          85 -21 172 -20 73 callsubr
          hintmask 11111101
          -105 callgsubr
          20 251 -88 callsubr
          hintmask 00000010
          -52 -725 -80 callgsubr
        </CharString>
        <CharString name="ecircumflexgrave">
          -58 callsubr
          85 -21 134 -97 callsubr
          21 251 -77 callsubr
        </CharString>
        <CharString name="ecircumflexhookabove">
          -58 callsubr
          85 -21 364 -97 callsubr
          21 251 -103 callgsubr
          97 286 -107 callgsubr
        </CharString>
        <CharString name="ecircumflextilde">
          -58 callsubr
          85 -21 189 61 -3 61 1 callsubr
          hintmask 11100011
          -105 callgsubr
          hintmask 00010100
          21 251 -103 callgsubr
          70 308 -86 callgsubr
        </CharString>
        <CharString name="edblgrave">
          -58 callsubr
          87 -21 167 -97 callsubr
          7 253 -87 callgsubr
        </CharString>
        <CharString name="edieresis">
          -58 callsubr
          110 80 hstemhm
          35 75 -1 80 66 80 22 57 hintmask 11101001
          -105 callgsubr
          hintmask 00010110
          -168 297 -12 callsubr
        </CharString>
        <CharString name="edotaccent">
          -58 callsubr
          105 89 73 callsubr
          hintmask 11101010
          -105 callgsubr
          hintmask 00010100
          -91 292 -80 callgsubr
        </CharString>
        <CharString name="edotbelow">
          -58 callsubr
          73 callsubr
          hintmask 11110100
          -105 callgsubr
          hintmask 00001000
          -91 -474 -80 callgsubr
        </CharString>
        <CharString name="egrave">
          -58 callsubr
          87 -21 167 -97 callsubr
          -65 253 -57 callsubr
        </CharString>
        <CharString name="ehookabove">
          -58 callsubr
          63 -21 215 -97 callsubr
          -38 366 -107 callgsubr
        </CharString>
        <CharString name="eight">
          500 -22 5 callsubr
          hstem
          42 81 253 81 vstem
          457 -41 callsubr
        </CharString>
        <CharString name="eight.oldstyle">
          563 -22 5 callsubr
          hstemhm
          74 41 callgsubr
          489 -46 callsubr
        </CharString>
        <CharString name="eight.prop">
          563 -22 5 callsubr
          hstem
          74 81 253 81 vstem
          489 -41 callsubr
        </CharString>
        <CharString name="eight.taboldstyle">
          500 -22 5 callsubr
          hstemhm
          42 41 callgsubr
          457 -46 callsubr
        </CharString>
        <CharString name="ellipsis">
          626 0 83 hstem
          98 83 91 83 91 83 cntrmask 01110000
          181 hmoveto
          83 -83 -83 vlineto
          257 hmoveto
          83 -83 -83 vlineto
          257 hmoveto
          83 -83 -83 vlineto
          endchar
        </CharString>
        <CharString name="emacron">
          -58 callsubr
          118 64 1 callsubr
          hintmask 11101100
          -105 callgsubr
          hintmask 00010000
          46 305 -56 callsubr
        </CharString>
        <CharString name="emdash">
          1000 244 61 hstem
          0 999 vstem
          999 244 rmoveto
          61 -999 -61 vlineto
          endchar
        </CharString>
        <CharString name="emdash.alt">
          667 245 61 hstem
          666 245 rmoveto
          61 -666 -61 vlineto
          endchar
        </CharString>
        <CharString name="endash">
          500 244 61 hstem
          0 499 vstem
          499 244 rmoveto
          61 -499 -61 vlineto
          endchar
        </CharString>
        <CharString name="eng">
          517 -209 64 539 -10 callsubr
          -70 -13 -75 -60 vhcurveto
          -64 vlineto
          96 55 103 106 hvcurveto
          endchar
        </CharString>
        <CharString name="eogonek">
          444 -212 70 131 -44 callsubr
          hstemhm
          35 70 78 63 -10 63 hintmask 01011010
          414 219 rmoveto
          34 -1 75 -39 60 vhcurveto
          62 -41 -61 11 -36 hhcurveto
          -111 -90 -106 -129 -132 96 -105 120 hvcurveto
          hintmask 10000100
          28 callsubr
          hintmask 10000010
          -22 -9 -23 -6 -22 1 rrcurveto
          hintmask 01101100
          -3 callgsubr
          hintmask 00110010
          76 16 53 50 57 hhcurveto
          52 56 -34 -92 13 hvcurveto
          endchar
        </CharString>
        <CharString name="eogonekacute">
          444 -212 70 131 -44 callsubr
          19 callsubr
          35 70 78 63 -10 63 hintmask 0101001010000000
          414 219 rmoveto
          34 -1 75 -39 60 vhcurveto
          62 -41 -61 11 -36 hhcurveto
          -111 -90 -106 -129 -132 96 -105 120 hvcurveto
          hintmask 1000000100000000
          28 callsubr
          hintmask 1000000010000000
          -22 -9 -23 -6 -22 1 rrcurveto
          hintmask 0110001100000000
          -3 callgsubr
          hintmask 0011000010000000
          76 16 53 50 57 hhcurveto
          52 56 -34 -92 13 hvcurveto
          hintmask 0000110000000000
          6 420 -75 callsubr
        </CharString>
        <CharString name="equal">
          778 130 40 160 40 hstem
          56 665 vstem
          721 350 -15 callgsubr
          -200 vmoveto
          20 -19 0 -15 vhcurveto
          -597 hlineto
          -15 19 callgsubr
          14 hvcurveto
          599 hlineto
          64 callgsubr
        </CharString>
        <CharString name="ereversed">
          -58 callsubr
          hstem
          35 57 247 75 vstem
          414 226 rmoveto
          129 -90 106 -111 -36 -61 -11 -62 -41 vhcurveto
          -39 -60 -1 -75 -34 vvcurveto
          309 hlineto
          -98 -3 -64 -71 -80 hhcurveto
          -23 -66 4 52 -63 hvcurveto
          -6 -65 rlineto
          -28 39 57 -24 63 hhcurveto
          120 96 105 132 hvcurveto
          -75 48 rmoveto
          -247 hlineto
          92 13 56 34 52 hhcurveto
          57 53 -50 -76 16 hvcurveto
          endchar
        </CharString>
        <CharString name="estimated">
          669 -10 61 311 55 234 61 hstem
          561 79 vstem
          640 362 rmoveto
          104 -22 113 -84 71 vhcurveto
          42 -50 -65 20 -65 hhcurveto
          -207 -119 -189 -178 hvcurveto
          -7 vlineto
          -182 4 141 -166 196 hhcurveto
          85 83 17 27 78 hvcurveto
          8 3 12 2 10 vvcurveto
          19 -5 20 -1 19 vhcurveto
          -22 -7 -21 -10 -22 -7 rrcurveto
          -21 -65 -67 -11 -68 hhcurveto
          -13 hlineto
          -107 7 -81 85 -33 98 rrcurveto
          -13 39 -4 41 41 vvcurveto
          448 55 rmoveto
          -442 hlineto
          108 11 95 126 123 hhcurveto
          119 88 -99 -135 6 hvcurveto
          endchar
        </CharString>
        <CharString name="eth">
          -55 callgsubr
          hstem
          30 78 283 78 vstem
          469 242 rmoveto
          38 0 81 -45 94 vhcurveto
          -32 67 -45 59 -56 48 62 48 rcurveline
          -35 46 -75 -58 -37 24 -40 20 -44 13 rlinecurve
          -30 -52 34 -13 32 -16 31 -19 rlinecurve
          -65 -51 35 -46 77 61 49 -42 39 -51 26 -59 rlinecurve
          16 -28 -36 11 -36 hhcurveto
          -122 -98 -110 -131 -131 102 -100 117 69 55 33 40 36 hvcurveto
          60 67 0 67 46 vvcurveto
          -78 -17 rmoveto
          -99 -59 -73 -82 -75 -67 61 116 121 76 49 65 86 56 -78 -97 vhcurveto
          endchar
        </CharString>
        <CharString name="etilde">
          -58 callsubr
          90 61 -3 61 -98 callgsubr
          hintmask 00001000
          32 396 -95 callgsubr
        </CharString>
        <CharString name="eturned">
          -36 callsubr
        </CharString>
        <CharString name="exclam">
          319 0 83 113 -21 519 -20 hstem
          118 83 vstem
          201 694 rmoveto
          -83 hlineto
          8 -476 rlineto
          -43 67 43 vlineto
          8 -218 12 callgsubr
          endchar
        </CharString>
        <CharString name="exclamdown">
          319 -173 -21 519 -20 112 83 hstem
          118 83 vstem
          201 417 12 callgsubr
          83 -611 rmoveto
          -8 476 rlineto
          43 -67 -43 vlineto
          -8 -476 rlineto
          endchar
        </CharString>
        <CharString name="f">
          306 21 -21 386 58 200 61 hstem
          101 -39 callgsubr
          endchar
        </CharString>
        <CharString name="f_f">
          583 36 callsubr
          202 -39 callgsubr
          277 hmoveto
          67 vlineto
          3 -12 -31 8 -37 hhcurveto
          -94 -72 -71 -100 hvcurveto
          -534 -2 callsubr
          endchar
        </CharString>
        <CharString name="f_f_i">
          814 21 -21 386 58 168 83 -51 61 hstemhm
          101 75 203 75 202 75 hintmask 11100010
          735 23 callgsubr
          121 vlineto
          hintmask 00010000
          64 36 15 25 21 21 -6 -11 18 vhcurveto
          hintmask 00100000
          68 vlineto
          hintmask 11011100
          8 -22 -7 2 -31 hhcurveto
          -74 -59 -70 -100 hvcurveto
          -535 75 386 vlineto
          -135 241 -5 callsubr
          endchar
        </CharString>
        <CharString name="f_f_l">
          814 36 callsubr
          203 75 202 75 vstem
          319 627 -5 callsubr
          412 -627 rmoveto
          694 40 callsubr
          -84 -27 callsubr
          -535 75 386 vlineto
          endchar
        </CharString>
        <CharString name="f_i">
          536 21 -21 386 58 121 61 -14 83 -51 61 hstemhm
          101 75 202 75 hintmask 11010010
          457 23 callgsubr
          vlineto
          hintmask 11101100
          121 vlineto
          64 36 15 25 21 22 -7 -11 17 vhcurveto
          68 vlineto
          2 -6 -25 9 -29 hhcurveto
          -74 -59 -70 -100 hvcurveto
          -91 13 callsubr
          vlineto
          endchar
        </CharString>
        <CharString name="f_k">
          792 14 callgsubr
          hstemhm
          101 72 -72 75 208 72 hintmask 11110000
          294 -27 callsubr
          -91 -74 -58 74 -386 vlineto
          hintmask 11001100
          75 386 hlineto
          595 -386 rmoveto
          -39 callsubr
          endchar
        </CharString>
        <CharString name="f_l">
          536 36 callsubr
          202 75 vstem
          294 -27 callsubr
          -91 13 callsubr
          vlineto
          277 -386 rmoveto
          694 40 callsubr
          endchar
        </CharString>
        <CharString name="five">
          500 -22 48 callsubr
          203 -72 callsubr
        </CharString>
        <CharString name="five.oldstyle">
          558 -216 44 callsubr
          9 -72 callsubr
        </CharString>
        <CharString name="five.prop">
          558 -22 44 callsubr
          203 -72 callsubr
        </CharString>
        <CharString name="five.taboldstyle">
          500 -216 48 callsubr
          9 -72 callsubr
        </CharString>
        <CharString name="florin">
          306 21 -21 386 58 200 61 hstem
          101 -39 callgsubr
          endchar
        </CharString>
        <CharString name="four">
          500 21 -21 171 61 424 -20 hstem
          299 73 vstem
          471 -3 callsubr
        </CharString>
        <CharString name="four.oldstyle">
          517 -173 -21 194 61 423 -20 hstemhm
          302 79 -73 73 hintmask 01101000
          480 -9 callsubr
        </CharString>
        <CharString name="four.prop">
          517 21 -21 171 61 424 -20 hstem
          308 73 vstem
          480 -3 callsubr
        </CharString>
        <CharString name="four.taboldstyle">
          500 -173 -21 194 61 423 -20 hstemhm
          293 79 -73 73 hintmask 01101000
          471 -9 callsubr
        </CharString>
        <CharString name="fraction">
          558 502 58 callgsubr
        </CharString>
        <CharString name="fraction.alt">
          0 223 58 callgsubr
        </CharString>
        <CharString name="g">
          -33 callsubr
          -15 callsubr
          hintmask 00010100
          -8 callsubr
          hintmask 11101011
          -52 -31 -12 -46 -26 vvcurveto
          -75 99 -60 122 123 99 59 77 139 -167 0 -39 vhcurveto
          -88 hlineto
          -13 -45 0 53 11 4 16 7 9 hvcurveto
          -15 21 33 -14 37 hhcurveto
          90 70 74 89 48 -22 37 -11 15 hvcurveto
          4 -1 rlineto
          22 28 4 24 hhcurveto
          18 41 -3 0 hvcurveto
          -174 -100 rmoveto
          -78 -47 -28 -43 vhcurveto
          hintmask 10010110
          -37 -52 23 83 83 52 23 37 43 47 -28 -78 hvcurveto
          90 -364 rmoveto
          -44 -69 -33 -82 vhcurveto
          hintmask 01001001
          -81 -71 31 47 3 0 65 78 hvcurveto
          90 hlineto
          22 113 0 -69 hvcurveto
          endchar
        </CharString>
        <CharString name="gacute">
          -33 callsubr
          93 -21 167 -20 -15 callsubr
          hintmask 0001000100000000
          485 392 -102 callsubr
          hintmask 0000110000000000
          -45 766 -75 callsubr
        </CharString>
        <CharString name="gbreve">
          -33 callsubr
          67 67 111 -20 -15 callsubr
          hintmask 0001000100000000
          485 392 -102 callsubr
          hintmask 0000110000000000
          -17 772 -105 callsubr
          endchar
        </CharString>
        <CharString name="gcaron">
          -33 callsubr
          91 -21 172 -20 -15 callsubr
          hintmask 0001000100000000
          485 392 -102 callsubr
          hintmask 0000110010000000
          -31 769 -80 callsubr
        </CharString>
        <CharString name="gcedilla">
          -33 callsubr
          85 75 112 -20 -15 callsubr
          hintmask 0001110100000000
          252 540 rmoveto
          75 -22 vlineto
          22 112 rlineto
          -37 hlineto
          -37 -113 rlineto
          -74 vlineto
          307 -148 -102 callsubr
          endchar
        </CharString>
        <CharString name="gcircumflex">
          -33 callsubr
          91 -21 172 -20 -15 callsubr
          hintmask 0001000100000000
          485 392 -102 callsubr
          hintmask 0000110010000000
          -31 597 -88 callsubr
          endchar
        </CharString>
        <CharString name="gcommaaccent">
          -33 callsubr
          85 75 112 -20 -15 callsubr
          hintmask 0001110100000000
          252 540 rmoveto
          75 -22 vlineto
          22 112 rlineto
          -37 hlineto
          -37 -113 rlineto
          -74 vlineto
          307 -148 -102 callsubr
          endchar
        </CharString>
        <CharString name="gdotaccent">
          -33 callsubr
          111 89 hstemhm
          28 70 -36 70 38 89 52 70 20 70 hintmask 0001001000000000
          -8 callsubr
          hintmask 1110010011000000
          -52 -31 -12 -46 -26 vvcurveto
          -75 99 -60 122 123 99 59 77 139 -167 0 -39 vhcurveto
          -88 hlineto
          -13 -45 0 53 11 4 16 7 9 hvcurveto
          -15 21 33 -14 37 hhcurveto
          90 70 74 89 48 -22 37 -11 15 hvcurveto
          4 -1 rlineto
          22 28 4 24 hhcurveto
          18 41 -3 0 hvcurveto
          -174 -100 rmoveto
          -78 -47 -28 -43 vhcurveto
          hintmask 1001001010000000
          -37 -52 23 83 83 52 23 37 43 47 -28 -78 hvcurveto
          90 -364 rmoveto
          -44 -69 -33 -82 vhcurveto
          hintmask 0100010001000000
          -81 -71 31 47 3 0 65 78 hvcurveto
          90 hlineto
          22 113 0 -69 hvcurveto
          hintmask 0000100100000000
          -142 638 -80 callgsubr
        </CharString>
        <CharString name="germandbls">
          -45 callgsubr
        </CharString>
        <CharString name="germandbls.dup">
          -45 callgsubr
        </CharString>
        <CharString name="gnaborretni">
          472 325 20 callsubr
          -50 -36 -51 -13 -37 -4 rlinecurve
          -5 355 rlineto
          4 26 2 27 27 45 callgsubr
          -73 35 -67 98 -13 vhcurveto
          -1 -23 rlineto
          67 hlineto
          -1 22 51 5 56 16 54 31 rlinecurve
          -223 215 rmoveto
          -3 -204 rlineto
          -38 9 -17 28 52 vvcurveto
          47 15 16 15 16 vhcurveto
          10 11 10 13 8 12 rrcurveto
          endchar
        </CharString>
        <CharString name="grave">
          500 548 -14 callsubr
          hstem
          320 527 -57 callsubr
        </CharString>
        <CharString name="grave.cap">
          500 517 56 callgsubr
          hstem
          345 496 -67 callgsubr
        </CharString>
        <CharString name="grave.ts1">
          500 560 -21 184 -20 hstem
          294 539 rmoveto
          -134 183 -24 1 rlineto
          -53 hlineto
          151 -184 rlineto
          endchar
        </CharString>
        <CharString name="greater">
          778 83 611 vstem
          694 250 rmoveto
          12 -8 5 -11 5 vhcurveto
          -554 261 rlineto
          7 -13 -2 0 -3 hhcurveto
          -11 -9 -9 -11 -9 5 -6 14 -7 hvcurveto
          525 -248 -525 -248 rlineto
          -14 -7 -5 -6 -9 55 callgsubr
          3 2 0 7 13 vhcurveto
          554 261 rlineto
          11 5 8 5 12 vvcurveto
          endchar
        </CharString>
        <CharString name="guarani">
          667 -22 64 196 61 353 64 hstem
          67 89 119 64 182 78 vstem
          599 27 rmoveto
          272 -210 -61 132 -176 vlineto
          -17 -56 -48 -3 -25 hhcurveto
          -18 -18 3 4 -17 hvcurveto
          596 vlineto
          4 17 18 3 18 hhcurveto
          64 58 -15 -51 62 hvcurveto
          15 81 rlineto
          25 -54 -50 24 -94 hhcurveto
          -19 -18 -2 -3 -17 hvcurveto
          79 -64 -98 vlineto
          -125 -54 -83 -137 -154 vvcurveto
          -158 85 -134 123 -53 vhcurveto
          -98 64 79 vlineto
          -3 17 17 -2 18 hhcurveto
          98 79 34 15 31 hvcurveto
          -324 54 rmoveto
          -73 53 -46 100 113 vvcurveto
          113 46 100 73 53 vhcurveto
          endchar
        </CharString>
        <CharString name="guillemotleft">
          500 21 -21 439 -20 hstem
          277 4 callgsubr
          228 4 callgsubr
          endchar
        </CharString>
        <CharString name="guillemotright">
          500 21 -21 439 -20 hstem
          389 219 rmoveto
          -105 220 rlineto
          -61 hlineto
          88 -220 -88 -219 rlineto
          61 hlineto
          -62 33 callgsubr
        </CharString>
        <CharString name="guilsinglleft">
          333 21 -21 439 -20 hstem
          277 4 callgsubr
          endchar
        </CharString>
        <CharString name="guilsinglright">
          333 21 -21 439 -20 hstem
          222 33 callgsubr
        </CharString>
        <CharString name="h">
          -23 callgsubr
          239 -20 hstemhm
          81 75 -75 78 198 78 hintmask 11110100
          -47 callsubr
          hintmask 11001100
          -35 callsubr
          endchar
        </CharString>
        <CharString name="h_uni0303">
          -23 callgsubr
          239 -20 62 -18 callgsubr
          81 75 -75 78 198 78 hintmask 11100101
          -47 callsubr
          hintmask 11000011
          -35 callsubr
          hintmask 00001000
          68 855 -95 callgsubr
        </CharString>
        <CharString name="hbar">
          -23 callgsubr
          82 64 93 -20 hstemhm
          3 78 0 75 -75 78 198 78 hintmask 01110101
          435 hmoveto
          298 vlineto
          66 -15 91 -122 -62 -48 -31 -41 -32 vhcurveto
          154 102 64 -102 93 -75 -93 vlineto
          hintmask 10101000
          -78 -64 78 -537 hlineto
          hintmask 11000011
          -35 callsubr
          endchar
        </CharString>
        <CharString name="hbrevebelow">
          517 67 callsubr
          107 59 callgsubr
          239 -20 hstemhm
          81 75 -75 78 198 78 hintmask 00111101
          -47 callsubr
          hintmask 00110011
          -35 callsubr
          hintmask 11000000
          70 -66 -105 callsubr
          endchar
        </CharString>
        <CharString name="hcircumflex">
          -23 callgsubr
          239 -20 83 -21 134 -20 hstemhm
          81 75 -75 78 198 78 hintmask 11100101
          -47 callsubr
          hintmask 11000011
          -35 callsubr
          hintmask 00011000
          57 736 -103 callgsubr
          endchar
        </CharString>
        <CharString name="hdieresis">
          -23 callgsubr
          239 -20 62 80 hstemhm
          81 75 -75 78 -28 80 94 80 -28 78 hintmask 1110100010000000
          -47 callsubr
          hintmask 1100010010000000
          -35 callsubr
          hintmask 0001001100000000
          -146 736 -71 callsubr
          endchar
        </CharString>
        <CharString name="hdotbelow">
          -23 callgsubr
          239 -20 hstemhm
          81 75 -75 78 54 89 55 78 hintmask 11110010
          -47 callsubr
          hintmask 11001010
          -35 callsubr
          hintmask 00000100
          -55 -200 -80 callgsubr
        </CharString>
        <CharString name="hungarumlaut">
          500 548 -14 callsubr
          hstem
          249 694 -63 callsubr
        </CharString>
        <CharString name="hungarumlaut.cap">
          500 517 -14 callsubr
          hstem
          249 663 -63 callsubr
        </CharString>
        <CharString name="hungarumlaut.ts1">
          500 559 -21 185 -20 hstem
          250 723 rmoveto
          -77 hlineto
          -51 -143 -14 -42 rlineto
          60 hlineto
          248 185 rmoveto
          -77 hlineto
          -51 -143 -14 -42 rlineto
          60 hlineto
          endchar
        </CharString>
        <CharString name="hyphen">
          -2 callgsubr
        </CharString>
        <CharString name="hyphen.alt">
          167 193 58 hstem
          274 193 rmoveto
          58 -263 -58 vlineto
          endchar
        </CharString>
        <CharString name="hyphen.dup">
          -2 callgsubr
        </CharString>
        <CharString name="hyphen.prop">
          333 304 58 hstem
          34 265 vstem
          299 304 rmoveto
          58 -265 -58 vlineto
          endchar
        </CharString>
        <CharString name="hyphendbl">
          333 12 callsubr
        </CharString>
        <CharString name="hyphendbl.alt">
          167 12 callsubr
        </CharString>
        <CharString name="i">
          -29 callsubr
          142 89 hstemhm
          75 89 -83 75 hintmask 11001000
          -43 callgsubr
          hintmask 00110000
          83 566 -80 callgsubr
        </CharString>
        <CharString name="i_j">
          482 -205 64 707 89 hstemhm
          74 89 -82 75 154 89 -75 75 hintmask 01100100
          163 566 -73 callgsubr
          325 hmoveto
          89 vlineto
          hintmask 01011000
          -89 -89 hlineto
          -154 -566 rmoveto
          444 -75 -444 vlineto
          318 -59 rmoveto
          503 vlineto
          hintmask 10000100
          -75 -512 hlineto
          -64 -50 -9 -28 -29 -26 11 20 -22 vhcurveto
          -15 -61 rlineto
          -28 48 46 -6 26 hhcurveto
          63 62 52 94 hvcurveto
          endchar
        </CharString>
        <CharString name="iacute">
          9 callgsubr
          211 694 -75 callsubr
        </CharString>
        <CharString name="ibreve">
          -29 callsubr
          98 67 111 -20 hstemhm
          81 75 hintmask 11001000
          -43 callgsubr
          hintmask 00110000
          207 700 -105 callsubr
          endchar
        </CharString>
        <CharString name="icaron">
          -29 callsubr
          122 -21 172 -20 hstemhm
          81 75 hintmask 11001000
          -43 callgsubr
          hintmask 00110000
          193 697 -80 callsubr
        </CharString>
        <CharString name="icircumflex">
          -29 callsubr
          122 -21 172 -20 hstemhm
          81 75 hintmask 11001000
          -43 callgsubr
          hintmask 00110000
          193 525 -88 callsubr
          endchar
        </CharString>
        <CharString name="idblgrave">
          15 callgsubr
          hintmask 00110000
          180 527 -87 callgsubr
        </CharString>
        <CharString name="idieresis">
          -29 callsubr
          147 80 hstemhm
          6 80 -5 75 -4 80 hintmask 11001000
          -43 callgsubr
          hintmask 00110100
          5 571 -12 callsubr
        </CharString>
        <CharString name="idieresisacute">
          -29 callsubr
          147 80 77 28 callgsubr
          6 80 -5 75 -4 80 hintmask 11000010
          -43 callgsubr
          hintmask 00111101
          5 571 -67 callsubr
          158 258 -95 callsubr
        </CharString>
        <CharString name="idotbelow">
          -29 callsubr
          142 89 hstemhm
          75 89 -83 75 hintmask 11001000
          -43 callgsubr
          83 566 rmoveto
          hintmask 00110000
          -59 callsubr
          hintmask 00010000
          89 -766 -80 callgsubr
        </CharString>
        <CharString name="igrave">
          9 callgsubr
          75 527 -57 callsubr
        </CharString>
        <CharString name="ihookabove">
          -29 callsubr
          100 -21 215 -20 hstemhm
          81 75 hintmask 11001000
          -43 callgsubr
          hintmask 00110000
          135 640 -107 callgsubr
        </CharString>
        <CharString name="imacron">
          -29 callsubr
          155 64 hstemhm
          81 75 hintmask 11010000
          -43 callgsubr
          hintmask 00100000
          219 579 -56 callsubr
        </CharString>
        <CharString name="imacron.alt">
          -29 callsubr
          155 64 hstemhm
          81 75 hintmask 11010000
          -43 callgsubr
          hintmask 00100000
          136 579 0 callgsubr
        </CharString>
        <CharString name="infinity">
          1000 -24 55 -52 62 362 62 -52 55 hstemhm
          56 62 764 62 hintmask 10101000
          458 213 rmoveto
          -94 -51 -69 -88 -103 hhcurveto
          -82 -35 97 94 90 39 91 80 77 52 -68 -62 47 hvcurveto
          469 -51 rmoveto
          hintmask 01010100
          -90 -39 -91 -80 -77 -52 68 62 -47 vhcurveto
          -45 60 rlineto
          94 51 69 88 103 hhcurveto
          82 35 -97 -94 hvcurveto
          62 hmoveto
          130 -89 116 -124 -106 -72 -83 -95 -55 vhcurveto
          -22 29 rlineto
          hintmask 10101000
          73 -55 -64 73 -89 hhcurveto
          -123 -89 -114 -129 -130 89 -116 124 106 72 83 95 55 hvcurveto
          22 -29 rlineto
          hintmask 01000100
          -73 55 64 -73 89 hhcurveto
          123 89 114 129 hvcurveto
          endchar
        </CharString>
        <CharString name="interrobang">
          472 278 hmoveto
          83 -83 -83 vlineto
          207 550 rmoveto
          73 -35 67 -98 13 vhcurveto
          23 -66 -22 vlineto
          -51 -5 -56 -16 -53 -31 23 -63 rcurveline
          50 36 51 13 37 4 5 -355 rcurveline
          -4 -26 -2 -27 -27 vvcurveto
          -32 67 57 vlineto
          48 15 81 68 69 vhcurveto
          18 18 31 31 71 vvcurveto
          -78 2 rmoveto
          -47 -15 -16 -15 -16 vhcurveto
          -11 -11 -9 -13 -9 -12 3 204 rcurveline
          39 -9 17 -28 -52 vvcurveto
          endchar
        </CharString>
        <CharString name="iogonek">
          239 -212 70 163 47 callsubr
          167 89 hstem
          81 75 vstem
          163 591 -73 callgsubr
          128 -778 -13 callgsubr
          endchar
        </CharString>
        <CharString name="iogonekacute">
          239 -212 70 163 47 callsubr
          124 -14 callsubr
          hstem
          81 75 vstem
          202 -187 -13 callgsubr
          90 881 -75 callsubr
        </CharString>
        <CharString name="itilde">
          -29 callsubr
          127 -18 callgsubr
          81 75 hintmask 11001000
          -43 callgsubr
          hintmask 00010000
          205 670 -102 callgsubr
        </CharString>
        <CharString name="j">
          14 callsubr
          142 89 hstemhm
          34 75 -14 89 -75 75 hintmask 01000100
          184 -59 rmoveto
          503 -75 -513 vlineto
          hintmask 10010000
          -31 callsubr
          hintmask 00100100
          625 vmoveto
          89 vlineto
          hintmask 00101000
          -89 -89 hlineto
          endchar
        </CharString>
        <CharString name="jacute">
          14 callsubr
          124 -21 167 -38 callsubr
          hintmask 00110100
          136 753 -75 callsubr
        </CharString>
        <CharString name="jcaron">
          14 callsubr
          122 -21 172 -38 callsubr
          hintmask 00110000
          111 756 -80 callsubr
        </CharString>
        <CharString name="jcircumflex">
          14 callsubr
          122 -21 172 -38 callsubr
          hintmask 00110000
          111 584 -88 callsubr
          endchar
        </CharString>
        <CharString name="k">
          489 20 callgsubr
          84 72 vstem
          471 hmoveto
          -39 callsubr
          endchar
        </CharString>
        <CharString name="kcedilla">
          489 16 callgsubr
          hstem
          84 72 vstem
          471 hmoveto
          -39 callsubr
          -108 -153 -86 callsubr
        </CharString>
        <CharString name="kcommaaccent">
          489 7 callsubr
          84 72 hintmask 00111000
          471 hmoveto
          -39 callsubr
          hintmask 11000000
          -108 -153 -86 callsubr
        </CharString>
        <CharString name="l">
          51 callgsubr
          hstem
          81 75 vstem
          -24 callgsubr
          endchar
        </CharString>
        <CharString name="l_uni0303">
          51 callgsubr
          62 -18 callgsubr
          81 75 hintmask 11001000
          -24 callgsubr
          hintmask 00010000
          205 855 -102 callgsubr
        </CharString>
        <CharString name="lacute">
          51 callgsubr
          93 28 callgsubr
          81 75 hintmask 11001000
          -24 callgsubr
          34 callsubr
        </CharString>
        <CharString name="lcaron">
          239 21 -21 528 -21 112 75 hstem
          81 75 vstem
          -24 callgsubr
          186 620 -86 callsubr
        </CharString>
        <CharString name="lcedilla">
          239 16 callgsubr
          hstem
          81 75 vstem
          -24 callgsubr
          75 -153 -86 callsubr
        </CharString>
        <CharString name="lcommaaccent">
          239 7 callsubr
          81 75 hintmask 00111000
          -24 callgsubr
          hintmask 11001000
          75 -153 -86 callsubr
        </CharString>
        <CharString name="ldot">
          288 21 -21 324 89 281 -20 hstem
          81 75 61 89 vstem
          -24 callgsubr
          225 324 -80 callgsubr
        </CharString>
        <CharString name="ldotbelow">
          51 callgsubr
          hstemhm
          75 89 -83 75 hintmask 11010000
          -24 callgsubr
          hintmask 00100000
          83 -200 -80 callgsubr
        </CharString>
        <CharString name="ldotbelowmacron">
          51 callgsubr
          82 64 hstemhm
          75 89 -83 75 hintmask 11001000
          -24 callgsubr
          83 -200 rmoveto
          hintmask 00010000
          -59 callsubr
          hintmask 00100000
          237 956 -56 callsubr
        </CharString>
        <CharString name="leaf">
          1000 -47 25 190 25 192 25 -1 25 285 25 1 25 hstemhm
          -11 24 216 25 -17 25 -24 24 0 25 250 24 425 24 hintmask 1001111001011000
          1012 718 rmoveto
          16 -10 0 -11 4 vhcurveto
          20 -76 -72 12 -79 hhcurveto
          -14 hlineto
          -62 -6 -57 -5 -60 -15 -318 -83 -251 -288 -13 -349 rrcurveto
          -1 -5 -1 -5 -6 vvcurveto
          -25 47 -5 25 -5 vhcurveto
          -13 54 56 -7 56 hhcurveto
          411 356 323 425 18 hvcurveto
          1 5 1 6 6 vvcurveto
          -474 -300 rmoveto
          -19 -13 -2 -10 -9 vhcurveto
          -186 -134 -22 -16 -22 -18 -23 -14 rlinecurve
          333 vlineto
          21 43 27 23 16 vhcurveto
          66 47 68 31 75 28 rrcurveto
          -275 vlineto
          -5 1 -5 -6 vvcurveto
          193 -249 rmoveto
          hintmask 1110110100110000
          -121 -136 -184 -70 -182 hhcurveto
          -11 hlineto
          -44 1 -43 5 -43 7 -39 9 rcurveline
          -7 2 -7 2 -8 1 227 163 rcurveline
          647 218 rmoveto
          -36 -63 -40 -62 -53 -53 rrcurveto
          -7 -7 -5 -8 -11 hhcurveto
          -462 hlineto
          267 192 rlineto
          418 334 rmoveto
          -342 -247 -69 -50 rlineto
          270 vlineto
          3 -1 4 4 vvcurveto
          34 156 8 51 56 58 -4 -14 55 vhcurveto
          12 -2 12 -5 12 -1 rrcurveto
          -734 -192 rmoveto
          hintmask 0000001010000000
          -1 -338 -167 -122 -57 -41 rlineto
          42 8 44 9 41 vhcurveto
          hintmask 0001000001000000
          32 142 73 129 103 103 rrcurveto
          748 171 rmoveto
          -90 -30 -100 -34 -78 vhcurveto
          -12 -4 -4 -9 -15 hhcurveto
          hintmask 0010000000001000
          -5 -5 1 -3 hhcurveto
          -299 hlineto
          endchar
        </CharString>
        <CharString name="less">
          778 83 611 vstem
          -12 callgsubr
          rmoveto
          11 -7 5 -12 6 vhcurveto
          -525 248 525 248 rlineto
          12 6 7 5 11 vvcurveto
          11 -9 9 -11 -3 -2 0 -7 -13 vhcurveto
          -554 -261 rlineto
          -11 -5 -8 -5 -12 vvcurveto
          -12 8 -5 11 -5 vhcurveto
          554 -261 rlineto
          -7 13 2 0 3 hhcurveto
          11 9 9 11 hvcurveto
          endchar
        </CharString>
        <CharString name="lira">
          667 -22 64 -50 64 194 64 66 64 hstemhm
          hintmask 01110000
          9 callsubr
          1 4 rcurveline
          133 64 -134 hlineto
          -1 11 -2 11 -3 10 -2 9 -3 8 -3 9 -3 8 rcurveline
          151 64 -176 hlineto
          -2 9 rlineto
          35 callsubr
          -127 -92 -121 -129 24 vhcurveto
          -77 -64 99 hlineto
          13 -35 6 -19 rlineto
          1 -4 1 -4 -4 vvcurveto
          -120 -64 121 hlineto
          hintmask 10000000
          -11 -79 -50 -67 -52 -62 15 callsubr
        </CharString>
        <CharString name="logicalnot">
          778 330 40 hstem
          681 40 vstem
          721 150 rmoveto
          200 vlineto
          11 -9 9 -11 vhcurveto
          -625 hlineto
          -11 -9 -9 -11 -11 9 -9 11 hvcurveto
          605 -180 hlineto
          -11 9 -9 11 11 9 9 11 vhcurveto
          endchar
        </CharString>
        <CharString name="longs">
          286 644 61 hstem
          81 75 vstem
          327 627 rmoveto
          67 vlineto
          3 -12 -31 8 -37 hhcurveto
          -94 -72 -71 -100 hvcurveto
          -534 75 563 vlineto
          74 64 7 26 20 27 -2 -15 34 vhcurveto
          endchar
        </CharString>
        <CharString name="lslash">
          324 20 callgsubr
          137 75 vstem
          320 448 rmoveto
          -40 44 -68 -60 rlineto
          262 -75 -326 vlineto
          -98 -86 38 -45 60 52 rlineto
          -289 75 355 vlineto
          endchar
        </CharString>
        <CharString name="m">
          794 21 59 callgsubr
          hstem
          81 78 199 78 199 78 cntrmask 00111000
          -27 callgsubr
          endchar
        </CharString>
        <CharString name="macron">
          500 579 64 hstem
          431 579 -56 callsubr
        </CharString>
        <CharString name="macron.alt">
          500 579 64 hstem
          348 579 0 callgsubr
        </CharString>
        <CharString name="macron.cap">
          500 506 64 hstem
          431 506 -56 callsubr
        </CharString>
        <CharString name="macron.cap.alt">
          500 506 64 hstem
          348 506 0 callgsubr
        </CharString>
        <CharString name="macron.dup">
          500 579 64 hstem
          431 579 -56 callsubr
        </CharString>
        <CharString name="macron.ts1">
          778 682 40 -39 40 1 -20 hstemhm
          hintmask 00100000
          694 703 rmoveto
          16 -15 5 -15 vhcurveto
          hintmask 01000000
          -9 -8 -1 -9 hhcurveto
          -531 hlineto
          hintmask 10000000
          -3 -3 0 -1 -3 hvcurveto
          -10 -2 -5 -9 -8 vvcurveto
          hintmask 01000000
          -12 10 -8 14 vhcurveto
          540 hlineto
          hintmask 10000000
          5 7 -1 7 hhcurveto
          13 15 6 15 hvcurveto
          endchar
        </CharString>
        <CharString name="married">
          500 29 70 82 70 0 70 82 70 hstemhm
          -89 68 182 177 182 69 hintmask 11011110
          589 250 rmoveto
          119 -94 104 -120 -40 -57 -13 -30 -28 vhcurveto
          27 -34 -46 16 -44 hhcurveto
          -121 -94 -101 -121 -120 92 -102 121 40 57 13 30 28 hvcurveto
          1 hlineto
          -30 30 55 -13 44 hhcurveto
          119 91 107 114 hvcurveto
          -388 -129 rmoveto
          -11 -25 -22 -11 -28 hhcurveto
          -97 -50 74 79 81 56 68 82 2 hvcurveto
          31 22 -8 -14 31 hvcurveto
          -24 -42 -16 -39 -49 vvcurveto
          -48 16 -41 24 -41 vhcurveto
          319 131 rmoveto
          -80 -52 -73 -95 -28 -22 11 11 -25 vhcurveto
          24 41 16 41 48 vvcurveto
          49 -16 39 -24 42 vhcurveto
          14 31 22 8 31 hhcurveto
          82 -2 56 -68 -81 vvcurveto
          -258 -18 rmoveto
          -2 -19 -6 -16 -4 -18 rrcurveto
          -10 22 -3 24 24 vvcurveto
          hintmask 00100000
          25 6 21 6 24 vhcurveto
          1 hlineto
          5 -26 7 -21 -26 vvcurveto
          endchar
        </CharString>
        <CharString name="mdotbelow">
          794 21 59 callgsubr
          hstemhm
          81 78 193 89 -83 78 199 78 hintmask 11101100
          -27 callgsubr
          hintmask 00010000
          -194 -200 -80 callgsubr
        </CharString>
        <CharString name="minus">
          778 230 40 hstem
          721 250 -15 callgsubr
          endchar
        </CharString>
        <CharString name="multiply">
          778 -40 callsubr
          endchar
        </CharString>
        <CharString name="n">
          517 21 -21 394 -10 callsubr
          endchar
        </CharString>
        <CharString name="nacute">
          -23 callgsubr
          93 40 callgsubr
          81 78 198 78 hintmask 11001100
          -84 callsubr
          hintmask 00110000
          42 694 -75 callsubr
        </CharString>
        <CharString name="naira">
          708 21 -21 250 64 66 64 250 -20 hstem
          96 78 359 78 vstem
          654 250 rmoveto
          64 -43 66 43 64 -43 250 -78 -250 -187 vlineto
          -126 250 rlineto
          -124 -250 -43 -64 43 -66 -43 -64 43 -250 78 250 187 hlineto
          126 -250 rlineto
          124 250 hlineto
          -348 194 rmoveto
          -89 179 1 hlineto
          67 -137 rlineto
          87 -172 rmoveto
          -155 66 121 hlineto
          238 -66 rmoveto
          -122 hlineto
          -33 66 rlineto
          155 hlineto
          -309 vmoveto
          -1 hlineto
          -67 137 -21 42 rlineto
          89 hlineto
          endchar
        </CharString>
        <CharString name="ncaron">
          -23 callgsubr
          91 -21 172 -20 hstemhm
          81 78 198 78 hintmask 11001100
          -84 callsubr
          hintmask 00110000
          56 697 -80 callsubr
        </CharString>
        <CharString name="ncedilla">
          517 -41 callgsubr
          100 -21 394 -10 callsubr
          -62 -153 -86 callsubr
        </CharString>
        <CharString name="ncommaaccent">
          517 -41 callgsubr
          100 59 callgsubr
          hstemhm
          81 78 198 78 hintmask 00111100
          -84 callsubr
          hintmask 11000000
          -62 -153 -86 callsubr
        </CharString>
        <CharString name="ndotaccent">
          -23 callgsubr
          111 89 hstemhm
          81 78 54 89 55 78 hintmask 11010100
          -84 callsubr
          hintmask 00101000
          -55 566 -80 callgsubr
        </CharString>
        <CharString name="ndotbelow">
          -23 callgsubr
          hstemhm
          81 78 54 89 55 78 hintmask 11101000
          -84 callsubr
          hintmask 00010000
          -55 -200 -80 callgsubr
        </CharString>
        <CharString name="nine">
          500 -22 45 callsubr
          42 82 0 82 165 86 hintmask 01111000
          457 335 -37 callsubr
          hintmask 11110110
          -74 callsubr
          1 -7 0 -10 -7 vvcurveto
          endchar
        </CharString>
        <CharString name="nine.oldstyle">
          563 -216 45 callsubr
          74 82 0 82 165 86 -84 84 hintmask 01111001
          489 141 -37 callsubr
          hintmask 11110101
          -74 callsubr
          hintmask 00000010
          1 -7 0 -10 -7 vvcurveto
          endchar
        </CharString>
        <CharString name="nine.prop">
          563 -22 45 callsubr
          74 82 0 82 165 86 hintmask 01111000
          489 335 -37 callsubr
          hintmask 11110110
          -74 callsubr
          1 -7 0 -10 -7 vvcurveto
          endchar
        </CharString>
        <CharString name="nine.taboldstyle">
          500 -216 45 callsubr
          42 82 0 82 165 86 -84 84 hintmask 01111001
          457 141 -37 callsubr
          hintmask 11110101
          -74 callsubr
          hintmask 00000010
          1 -7 0 -10 -7 vvcurveto
          endchar
        </CharString>
        <CharString name="ntilde">
          -23 callgsubr
          96 -18 callgsubr
          81 78 198 78 hintmask 11001100
          -84 callsubr
          hintmask 00010000
          68 670 -102 callgsubr
        </CharString>
        <CharString name="numbersign">
          833 -173 -21 324 40 160 40 324 -20 hstem
          56 720 vstem
          776 150 rmoveto
          20 -19 0 -15 vhcurveto
          -212 hlineto
          42 160 rlineto
          170 hlineto
          15 19 0 20 20 -19 0 -14 hvcurveto
          -159 21 callsubr
          -188 21 callsubr
          -225 hlineto
          -14 19 callgsubr
          15 hvcurveto
          212 hlineto
          -42 -160 rlineto
          -170 hlineto
          -15 19 callgsubr
          14 hvcurveto
          159 21 callgsubr
          188 21 callgsubr
          225 hlineto
          14 19 0 20 hvcurveto
          -245 180 rmoveto
          -42 -160 rlineto
          -188 hlineto
          42 160 rlineto
          endchar
        </CharString>
        <CharString name="numero">
          819 21 -21 160 59 45 66 154 61 150 -20 hstemhm
          95 78 207 79 0 78 -2 65 75 64 -64 66 hintmask 0011000010100000
          741 400 rmoveto
          60 -33 85 -70 -70 -33 -78 -67 -57 33 -79 70 70 33 79 57 vhcurveto
          -2 -240 rmoveto
          hintmask 0100100101000000
          59 -202 -59 vlineto
          -78 -160 rmoveto
          695 vlineto
          hintmask 1011111011000000
          -79 -624 hlineto
          0 -5 47 -7 28 vhcurveto
          -147 549 rlineto
          -126 -695 78 625 hlineto
          7 -62 15 -61 16 -59 123 -443 rcurveline
          341 401 rmoveto
          -32 -10 -39 -27 -32 -6 39 32 37 2 46 36 36 1 -46 -37 vhcurveto
          endchar
        </CharString>
        <CharString name="o">
          -55 callgsubr
          hstem
          30 78 283 78 vstem
          -104 callsubr
          endchar
        </CharString>
        <CharString name="oacute">
          -31 callgsubr
          hintmask 00110100
          464 vmoveto
          33 callsubr
          -167 rlineto
          61 hlineto
          endchar
        </CharString>
        <CharString name="obreve">
          -55 callgsubr
          61 67 111 -20 hstemhm
          30 78 283 78 hintmask 11001100
          -104 callsubr
          hintmask 00110000
          28 470 -105 callsubr
          endchar
        </CharString>
        <CharString name="ocaron">
          -55 callgsubr
          85 -21 172 -20 hstemhm
          30 78 283 78 hintmask 11001100
          -104 callsubr
          hintmask 00110000
          14 467 -80 callsubr
        </CharString>
        <CharString name="ocircumflex">
          -55 callgsubr
          85 -21 172 -20 hstemhm
          30 78 283 78 hintmask 11001100
          -104 callsubr
          hintmask 00110000
          14 295 -88 callsubr
          endchar
        </CharString>
        <CharString name="ocircumflexacute">
          -55 callgsubr
          85 -21 291 -20 hstemhm
          30 78 283 78 hintmask 11001100
          -104 callsubr
          hintmask 00110000
          15 295 -77 callgsubr
        </CharString>
        <CharString name="ocircumflexdotbelow">
          -55 callgsubr
          85 -21 172 -20 hstemhm
          30 78 97 89 97 78 hintmask 11111010
          -104 callsubr
          14 295 -88 callsubr
          hintmask 00000100
          -52 -725 -80 callgsubr
        </CharString>
        <CharString name="ocircumflexgrave">
          -55 callgsubr
          85 -21 134 -20 hstemhm
          30 78 283 78 hintmask 11001100
          -104 callsubr
          hintmask 00110000
          15 295 -77 callsubr
        </CharString>
        <CharString name="ocircumflexhookabove">
          -55 callgsubr
          85 -21 364 -20 hstemhm
          30 78 283 78 hintmask 11001100
          -104 callsubr
          hintmask 00110000
          15 295 -103 callgsubr
          97 286 -107 callgsubr
        </CharString>
        <CharString name="ocircumflextilde">
          -55 callgsubr
          85 -21 189 -18 callgsubr
          30 78 283 78 hintmask 11000110
          -104 callsubr
          hintmask 00101000
          15 295 -103 callgsubr
          70 308 -95 callgsubr
        </CharString>
        <CharString name="odblgrave">
          -31 callgsubr
          hintmask 00110000
          1 297 -87 callgsubr
        </CharString>
        <CharString name="odieresis">
          -55 callgsubr
          110 80 hstemhm
          30 78 29 80 66 80 28 78 hintmask 11010010
          -104 callsubr
          hintmask 00101100
          -174 341 -12 callsubr
        </CharString>
        <CharString name="odotbelow">
          -55 callgsubr
          hstemhm
          30 78 97 89 97 78 hintmask 11101000
          -104 callsubr
          hintmask 00010000
          -97 -430 -80 callgsubr
        </CharString>
        <CharString name="oe">
          -56 callgsubr
        </CharString>
        <CharString name="oe.dup">
          -56 callgsubr
        </CharString>
        <CharString name="ogonek">
          500 -212 70 hstem
          349 -52 callsubr
          -64 hlineto
          -50 -28 -40 -48 3 -51 rrcurveto
          -70 callgsubr
          endchar
        </CharString>
        <CharString name="ograve">
          -31 callgsubr
          hintmask 00110000
          -71 297 -57 callsubr
        </CharString>
        <CharString name="ohm">
          -57 callgsubr
        </CharString>
        <CharString name="ohookabove">
          -55 callgsubr
          63 -21 215 -20 hstemhm
          30 78 283 78 hintmask 11001100
          -104 callsubr
          hintmask 00110000
          -44 410 -107 callgsubr
        </CharString>
        <CharString name="ohorn">
          -55 callgsubr
          67 -20 hstemhm
          30 78 279 65 callgsubr
          hintmask 00100100
          8 callgsubr
          hintmask 00001000
          22 callsubr
          hintmask 11010100
          1 -1 rlineto
          22 hlineto
          -33 -29 rlineto
          29 -36 -45 17 -47 hhcurveto
          -59 -56 -27 -44 -40 hvcurveto
          -42 -46 -22 -62 -63 vvcurveto
          -60 23 -59 41 -44 vhcurveto
          -42 41 55 -25 59 hhcurveto
          59 55 25 42 41 hvcurveto
          hintmask 11011000
          41 44 23 59 60 vvcurveto
          63 -22 62 -42 46 vhcurveto
          -2 2 rlineto
          -12 -161 rmoveto
          -46 -10 -46 -29 -36 vhcurveto
          -32 -24 -38 -18 -40 hhcurveto
          -40 -38 18 32 -24 hvcurveto
          -29 36 -10 46 46 vvcurveto
          44 11 44 28 33 vhcurveto
          31 25 37 17 40 hhcurveto
          39 38 -17 -31 25 hvcurveto
          hintmask 00000010
          28 -33 11 -44 -44 vvcurveto
          endchar
        </CharString>
        <CharString name="ohornacute">
          -55 callgsubr
          67 -20 40 40 callgsubr
          30 78 279 65 callgsubr
          hintmask 0001000000000000
          470 445 rmoveto
          82 vlineto
          hintmask 0010000100000000
          -1 1 rlineto
          -81 hlineto
          hintmask 0001001000000000
          -90 callgsubr
          hintmask 0001100000000000
          -27 463 -75 callsubr
        </CharString>
        <CharString name="ohorndotbelow">
          -55 callgsubr
          67 -20 hstemhm
          30 78 97 89 93 65 callgsubr
          hintmask 00100010
          8 callgsubr
          hintmask 00000100
          22 callsubr
          hintmask 11010010
          1 -1 rlineto
          22 hlineto
          -33 -29 rlineto
          29 -36 -45 17 -47 hhcurveto
          -59 -56 -27 -44 -40 hvcurveto
          -42 -46 -22 -62 -63 vvcurveto
          -60 23 -59 41 -44 vhcurveto
          -42 41 55 -25 59 hhcurveto
          59 55 25 42 41 hvcurveto
          hintmask 11010100
          41 44 23 59 60 vvcurveto
          63 -22 62 -42 46 vhcurveto
          -2 2 rlineto
          -12 -161 rmoveto
          -46 -10 -46 -29 -36 vhcurveto
          -32 -24 -38 -18 -40 hhcurveto
          -40 -38 18 32 -24 hvcurveto
          -29 36 -10 46 46 vvcurveto
          44 11 44 28 33 vhcurveto
          31 25 37 17 40 hhcurveto
          39 38 -17 -31 25 hvcurveto
          hintmask 00000001
          28 -33 11 -44 -44 vvcurveto
          hintmask 00001000
          -96 -431 -80 callgsubr
        </CharString>
        <CharString name="ohorngrave">
          -55 callgsubr
          67 -20 40 40 callgsubr
          30 78 279 65 callgsubr
          hintmask 0001000000000000
          470 445 rmoveto
          82 vlineto
          hintmask 0010000100000000
          -1 1 rlineto
          -81 hlineto
          hintmask 0001001000000000
          -90 callgsubr
          hintmask 0001100000000000
          -70 296 -57 callsubr
        </CharString>
        <CharString name="ohornhookabove">
          -55 callgsubr
          63 -21 25 -20 210 -20 hstemhm
          30 78 279 65 callgsubr
          hintmask 0001000100000000
          8 callgsubr
          hintmask 0000001000000000
          -90 callgsubr
          hintmask 0010100000000000
          -43 409 -107 callgsubr
        </CharString>
</ttFont>
